<?xml version="1.0" encoding="UTF-8"?>
<svg id="Capa_2" xmlns="http://www.w3.org/2000/svg" viewBox="0 0 958.11 927.11">
  <defs>
    <style>
      .cls-1 {
        fill: #ea5f32;
      }

      .cls-2 {
        fill: #9a6519;
      }

      .cls-3 {
        fill: #ced4dd;
      }

      .cls-4 {
        fill: #ced4de;
      }

      .cls-5 {
        fill: #a66e1a;
      }

      .cls-6 {
        fill: #a36c19;
      }

      .cls-7 {
        fill: #bac3d4;
      }

      .cls-8 {
        fill: #010101;
      }

      .cls-9 {
        fill: #a9b1c0;
      }

      .cls-10 {
        fill: #ee7651;
      }

      .cls-11 {
        fill: #75818d;
      }

      .cls-12 {
        fill: #ee7551;
      }
    </style>
  </defs>
  <g id="Capa_1-2" data-name="Capa_1">
    <g>
      <path class="cls-8" d="M927.92,927.11c-299,0-597.99,0-896.99,0-.03-119.64-.05-239.28-.08-358.91l-.38.36c69.94,0,139.87,0,209.81,0l-.38-.37c.06,2.45.17,4.91.18,7.36.09,21.38.07,21.66,21.62,22.54,6.15.25,8.98,1.42,8.43,8.17-.6,7.32-.25,14.73-.32,22.09l.4-.38q-31.2.66-29.62,30.06c0,69.76,0,139.52,0,209.28-.16,4.96.2,10.01-.6,14.87-2.05,12.44,2.65,15.95,15.17,15.41,25.33-1.08,50.74-.32,76.12-.32q29.56,0,27.99-29.96c.16-45.8.62-91.6.25-137.39-.08-9.76,2.54-12.34,12.3-12.28,71.74.42,143.48.42,215.22,0,9.76-.06,12.38,2.52,12.3,12.28-.37,45.79.09,91.59.26,137.39-.16,4.96.2,10.01-.6,14.87-2.05,12.44,2.65,15.95,15.17,15.41,25.33-1.08,50.74-.32,76.12-.32q29.56,0,27.99-29.96c0-69.76,0-139.52,0-209.28q1.59-29.58-26.7-29.89c-.97-.01-1.94-.11-2.92-.17,0,0,.4.38.4.38-.07-2.45-.18-4.91-.2-7.36-.1-21.39-.1-21.66,21.59-22.55,6.13-.25,8.94-1.4,8.45-8.16-.53-7.33,0-14.73.06-22.09l-.38.36h209.81l-.38-.36c-.03,119.64-.06,239.28-.08,358.91ZM419.52,896.8c10.01,0,20.02.02,30.03.03,30.24.15,60.48.24,90.72.47q30.04.23,28.44-29.94c0-9.95-.02-19.9-.03-29.86,0-9.98,0-19.97,0-29.95,0-9.95,0-19.89,0-29.84.45-35.49,6.04-29.89-29.36-29.44-10.02,0-20.03,0-30.05,0-19.9,0-39.8,0-59.7,0-10.02,0-20.03,0-30.05,0-35.36-.42-29.82-6.1-29.36,29.43,0,9.95,0,19.9,0,29.85,0,9.99,0,19.98,0,29.97,0,9.95,0,19.9,0,29.85-.46,35.53-6,29.85,29.36,29.43ZM897.78,867.32c.16-86.64.25-173.29.63-259.93.03-7.09-1.92-9.32-9.16-9.27-43.85.31-87.7.31-131.55,0-7.24-.05-9.19,2.19-9.16,9.27.38,86.64.47,173.28.63,259.93-.16,3.97.13,8.02-.58,11.89-2.73,14.99,3.05,19.04,18.14,18.47,34.3-1.28,68.68-.4,103.02-.4q29.57,0,28.01-29.96ZM61.07,867.32c-.16,3.97.13,8.02-.58,11.89-2.73,14.99,3.05,19.04,18.14,18.47,34.3-1.28,68.68-.4,103.02-.4q29.57,0,28.01-29.96c.17-86.64.26-173.29.64-259.93.03-7.09-1.91-9.32-9.16-9.27-43.85.31-87.7.31-131.55,0-7.24-.05-9.19,2.18-9.16,9.27.38,86.64.47,173.29.63,259.93Z"/>
      <path class="cls-8" d="M628.94,299.34q29.99-.24,29.99,29.41v7.42c0,21.46.02,21.99-21.75,22.63-8.26.24-8.28,3.96-8.25,10,.13,26.72-.05,53.44-.12,80.16l.4-.38c-10.11.04-20.22.09-30.33.13-.09-19.89-.19-39.78-.28-59.67.16-3.47.45-6.95.47-10.42q.14-19.54-19.55-19.54c-63.75,0-127.5,0-191.25,0q-29.6,0-28.04,29.96c-.09,19.89-.19,39.78-.28,59.68-10.11-.04-20.22-.09-30.33-.13l.4.38c-.07-25.73-.69-51.48.07-77.18.3-10.4-2.44-14.72-12.9-12.7-13.99,2.7-20.08-2.37-17.41-16.99.79-4.31.12-8.89.12-13.34q0-29.65,29.99-29.4l-.17-.17q.3,31.06,29.98,29.5c79.8,0,159.61,0,239.41,0q29.72,1.57,29.94-28.01c0-.5.03-.99.04-1.49l-.16.17Z"/>
      <path class="cls-8" d="M718.97,508.75c-.07-25.73-.69-51.48.07-77.18.3-10.39-2.44-14.72-12.9-12.7-13.99,2.7-20.08-2.37-17.41-16.99.79-4.31.12-8.89.12-13.34q0-29.65,29.99-29.41l-.16-.17q.3,31.06,29.98,29.5c49.88,0,99.77,0,149.65,0q29.72,1.57,29.94-28.01c0-.5.03-.99.04-1.49l-.17.17q29.99-.24,29.99,29.4v7.42c0,21.46.02,21.99-21.75,22.63-8.26.24-8.28,3.96-8.25,10,.13,26.72-.05,53.44-.12,80.16,0,0,.4-.38.4-.38-20.08.04-40.16.09-60.24.13.07-6.94.61-13.92.08-20.81-.55-7.19,2.06-9.04,9.15-9.23,21.11-.55,21.12-.91,20.88-22.24-.03-2.47-.31-4.93-.47-7.4.16-3.97-.13-8.02.58-11.89,2.73-14.99-3.05-19.04-18.14-18.47-34.3,1.28-68.68.4-103.02.4q-29.57,0-28.01,29.96c-.16,6.93.04,13.89-.59,20.78-.66,7.13,1.94,9.08,9.08,9.27,20.85.53,20.84.91,20.94,22.2.01,2.48.13,4.95.21,7.43-20.08-.04-40.16-.09-60.24-.13l.4.38Z"/>
      <path class="cls-8" d="M30.86,508.75c-.07-25.73-.69-51.48.07-77.18.31-10.4-2.44-14.72-12.9-12.7-13.99,2.7-20.08-2.37-17.41-16.99.79-4.31.12-8.89.12-13.34q0-29.65,29.99-29.4l-.17-.17q.3,31.06,29.98,29.5c49.88,0,99.77,0,149.65,0q29.73,1.58,29.94-28c0-.5.03-.99.04-1.49l-.17.17q29.99-.25,29.99,29.4v7.42c0,21.46.02,21.99-21.75,22.63-8.26.24-8.28,3.96-8.25,10,.13,26.72-.05,53.44-.12,80.16,0,0,.4-.38.4-.38-20.08.04-40.16.09-60.24.13.07-6.94.61-13.92.08-20.81-.55-7.19,2.06-9.04,9.15-9.22,21.11-.55,21.12-.91,20.88-22.24-.03-2.47-.31-4.93-.47-7.4.16-3.97-.13-8.02.58-11.89,2.73-14.99-3.04-19.04-18.14-18.47-34.3,1.28-68.68.4-103.03.4q-29.57,0-28.01,29.96c-.16,6.93.04,13.89-.59,20.78-.66,7.13,1.94,9.08,9.08,9.27,20.86.53,20.84.91,20.95,22.19.01,2.48.13,4.95.2,7.43-20.08-.04-40.16-.09-60.24-.13l.4.38Z"/>
      <path class="cls-8" d="M628.82,508.39c.06,26.68.21,53.36.13,80.04-.02,5.85-.33,9.86,8.1,10.12,22.02.69,22.01,1.24,21.87,23.89-.01,1.97-.13,3.95-.2,5.92l.4-.38c-20.08.04-40.16.09-60.24.13.07-26.38-.19-52.76.41-79.13.19-8.53-2.44-10.73-10.8-10.69-72.71.31-145.42.31-218.12,0-8.36-.04-11,2.16-10.81,10.69.6,26.37.33,52.75.4,79.13-20.08-.04-40.16-.09-60.24-.13l.4.38c-.07-1.97-.18-3.95-.2-5.92-.14-22.65-.15-23.2,21.87-23.89,8.43-.26,8.12-4.27,8.1-10.12-.09-26.68.06-53.36.13-80.04l-.38.37h299.56l-.38-.36Z"/>
      <path class="cls-8" d="M569.15,89.93q.08,29.93-29.91,29.93t-29.9,29.99c0,9.96-.05,19.93-.07,29.89l.17-.17c-20.01,0-40.01,0-60.02,0l.17.17c-.03-55.8.18-111.6-.3-167.39-.08-9.59,2.21-12.44,12.15-12.34,51.84.53,103.68.5,155.52.02,9.66-.09,13.49,2.28,12.21,12.19-.76,5.88-.14,11.94-.14,17.92q0,29.98-29.94,29.89l.06.06c-.01-5.46-.69-11.01.1-16.35,1.66-11.31-2.74-14.39-13.84-13.85-19.31.94-38.72-.17-58.06.39-15.67.46-37.14-7.05-45.38,3.12-7.85,9.68-1.79,30.31-2.69,46.08-.5,8.78,2.84,10.78,11.03,10.64,26.3-.44,52.62-.14,78.93-.13l-.06-.06Z"/>
      <path class="cls-8" d="M210.35,209.48q-.58,29.98-31.54,29.98c-2.99,0-5.98,0-8.97,0-20.56,0-20.17,0-19.72,20.92.16,7.17,2.11,9.03,9.23,9.18,20.94.45,20.93.82,20.89,22.3,0,2.49-.05,4.98-.08,7.47l.17-.17c-29.98,0-59.96,0-89.94,0l.17.17c-.03-2.49-.07-4.98-.07-7.47-.04-21.47-.04-22.15,20.9-22.2,9.19-.02,9.12-4.27,9.09-10.8-.15-32.87.22-65.75-.27-98.61-.12-8.46,2.27-10.82,10.72-10.7,32.88.48,65.78.48,98.66,0,8.5-.13,11.54,2.3,10.61,10.74-.65,5.91-.12,11.94-.12,17.92q0,30.94-30,31.53.26-30.1-29.76-30.09c-6.94,0-13.91.43-20.81-.08-13.49-1-8.82,8.98-8.95,15.17-.13,6.34-4.1,15.6,9.23,14.98,16.82-.78,33.7-.23,50.56-.25Z"/>
      <path class="cls-8" d="M778.68,299.33c-.03-2.49-.07-4.98-.07-7.47-.04-21.47-.04-22.15,20.9-22.2,9.19-.02,9.12-4.27,9.09-10.8-.15-32.87.21-65.75-.27-98.61-.12-8.46,2.27-10.82,10.71-10.7,32.88.48,65.78.48,98.66,0,8.49-.13,11.54,2.29,10.61,10.74-.65,5.91-.12,11.94-.12,17.92q0,30.94-30,31.53.25-30.09-29.78-30.09c-6.94,0-13.91.42-20.82-.08-13.5-.99-8.8,9.01-8.94,15.19-.14,6.34-4.11,15.6,9.23,14.98,16.82-.78,33.71-.23,50.57-.26q-.59,29.98-31.54,29.98c-2.99,0-5.98,0-8.97,0-20.56,0-20.17,0-19.72,20.92.16,7.17,2.11,9.03,9.23,9.18,20.94.45,20.93.82,20.9,22.3,0,2.49-.05,4.98-.07,7.47l.17-.16c-29.98,0-59.96,0-89.94,0l.17.16Z"/>
      <path class="cls-8" d="M718.96,568.2q-30.11.56-30.11-28.99v-1.48q0-29.57,30.12-28.97s-.4-.38-.4-.38c.23,10.02.46,20.04.69,30.06-.23,10.04-.46,20.09-.69,30.13l.38-.36Z"/>
      <path class="cls-8" d="M927.99,508.75q30.12-.6,30.12,28.97v1.48q0,29.55-30.11,28.99s.38.36.38.36l-.69-30.12c.23-10.02.47-20.04.7-30.06l-.4.38Z"/>
      <path class="cls-8" d="M239.88,508.75q30.12-.6,30.12,28.97v1.48q0,29.55-30.11,28.99s.38.37.38.37c-.23-10.04-.46-20.08-.68-30.12.23-10.02.46-20.04.69-30.07l-.4.38Z"/>
      <path class="cls-8" d="M628.81,448.95q30.12-.59,30.12,28.97v1.48q0,29.55-30.11,28.99s.38.36.38.36c-.23-10.04-.46-20.09-.69-30.13.23-10.02.46-20.04.69-30.06l-.4.38Z"/>
      <path class="cls-8" d="M30.84,568.2q-30.11.56-30.11-28.99c0-.49,0-.99,0-1.48q0-29.56,30.12-28.97s-.4-.38-.4-.38c.23,10.02.46,20.04.69,30.06-.23,10.04-.46,20.09-.69,30.13l.38-.36Z"/>
      <path class="cls-8" d="M330.03,508.39q-30.11.56-30.11-28.99v-1.48q0-29.56,30.12-28.97s-.4-.38-.4-.38c.23,10.02.46,20.04.69,30.06-.23,10.04-.46,20.08-.68,30.13l.38-.37Z"/>
      <path class="cls-8" d="M748.76,329.24q-.25-30.14,29.92-29.9l-.17-.16c-.08,9.95-.16,19.9-.23,29.85,0,0,.19-.19.19-.19-9.96.08-19.91.16-29.87.23l.17.17Z"/>
      <path class="cls-8" d="M539.18,209.63q30.16-.25,29.92,29.9l.17-.16c-9.96-.08-19.91-.16-29.87-.23l.19.19c-.08-9.95-.16-19.9-.23-29.85l-.17.17Z"/>
      <path class="cls-8" d="M868.28,299.33q30.16-.24,29.92,29.9l.17-.16c-9.96-.08-19.91-.16-29.87-.23l.19.19c-.08-9.95-.16-19.9-.23-29.85l-.17.16Z"/>
      <path class="cls-8" d="M30.73,359.14q-.24-30.15,29.92-29.9l-.16-.17c-.08,9.95-.16,19.9-.23,29.85,0,0,.19-.19.19-.19-9.96.08-19.91.16-29.87.23l.17.17Z"/>
      <path class="cls-8" d="M599.07,60.03q.08,29.98-29.92,29.9s.06.06.06.06q-.12-30.02,29.92-29.9l-.06-.06Z"/>
      <path class="cls-8" d="M419.66,209.63q-.25-30.14,29.92-29.9l-.17-.17-.23,29.85.19-.19c-9.96.08-19.91.16-29.87.23l.17.17Z"/>
      <path class="cls-8" d="M509.26,179.73q30.16-.24,29.92,29.9l.17-.17c-9.96-.08-19.91-.16-29.87-.23l.19.19c-.08-9.95-.16-19.9-.23-29.85l-.17.17Z"/>
      <path class="cls-8" d="M389.75,239.53q-.25-30.14,29.92-29.9l-.17-.17c-.08,9.95-.16,19.9-.23,29.85l.19-.19c-9.96.08-19.91.16-29.87.23l.17.17Z"/>
      <path class="cls-8" d="M269.79,628.36c10.11,0,20.22,0,30.33,0,0,0-.4-.38-.4-.38-.04,10-.08,19.99-.12,29.99-9.76,0-19.53,0-29.29,0-.04-9.99-.08-19.99-.11-29.98,0,0-.4.38-.4.38Z"/>
      <path class="cls-8" d="M359.83,269.43q-.25-30.14,29.92-29.9l-.17-.17c-.08,9.95-.16,19.9-.23,29.85l.19-.19c-9.96.08-19.91.16-29.87.23l.17.17Z"/>
      <path class="cls-8" d="M569.1,239.53q30.17-.24,29.92,29.9l.17-.16c-9.96-.08-19.91-.16-29.87-.23l.19.19c-.08-9.95-.16-19.9-.23-29.85l-.17.16Z"/>
      <path class="cls-8" d="M658.73,628.36c10.11,0,20.22,0,30.33,0,0,0-.4-.38-.4-.38-.04,9.99-.08,19.99-.12,29.98-9.76,0-19.53,0-29.29,0-.04-9.99-.08-19.99-.12-29.98l-.4.38Z"/>
      <path class="cls-8" d="M329.91,299.34q-.24-30.15,29.92-29.9l-.17-.17c-.08,9.95-.16,19.9-.23,29.85l.19-.19c-9.96.08-19.91.16-29.87.23l.17.17Z"/>
      <path class="cls-8" d="M599.02,269.43q30.16-.24,29.92,29.9l.16-.17c-9.96-.08-19.91-.16-29.87-.23l.19.19c-.08-9.95-.16-19.9-.23-29.85l-.17.16Z"/>
      <path class="cls-8" d="M60.65,329.24q-.24-30.15,29.92-29.9s-.17-.17-.17-.17c-.08,9.95-.16,19.9-.23,29.85l.19-.19c-9.96.08-19.91.16-29.87.23l.16.17Z"/>
      <path class="cls-8" d="M180.17,299.34q30.17-.25,29.92,29.9l.17-.16c-9.96-.08-19.91-.16-29.87-.23l.19.19c-.08-9.95-.16-19.9-.23-29.85l-.17.17Z"/>
      <path class="cls-8" d="M898.2,329.24q30.16-.24,29.92,29.9l.17-.17c-9.96-.08-19.91-.16-29.87-.23l.19.19c-.08-9.95-.16-19.9-.23-29.85l-.17.16Z"/>
      <path class="cls-8" d="M718.84,359.14q-.24-30.15,29.92-29.9l-.17-.17c-.08,9.95-.16,19.9-.23,29.85l.19-.19c-9.96.08-19.91.16-29.87.23l.16.17Z"/>
      <path class="cls-8" d="M210.09,329.24q30.16-.24,29.92,29.91s.17-.17.17-.17c-9.96-.08-19.92-.15-29.87-.23,0,0,.19.19.19.19-.08-9.95-.15-19.9-.23-29.86,0,0-.17.16-.17.16Z"/>
      <path class="cls-7" d="M659.24,657.96c9.76,0,19.53,0,29.29,0,9.91.03,19.82.05,29.73.08,0,69.76,0,139.52,0,209.28-39.56,0-79.12,0-118.68,0-.16-45.8-.63-91.6-.26-137.39.08-9.76-2.54-12.34-12.3-12.28-71.74.42-143.48.42-215.22,0-9.76-.06-12.38,2.52-12.3,12.28.37,45.79-.09,91.59-.25,137.39-39.56,0-79.12,0-118.68,0,0-69.76,0-139.52,0-209.28,9.91-.03,19.82-.05,29.73-.08,9.76,0,19.53,0,29.29,0,20.16,0,40.31,0,60.47,0,9.76,0,19.53,0,29.29,0,20.15,0,40.31,0,60.46,0,19.74,0,39.47,0,59.21,0,20.15,0,40.31,0,60.46,0,9.76,0,19.53,0,29.29,0,20.15,0,40.31,0,60.46,0Z"/>
      <path class="cls-7" d="M61.07,867.32c-.16-86.64-.25-173.29-.63-259.93-.03-7.09,1.92-9.32,9.16-9.27,43.85.31,87.7.3,131.55,0,7.24-.05,9.19,2.19,9.16,9.27-.38,86.64-.47,173.29-.64,259.93-49.53,0-99.07,0-148.6,0ZM120.56,658.23c-5.48-.05-11.04.5-16.41-.29-11.03-1.62-14.49,2.13-13.97,13.56,1.02,22.35.56,44.78.15,67.16-.13,7.11,1.96,9.38,9.18,9.26,23.89-.41,47.8-.41,71.69,0,7.22.12,9.38-2.13,9.18-9.25-.46-16.91-.15-33.83-.15-50.75q0-30.19-30.07-29.69c.05-4.98-.51-10.06.27-14.92,1.98-12.34-2.5-15.68-15.08-15.68-12.58,0-17.06,3.34-15.08,15.68.78,4.86.22,9.94.27,14.92Z"/>
      <path class="cls-7" d="M749.18,867.32c-.16-86.64-.25-173.29-.63-259.93-.03-7.09,1.92-9.32,9.16-9.27,43.85.31,87.7.31,131.55,0,7.24-.05,9.19,2.18,9.16,9.27-.38,86.64-.47,173.28-.63,259.93-49.53,0-99.07,0-148.6,0ZM808.67,658.23c-5.48-.05-11.04.5-16.41-.29-11.03-1.62-14.48,2.14-13.96,13.56,1.02,22.35.56,44.78.15,67.16-.13,7.11,1.95,9.38,9.18,9.26,23.89-.41,47.8-.41,71.69,0,7.23.12,9.37-2.13,9.18-9.26-.46-16.91-.15-33.83-.15-50.75q0-30.18-30.07-29.69c.05-4.98-.51-10.06.27-14.92,1.98-12.33-2.63-15.12-15.04-15.77-15.14-.79-16.22,5.99-15.06,17.26.46,4.44.17,8.96.22,13.44Z"/>
      <path class="cls-7" d="M927.69,538.44l.69,30.12h-209.81c.23-10.04.46-20.09.69-30.13,19.88-.02,39.77-.05,59.65-.07,9.76,0,19.53,0,29.29,0,10.18,0,20.36,0,30.54,0,9.76,0,19.53,0,29.29,0,19.88.03,39.77.06,59.65.09Z"/>
      <path class="cls-7" d="M30.46,568.56c.23-10.04.46-20.09.69-30.13,19.88-.03,39.77-.05,59.65-.08,9.76,0,19.53,0,29.29,0,10.18,0,20.36,0,30.54,0,9.77,0,19.53,0,29.3,0,19.88.03,39.77.06,59.65.08.23,10.04.46,20.08.68,30.12-69.94,0-139.87,0-209.81,0Z"/>
      <path class="cls-11" d="M390.16,807.55c0-9.95,0-19.9,0-29.85,9.81-.17,19.61-.33,29.42-.5,9.98,0,19.95,0,29.93,0,19.94,0,39.88,0,59.82-.01,9.98,0,19.95,0,29.93,0,9.81.17,19.61.34,29.42.51,0,9.95,0,19.89,0,29.84-9.81.17-19.62.34-29.42.51-9.97,0-19.95,0-29.92,0-19.94,0-39.89-.01-59.83-.02-9.98,0-19.95,0-29.93,0-9.81-.17-19.61-.34-29.42-.5Z"/>
      <path class="cls-11" d="M568.68,837.5c0,9.95.02,19.9.03,29.85-39.74.17-79.48.35-119.21.52-9.97,0-19.94,0-29.91,0-9.81-.17-19.62-.33-29.42-.5,0-9.95,0-19.9,0-29.85,9.81-.17,19.62-.34,29.42-.51,9.97,0,19.95,0,29.92,0,19.94,0,39.89,0,59.83,0,9.97,0,19.95,0,29.92,0,9.81.17,19.62.33,29.42.5Z"/>
      <path class="cls-9" d="M61.07,867.32c49.53,0,99.07,0,148.6,0q1.57,29.96-28.01,29.96c-34.35,0-68.73-.88-103.02.4-15.1.56-20.87-3.49-18.14-18.47.7-3.87.41-7.92.58-11.89Z"/>
      <path class="cls-9" d="M749.18,867.32c49.53,0,99.07,0,148.6,0q1.57,29.96-28.01,29.96c-34.35,0-68.73-.88-103.02.4-15.1.56-20.87-3.49-18.14-18.47.7-3.87.41-7.92.58-11.89Z"/>
      <path class="cls-9" d="M240.57,867.32c39.56,0,79.12,0,118.68,0q1.57,29.96-27.99,29.96c-25.38,0-50.79-.75-76.12.32-12.52.53-17.22-2.98-15.17-15.41.8-4.86.43-9.91.6-14.87Z"/>
      <path class="cls-6" d="M449.5,867.87c39.74-.17,79.48-.35,119.21-.52q1.6,30.24-28.44,29.94c-30.24-.23-60.48-.32-90.72-.47-.02-9.65-.04-19.3-.05-28.95Z"/>
      <path class="cls-9" d="M599.59,867.32c39.56,0,79.12,0,118.68,0q1.57,29.96-27.99,29.96c-25.38,0-50.79-.75-76.12.32-12.52.53-17.22-2.98-15.17-15.41.8-4.86.43-9.91.6-14.87Z"/>
      <path class="cls-5" d="M509.33,777.19c-19.94,0-39.88,0-59.82.01.02-9.65.04-19.29.06-28.94,19.9,0,39.8,0,59.7,0,.02,9.64.04,19.28.06,28.92Z"/>
      <path class="cls-3" d="M270.31,657.96c-9.91.03-19.82.05-29.73.08q-1.58-29.4,29.62-30.06c.04,9.99.08,19.99.11,29.98Z"/>
      <path class="cls-3" d="M718.27,658.04c-9.91-.03-19.82-.05-29.73-.08.04-9.99.08-19.99.12-29.98.97.06,1.94.16,2.92.17q28.29.32,26.7,29.89Z"/>
      <path class="cls-5" d="M419.58,777.19c-9.81.17-19.61.33-29.42.5-.46-35.53-6-29.85,29.36-29.43.02,9.64.04,19.29.06,28.93Z"/>
      <path class="cls-2" d="M419.58,777.2c-.02-9.64-.04-19.29-.06-28.93,10.02,0,20.03,0,30.05,0-.02,9.65-.04,19.29-.06,28.94-9.98,0-19.95,0-29.93,0Z"/>
      <path class="cls-2" d="M509.33,777.19c-.02-9.64-.04-19.28-.06-28.92,10.02,0,20.03,0,30.05,0-.02,9.64-.04,19.29-.06,28.93-9.98,0-19.95,0-29.93,0Z"/>
      <path class="cls-5" d="M419.58,837.01c-9.81.17-19.62.34-29.42.51,0-9.99,0-19.98,0-29.97,9.81.17,19.61.34,29.42.5,0,9.65,0,19.31,0,28.96Z"/>
      <path class="cls-5" d="M568.68,837.5c-9.81-.17-19.62-.33-29.42-.5,0-9.65,0-19.29,0-28.94,9.81-.17,19.62-.34,29.42-.51,0,9.98,0,19.97,0,29.95Z"/>
      <path class="cls-5" d="M390.16,867.37c9.81.17,19.62.33,29.42.5-.02,9.64-.04,19.29-.06,28.93-35.36.42-29.82,6.1-29.36-29.43Z"/>
      <path class="cls-2" d="M419.52,896.8c.02-9.64.04-19.29.06-28.93,9.97,0,19.94,0,29.91,0,.02,9.65.04,19.3.05,28.95-10.01,0-20.02-.02-30.03-.03Z"/>
      <path class="cls-5" d="M539.26,777.2c.02-9.64.04-19.29.06-28.93,35.4-.45,29.82-6.05,29.36,29.44-9.81-.17-19.61-.34-29.42-.51Z"/>
      <path class="cls-1" d="M599.13,328.66c-79.8,0-159.61,0-239.41,0-.04-9.91-.07-19.82-.11-29.73,0,0-.19.19-.19.19,35.4-.27,29.84,5.29,30.1-30.09,0,0-.19.19-.19.19,35.4-.27,29.84,5.29,30.1-30.09,0,0-.19.19-.19.19,35.4-.27,29.84,5.3,30.1-30.09,0,0-.19.19-.19.19,20.16,0,40.32,0,60.49,0,0,0-.19-.19-.19-.19.25,35.41-5.26,29.82,30.1,30.09,0,0-.19-.19-.19-.19.27,35.34-5.31,29.84,30.1,30.09,0,0-.19-.19-.19-.19.25,35.4-5.26,29.82,30.1,30.09,0,0-.19-.19-.19-.19-.04,9.91-.07,19.82-.11,29.73Z"/>
      <path class="cls-7" d="M598.6,389.02c.09,19.89.19,39.78.28,59.67,0,0,.42-.09.42-.09-10.11.11-20.21.23-30.32.34q.63-30.08-28.99-30.08c-.49,0-.98,0-1.48,0q-29.57,0-28.99,30.1h-60.2q.58-30.1-28.99-30.1h-1.48q-29.63,0-28.99,30.08c-10.11-.11-20.21-.23-30.32-.34l.41.09c.09-19.89.19-39.78.28-59.67,79.45,0,158.91,0,238.36,0Z"/>
      <path class="cls-9" d="M598.6,389.02c-79.45,0-158.91,0-238.36,0q-1.56-29.96,28.04-29.96c63.75,0,127.5,0,191.25,0q19.66,0,19.55,19.54c-.02,3.47-.31,6.95-.47,10.42Z"/>
      <path class="cls-12" d="M599.13,328.66c.04-9.91.07-19.82.11-29.73,9.96.08,19.91.16,29.87.23-.01.5-.04.99-.04,1.49q-.21,29.58-29.94,28.01Z"/>
      <path class="cls-3" d="M629.21,448.57c-.23,10.02-.46,20.04-.69,30.06-9.91-.03-19.82-.05-29.73-.08.17-9.98.34-19.96.51-29.94,0,0-.42.09-.42.09,10.11-.04,20.22-.09,30.33-.13Z"/>
      <path class="cls-4" d="M330.33,478.63c-.23-10.02-.46-20.04-.69-30.06,10.11.04,20.22.09,30.33.13,0,0-.41-.09-.41-.09.18,9.98.35,19.97.53,29.95-9.91.02-19.83.05-29.74.07Z"/>
      <path class="cls-10" d="M359.61,298.94c.04,9.91.07,19.82.11,29.73q-29.68,1.57-29.98-29.5c9.96-.08,19.91-.16,29.87-.23Z"/>
      <path class="cls-1" d="M898.31,388.47c-49.88,0-99.77,0-149.65,0-.04-9.91-.07-19.82-.11-29.73,0,0-.19.19-.19.19,35.42-.25,29.83,5.26,30.1-30.09,0,0-.19.19-.19.19,30.13,0,60.27,0,90.4,0,0,0-.19-.19-.19-.19.26,35.37-5.29,29.82,30.1,30.09,0,0-.19-.19-.19-.19-.04,9.91-.07,19.82-.11,29.73Z"/>
      <path class="cls-7" d="M778.81,508.5c-.07-2.48-.19-4.95-.2-7.43-.1-21.28-.09-21.66-20.94-22.2-7.14-.18-9.74-2.13-9.08-9.27.63-6.89.43-13.85.59-20.78,49.53,0,99.07,0,148.6,0,.16,2.47.45,4.93.47,7.4.24,21.32.24,21.69-20.88,22.24-7.09.18-9.7,2.04-9.15,9.23.53,6.89-.01,13.87-.08,20.81,0,0,.41-.09.41-.09-10.11,0-20.22,0-30.32,0l.36.36c-.05-4.41-.8-8.95-.03-13.21,2.61-14.49-3.32-18.2-17.32-17.36-9.95.59-14.34,2.33-12.87,12.95.8,5.76.04,11.74-.01,17.62l.09-.41c-10.02.02-20.03.04-30.05.05l.41.09Z"/>
      <path class="cls-9" d="M897.78,448.83c-49.53,0-99.07,0-148.6,0q-1.57-29.96,28.01-29.96c34.35,0,68.73.88,103.02-.4,15.1-.56,20.87,3.49,18.14,18.47-.7,3.87-.41,7.92-.58,11.89Z"/>
      <path class="cls-4" d="M778.91,538.36c-19.88.02-39.77.05-59.65.07-.23-10.02-.46-20.04-.69-30.06,20.08.04,40.16.09,60.24.13,0,0-.41-.09-.41-.09.17,9.98.34,19.96.52,29.95Z"/>
      <path class="cls-3" d="M927.69,538.44c-19.88-.03-39.77-.06-59.65-.09.17-9.98.34-19.96.52-29.94,0,0-.42.09-.41.09,20.08-.04,40.16-.09,60.24-.13-.23,10.02-.47,20.04-.7,30.06Z"/>
      <path class="cls-10" d="M898.31,388.47c.04-9.91.07-19.82.11-29.73,9.96.08,19.91.15,29.87.23-.01.5-.04.99-.04,1.49q-.21,29.58-29.94,28.01Z"/>
      <path class="cls-12" d="M748.54,358.74c.04,9.91.07,19.82.11,29.73q-29.68,1.56-29.98-29.5c9.96-.08,19.91-.16,29.87-.23Z"/>
      <path class="cls-1" d="M210.19,388.46c-49.88,0-99.77,0-149.65,0-.04-9.91-.07-19.82-.11-29.73,0,0-.19.19-.19.19,35.36-.27,29.86,5.31,30.1-30.09,0,0-.19.19-.19.19,30.13,0,60.27,0,90.4,0,0,0-.19-.19-.19-.19.26,35.39-5.28,29.82,30.1,30.09,0,0-.19-.19-.19-.19-.04,9.91-.07,19.82-.11,29.72Z"/>
      <path class="cls-7" d="M209.67,448.83c.16,2.47.45,4.93.47,7.4.24,21.32.24,21.69-20.88,22.24-7.09.18-9.7,2.04-9.15,9.22.53,6.89-.01,13.87-.08,20.81,0,0,.42-.09.42-.09-10.11,0-20.22,0-30.33,0l.36.36c-.05-3.92-.72-7.95-.05-11.74,2.76-15.53-3.69-20.07-18.78-18.77-8.61.74-12.58,1.99-11.4,11.42.78,6.27.05,12.72,0,19.1l.09-.41c-10.02.02-20.04.03-30.05.05l.41.09c-.07-2.48-.19-4.95-.2-7.43-.1-21.28-.09-21.66-20.95-22.19-7.14-.18-9.74-2.14-9.08-9.27.63-6.89.43-13.85.59-20.78,49.53,0,99.07,0,148.6,0Z"/>
      <path class="cls-9" d="M209.67,448.83c-49.53,0-99.07,0-148.6,0q-1.57-29.96,28.01-29.96c34.35,0,68.73.88,103.03-.4,15.1-.56,20.87,3.49,18.14,18.47-.7,3.87-.41,7.92-.58,11.89Z"/>
      <path class="cls-3" d="M90.8,538.35c-19.88.03-39.77.05-59.65.08-.23-10.02-.46-20.04-.69-30.06,20.08.04,40.16.09,60.24.13,0,0-.41-.09-.41-.09.17,9.98.35,19.96.52,29.94Z"/>
      <path class="cls-3" d="M239.59,538.44c-19.88-.03-39.77-.06-59.65-.08.17-9.98.34-19.96.51-29.94,0,0-.42.09-.42.09,20.08-.04,40.16-.09,60.24-.13-.23,10.02-.46,20.04-.69,30.07Z"/>
      <path class="cls-10" d="M210.19,388.46c.04-9.91.07-19.81.11-29.72,9.96.08,19.92.15,29.87.23-.01.5-.04.99-.04,1.49q-.21,29.59-29.94,28Z"/>
      <path class="cls-10" d="M60.43,358.74c.04,9.91.07,19.82.11,29.73q-29.68,1.57-29.98-29.5c9.96-.08,19.91-.16,29.87-.23Z"/>
      <path class="cls-7" d="M359.96,628.1c-.07-26.38.2-52.76-.4-79.13-.19-8.53,2.44-10.72,10.81-10.69,72.71.31,145.42.31,218.12,0,8.37-.04,11,2.16,10.8,10.69-.6,26.37-.34,52.75-.41,79.13,0,0,.42-.09.42-.09-10.11,0-20.22,0-30.33,0l.36.36q-.49-30.11-29.33-30.1-30.31,0-30.82,30.1l.36-.36c-20.08,0-40.16,0-60.25,0l.36.36q-.52-30.11-29.34-30.11-30.31,0-30.81,30.11l.36-.36h-30.33l.41.09Z"/>
      <path class="cls-7" d="M330.33,478.63c9.91-.02,19.83-.05,29.74-.07,9.76,0,19.52,0,29.28,0,20.16,0,40.31,0,60.47,0,19.74,0,39.47,0,59.21,0,20.15,0,40.31,0,60.46,0,9.77,0,19.53,0,29.3,0,9.91.03,19.82.05,29.73.08.23,10.04.46,20.09.69,30.13h-299.56c.23-10.04.46-20.08.68-30.13Z"/>
      <path class="cls-4" d="M360.07,657.96c-20.16,0-40.31,0-60.47,0,.04-10,.08-19.99.12-29.99,20.08.04,40.16.09,60.24.13,0,0-.41-.09-.41-.09.17,9.98.35,19.96.52,29.95Z"/>
      <path class="cls-3" d="M659.24,657.96c-20.15,0-40.31,0-60.46,0,.17-9.98.35-19.96.52-29.94,0,0-.42.09-.42.09,20.08-.04,40.16-.09,60.25-.13.04,9.99.08,19.99.12,29.98Z"/>
      <path class="cls-1" d="M599.13,60.09q-30.04-.12-29.92,29.9c-26.31-.01-52.62-.31-78.93.13-8.19.14-11.53-1.86-11.03-10.64.9-15.77-5.16-36.4,2.69-46.08,8.25-10.17,29.72-2.66,45.38-3.12,19.34-.56,38.75.55,58.06-.39,11.1-.54,15.5,2.54,13.84,13.85-.78,5.34-.11,10.89-.1,16.35Z"/>
      <path class="cls-10" d="M509.67,209.42c-20.16,0-40.32,0-60.49,0,.08-9.95.16-19.9.23-29.85,20.01,0,40.01,0,60.02,0,.08,9.95.16,19.9.23,29.85Z"/>
      <path class="cls-10" d="M180.57,329.02c-30.13,0-60.27,0-90.4,0,.08-9.95.16-19.9.23-29.85,29.98,0,59.96,0,89.94,0,.08,9.95.16,19.9.23,29.85Z"/>
      <path class="cls-1" d="M210.35,209.48c-16.85.02-33.74-.53-50.56.25-13.33.62-9.36-8.64-9.23-14.98.13-6.19-4.54-16.17,8.95-15.17,6.9.51,13.87.08,20.81.08q30.02-.02,29.76,30.09s.26-.27.26-.27Z"/>
      <path class="cls-12" d="M868.68,329.02c-30.13,0-60.27,0-90.4,0,.08-9.95.16-19.9.23-29.85,29.98,0,59.96,0,89.94,0,.08,9.95.16,19.9.23,29.85Z"/>
      <path class="cls-1" d="M898.46,209.48c-16.86.02-33.74-.53-50.57.26-13.33.62-9.36-8.64-9.23-14.98.13-6.18-4.57-16.17,8.94-15.19,6.9.51,13.88.08,20.82.08q30.02,0,29.78,30.09s.26-.27.26-.27Z"/>
      <path class="cls-10" d="M778.46,328.84c-.27,35.35,5.32,29.84-30.1,30.09.08-9.95.16-19.9.23-29.85,9.96-.08,19.91-.16,29.87-.23Z"/>
      <path class="cls-12" d="M569.5,269.22c-35.42-.25-29.84,5.26-30.1-30.09,9.96.08,19.91.16,29.87.23.08,9.95.16,19.9.23,29.85Z"/>
      <path class="cls-10" d="M539.58,239.32c-35.37-.27-29.86,5.32-30.1-30.09,9.96.08,19.91.16,29.87.23.08,9.95.16,19.9.23,29.85Z"/>
      <path class="cls-12" d="M898.6,358.92c-35.4-.26-29.84,5.29-30.1-30.09,9.96.08,19.91.16,29.87.23.08,9.95.16,19.9.23,29.85Z"/>
      <path class="cls-12" d="M90.35,328.84c-.25,35.4,5.26,29.82-30.1,30.09.08-9.95.16-19.9.23-29.85,9.96-.08,19.91-.16,29.87-.23Z"/>
      <path class="cls-10" d="M449.37,209.23c-.27,35.38,5.3,29.82-30.1,30.09.08-9.95.16-19.9.23-29.85,9.96-.08,19.91-.16,29.87-.23Z"/>
      <path class="cls-10" d="M419.45,239.13c-.27,35.38,5.29,29.82-30.1,30.09.08-9.95.16-19.9.23-29.85,9.96-.08,19.91-.16,29.87-.23Z"/>
      <path class="cls-10" d="M389.53,269.03c-.27,35.38,5.29,29.82-30.1,30.09.08-9.95.16-19.9.23-29.85,9.96-.08,19.91-.16,29.87-.23Z"/>
      <path class="cls-12" d="M599.42,299.12c-35.36-.27-29.86,5.31-30.1-30.09,9.96.08,19.91.16,29.87.23.08,9.95.16,19.9.23,29.85Z"/>
      <path class="cls-12" d="M210.48,358.93c-35.38-.27-29.84,5.3-30.1-30.09,9.96.08,19.91.16,29.87.23.08,9.95.15,19.9.23,29.86Z"/>
      <path class="cls-4" d="M449.82,657.96c-20.15,0-40.31,0-60.46,0,.17-9.98.34-19.96.52-29.95l-.36.36c20.05,0,40.1,0,60.15,0l-.36-.36c.17,9.98.35,19.96.52,29.95Z"/>
      <path class="cls-4" d="M569.49,657.96c-20.15,0-40.31,0-60.46,0,.17-9.98.35-19.96.52-29.95l-.36.36c20.05,0,40.1,0,60.15,0l-.36-.36c.17,9.98.34,19.96.52,29.95Z"/>
      <path class="cls-8" d="M509.55,628.02c-.17,9.98-.35,19.96-.52,29.95-19.74,0-39.47,0-59.21,0-.17-9.98-.35-19.96-.52-29.95,20.08,0,40.16,0,60.25,0Z"/>
      <path class="cls-8" d="M389.87,628.02c-.17,9.98-.34,19.96-.52,29.95-9.76,0-19.53,0-29.29,0-.17-9.98-.35-19.96-.52-29.95h30.33Z"/>
      <path class="cls-8" d="M569.49,657.96c-.17-9.98-.34-19.96-.52-29.95,10.11,0,20.22,0,30.33,0-.17,9.98-.35,19.96-.52,29.94-9.76,0-19.53,0-29.29,0Z"/>
      <path class="cls-8" d="M150.17,658.23q30.07-.51,30.07,29.68c0,16.92-.32,33.85.15,50.75.2,7.12-1.96,9.38-9.18,9.25-23.89-.41-47.8-.41-71.69,0-7.23.12-9.31-2.14-9.18-9.26.41-22.39.87-44.82-.15-67.16-.52-11.43,2.94-15.18,13.97-13.56,5.37.79,10.93.23,16.41.29l-.27-.28c.04,16.81.61,33.65-.03,50.44-.5,13.13,8.66,9.3,15.11,9.3s15.62,3.83,15.11-9.3c-.64-16.79-.08-33.62-.03-50.44l-.27.28Z"/>
      <path class="cls-8" d="M120.56,658.23c-.05-4.98.51-10.06-.27-14.92-1.98-12.34,2.5-15.68,15.08-15.68,12.58,0,17.06,3.34,15.08,15.68-.78,4.86-.22,9.94-.27,14.92,0,0,.27-.28.27-.28h-30.16s.27.28.27.28Z"/>
      <path class="cls-8" d="M838.29,658.23q30.07-.5,30.07,29.69c0,16.92-.32,33.85.15,50.75.2,7.12-1.95,9.38-9.18,9.26-23.89-.41-47.8-.41-71.69,0-7.23.12-9.31-2.14-9.18-9.26.41-22.39.87-44.82-.15-67.16-.52-11.43,2.93-15.19,13.96-13.56,5.37.79,10.93.23,16.41.29l-.27-.28c.05,16.81.61,33.64-.03,50.43-.5,13.13,8.65,9.3,15.11,9.3,6.45,0,15.61,3.82,15.11-9.3-.64-16.79-.07-33.62-.03-50.43l-.27.28Z"/>
      <path class="cls-8" d="M808.67,658.23c-.05-4.48.24-9-.22-13.44-1.16-11.27-.08-18.05,15.06-17.26,12.42.65,17.02,3.44,15.04,15.77-.78,4.86-.22,9.94-.27,14.92,0,0,.27-.28.27-.28-10.05,0-20.11,0-30.16,0,0,0,.27.28.27.28Z"/>
      <path class="cls-8" d="M778.91,538.36c-.17-9.98-.34-19.96-.52-29.95,10.02-.02,20.03-.04,30.05-.05-.08,10-.16,20-.24,30-9.76,0-19.53,0-29.29,0Z"/>
      <path class="cls-3" d="M808.21,538.36c.08-10,.16-20,.24-30,0,0-.09.41-.09.41,10.08,0,20.16,0,30.23,0,0,0-.36-.36-.36-.36.17,9.98.34,19.96.51,29.94-10.18,0-20.36,0-30.54,0Z"/>
      <path class="cls-8" d="M838.75,538.35c-.17-9.98-.34-19.96-.51-29.94,10.11,0,20.22,0,30.32,0-.17,9.98-.34,19.96-.52,29.94-9.76,0-19.53,0-29.29,0Z"/>
      <path class="cls-8" d="M90.8,538.35c-.17-9.98-.35-19.96-.52-29.94,10.02-.02,20.04-.03,30.06-.05-.08,10-.16,20-.25,30-9.76,0-19.53,0-29.29,0Z"/>
      <path class="cls-4" d="M120.09,538.36c.08-10,.17-20,.25-30,0,0-.09.41-.09.41h30.23l-.36-.36c.17,9.98.34,19.96.52,29.95-10.18,0-20.36,0-30.54,0Z"/>
      <path class="cls-8" d="M150.64,538.36c-.17-9.98-.34-19.96-.52-29.95,10.11,0,20.22,0,30.33,0-.17,9.98-.34,19.96-.51,29.94-9.77,0-19.53,0-29.3,0Z"/>
      <path class="cls-5" d="M509.34,837c-19.94,0-39.89,0-59.83,0,0-9.65,0-19.3,0-28.96,19.94,0,39.89.01,59.83.02,0,9.64,0,19.29,0,28.94Z"/>
      <path class="cls-2" d="M449.51,808.05c0,9.65,0,19.31,0,28.96-9.97,0-19.95,0-29.92,0,0-9.65,0-19.31,0-28.96,9.98,0,19.95,0,29.93,0Z"/>
      <path class="cls-2" d="M509.34,837c0-9.65,0-19.29,0-28.94,9.97,0,19.95,0,29.92,0,0,9.65,0,19.29,0,28.94-9.97,0-19.95,0-29.92,0Z"/>
      <path class="cls-8" d="M509.03,478.56c-19.74,0-39.47,0-59.21,0-.04-9.99-.09-19.98-.13-29.97l-.36.38c20.07,0,40.13,0,60.2,0l-.36-.38c-.04,9.99-.09,19.98-.13,29.97Z"/>
      <path class="cls-8" d="M509.52,448.96q-.58-30.11,28.99-30.1c.49,0,.98,0,1.48,0q29.63,0,28.99,30.08s.38-.36.38-.36h-60.2l.36.38Z"/>
      <path class="cls-8" d="M389.87,448.95q-.64-30.08,28.99-30.08h1.48q29.57,0,28.99,30.1s.36-.38.36-.38h-60.2l.38.36Z"/>
      <path class="cls-8" d="M598.78,478.55c-9.77,0-19.53,0-29.3,0-.04-9.99-.09-19.98-.13-29.97,0,0-.38.36-.38.36,10.11-.11,20.21-.23,30.32-.34-.17,9.98-.34,19.96-.51,29.94Z"/>
      <path class="cls-8" d="M389.35,478.56c-9.76,0-19.52,0-29.28,0-.18-9.98-.35-19.97-.53-29.95,10.11.11,20.21.23,30.32.34,0,0-.38-.36-.38-.36-.05,9.99-.09,19.98-.14,29.97Z"/>
      <path class="cls-8" d="M838.6,508.77c-10.08,0-20.16,0-30.23,0,.05-5.88.81-11.86.01-17.62-1.47-10.62,2.92-12.35,12.87-12.95,14.01-.84,19.93,2.88,17.32,17.36-.77,4.26-.02,8.8.03,13.21Z"/>
      <path class="cls-8" d="M150.48,508.77h-30.23c.05-6.37.78-12.83,0-19.1-1.18-9.43,2.79-10.67,11.4-11.42,15.09-1.3,21.54,3.24,18.78,18.77-.67,3.79,0,7.82.05,11.74Z"/>
      <path class="cls-8" d="M449.66,628.38c-20.05,0-40.1,0-60.15,0q.51-30.11,30.81-30.11,28.82,0,29.34,30.11Z"/>
      <path class="cls-8" d="M569.33,628.38c-20.05,0-40.1,0-60.15,0q.51-30.1,30.82-30.1,28.85,0,29.33,30.1Z"/>
      <path class="cls-4" d="M569.36,448.59c.04,9.99.09,19.98.13,29.97-20.15,0-40.31,0-60.46,0,.04-9.99.09-19.98.13-29.97h60.2Z"/>
      <path class="cls-4" d="M389.35,478.56c.05-9.99.09-19.98.14-29.97h60.2c.04,9.99.09,19.98.13,29.97-20.16,0-40.31,0-60.47,0Z"/>
      <path class="cls-11" d="M120.29,657.95h30.16c-.04,16.81-.61,33.65.03,50.44.5,13.13-8.66,9.3-15.11,9.3s-15.62,3.83-15.11-9.3c.64-16.79.08-33.62.03-50.44Z"/>
      <path class="cls-11" d="M808.4,657.95c10.05,0,20.11,0,30.16,0-.05,16.81-.61,33.64.03,50.43.5,13.13-8.66,9.3-15.11,9.3-6.45,0-15.61,3.82-15.11-9.3.64-16.79.07-33.62.03-50.43Z"/>
    </g>
  </g>
</svg>