<?xml version="1.0" encoding="UTF-8"?>
<svg id="Capa_2" xmlns="http://www.w3.org/2000/svg" viewBox="0 0 326.19 311.35">
  <defs>
    <style>
      .cls-1 {
        fill: #8c4915;
      }

      .cls-2 {
        fill: #3e3932;
      }

      .cls-3 {
        fill: #e5cc1a;
      }

      .cls-4 {
        fill: #9b5017;
      }

      .cls-5 {
        fill: #874c14;
      }

      .cls-6 {
        fill: #5d3211;
      }

      .cls-7 {
        fill: #efedb2;
      }

      .cls-8 {
        fill: #cc7414;
      }

      .cls-9 {
        fill: #25120c;
      }

      .cls-10 {
        fill: #351b11;
      }

      .cls-11 {
        fill: #1f1a1a;
      }

      .cls-12 {
        fill: #b95f18;
      }

      .cls-13 {
        fill: #b06417;
      }

      .cls-14 {
        fill: #26201e;
      }

      .cls-15 {
        fill: #d99510;
      }
    </style>
  </defs>
  <g id="Capa_1-2" data-name="Capa_1">
    <g>
      <path class="cls-10" d="M14.88,207.58c0-4.24.06-8.49-.07-12.72-.05-1.67.3-2.18,2.1-2.17,13.27.09,26.53-.02,39.8.11,2.33.02,2.67-.67,2.66-2.79-.06-52.6-.03-105.21-.1-157.81,0-2.17.6-2.65,2.64-2.57,4.08.17,8.17.06,12.26.07,0,0-.05-.05-.05-.05.03,4.95.06,9.89.1,14.84,0,4.95,0,9.91,0,14.86,0,4.92,0,9.85,0,14.77,0,4.96,0,9.91,0,14.87,0,4.92,0,9.85,0,14.77,0,4.96,0,9.91,0,14.87,0,4.92,0,9.85,0,14.77,0,4.96,0,9.91,0,14.87,0,4.92,0,9.85,0,14.77,0,4.96,0,9.92,0,14.87-.02,4.46-.02,8.91-.09,13.37-.02,1.1.35,1.47,1.45,1.45,4.46-.07,8.91-.07,13.37-.09,4.97.03,9.93.05,14.9.08-.03,4.94-.06,9.87-.09,14.81l.03-.03c-4.31.01-8.62.09-12.92,0-1.46-.03-1.97.31-1.93,1.87.11,4.31.03,8.62.03,12.93-4.94.02-9.88.05-14.83.07,0-4.39-.04-8.78.04-13.17.02-1.32-.39-1.72-1.7-1.69-4.39.09-8.78.08-13.17.1-4.94,0-9.88,0-14.81,0-9.89-.03-19.78-.07-29.67-.1l.05.05Z"/>
      <path class="cls-9" d="M311.31,44.51c4.4,0,8.79.04,13.19-.03,1.28-.02,1.85.3,1.65,1.64-.07.45-.01.92-.01,1.39,0,67.25,0,134.5,0,201.75,0,.92-.05,1.85-.07,2.77-9.87,0-19.74-.02-29.6-.03.01-4.93.02-9.87.03-14.8,4.38,0,8.76-.03,13.14.04,1.29.02,1.74-.34,1.71-1.68-.09-4.38-.07-8.76-.09-13.14,0-4.96,0-9.93,0-14.89,0-4.92,0-9.83,0-14.75,0-4.96,0-9.93,0-14.89,0-4.92,0-9.83,0-14.75,0-4.96,0-9.93,0-14.89,0-4.92,0-9.83,0-14.75,0-4.96,0-9.93,0-14.89,0-4.92,0-9.83,0-14.75,0-4.96,0-9.93,0-14.89,0-4.92,0-9.85,0-14.77,0-4.95,0-9.91,0-14.86.03-4.94.05-9.87.08-14.81h-.01Z"/>
      <path class="cls-11" d="M296.45,252c9.87,0,19.74.02,29.6.03.03,4.47-.01,8.95.11,13.42.04,1.43-.64,1.42-1.66,1.41-3.86-.03-7.72.04-11.58-.04-1.32-.03-1.68.35-1.65,1.66.09,3.78-.05,7.57.07,11.34.05,1.54-.42,1.89-1.91,1.88-13.51-.06-27.02,0-40.52-.08-1.76-.01-2.19.44-2.12,2.15.14,3.7.02,7.41.06,11.11.01,1.04-.04,1.64-1.43,1.64-34.27-.07-68.54-.09-102.81-.11,0-4.91,0-9.83,0-14.74.93,0,1.85,0,2.78,0,23.08,0,46.16-.03,69.24.04,2.02,0,2.69-.48,2.61-2.57-.16-4.08-.03-8.18-.02-12.27,18.94,0,37.88-.04,56.81.01,1.88,0,2.56-.46,2.49-2.43-.15-4.15-.06-8.31-.06-12.47h-.01Z"/>
      <path class="cls-10" d="M177.9,29.69c4.3,0,8.6.09,12.9-.05,1.69-.05,2.01.5,1.96,2.05-.12,3.68.03,7.37-.07,11.06-.04,1.39.28,1.83,1.75,1.8,4.38-.1,8.75-.02,13.13-.01,0,0-.05-.05-.05-.05,0,4.4.06,8.8,0,13.2-.02,1.29.32,1.71,1.65,1.68,4.4-.1,8.8-.08,13.19-.11,4.93.04,9.86.08,14.79.12.02,4.93.04,9.86.05,14.79-4.95.02-9.89.04-14.84.07-4.94,0-9.88,0-14.81,0h-29.66c-9.88,0-19.76-.02-29.64-.03.01-4.94.03-9.88.04-14.83,4.92-.04,9.83-.08,14.75-.12,4.39.02,8.78,0,13.16.09,1.31.03,1.74-.4,1.71-1.71-.09-4.39-.07-8.77-.09-13.16.03-4.93.05-9.87.08-14.8h-.01Z"/>
      <path class="cls-14" d="M162.62,281.68c0,4.91,0,9.83,0,14.74-4.24.03-8.48.1-12.72.05-1.29-.02-1.7.32-1.67,1.65.09,3.86-.02,7.72.06,11.57.03,1.3-.33,1.67-1.65,1.66-23.61-.04-47.22-.05-70.83,0-1.57,0-1.71-.58-1.69-1.86.06-4.32,0-8.64-.01-12.96l.12-.12c19.12.03,38.24.05,57.37.11,1.41,0,1.88-.47,1.86-1.87-.06-4.32,0-8.64,0-12.95,9.72,0,19.44-.01,29.16-.02Z"/>
      <path class="cls-10" d="M89,14.89c0-4.31.04-8.63-.06-12.94-.03-1.42.24-1.95,1.84-1.94C114.28.06,137.78.06,161.28,0c1.6,0,1.87.52,1.84,1.94-.09,4.31-.05,8.63-.06,12.94l.05-.05c-1.61,0-3.23.02-4.84.03-13.22.03-26.43.05-39.65.08-4.94,0-9.89,0-14.83,0-4.95-.03-9.9-.07-14.84-.1l.05.05Z"/>
      <path class="cls-10" d="M222.4,29.71c0-4.31.04-8.63-.06-12.94-.03-1.42.23-1.95,1.83-1.95,23.5.06,46.99.06,70.49,0,1.57,0,1.89.47,1.86,1.93-.09,4.31-.03,8.63-.03,12.94h.01c-4.95.02-9.9.04-14.85.07-9.88,0-19.76,0-29.64,0-9.89-.03-19.78-.07-29.67-.1,0,0,.05.05.05.05Z"/>
      <path class="cls-2" d="M59.27,266.87c-14.1,0-28.2-.05-42.3.02-1.68,0-2.22-.32-2.17-2.11.14-4.23.02-8.47,0-12.71l.16-.16c.92.04,1.84.11,2.76.11,13.86,0,27.73,0,41.59.01.05,4.93.1,9.87.14,14.8,0,0-.19.04-.19.04Z"/>
      <path class="cls-10" d="M74.17,29.71c0-4.45.03-8.9-.05-13.35-.02-1.21.32-1.55,1.53-1.53,4.45.08,8.9.04,13.35.05,0,0-.05-.05-.05-.05,0,4.95,0,9.89-.01,14.84l.03-.04c-4.95,0-9.89.02-14.84.02l.05.05Z"/>
      <path class="cls-10" d="M163.06,14.89c4.45,0,8.89.02,13.34-.05,1.18-.02,1.56.29,1.54,1.52-.08,4.44-.03,8.89-.03,13.34,0,0,.01-.01.01-.01h-14.75s-.1-.05-.1-.05l.04-14.79-.05.05Z"/>
      <path class="cls-10" d="M207.58,44.53c0-4.45.03-8.9-.05-13.35-.02-1.21.32-1.55,1.53-1.53,4.45.08,8.9.04,13.35.05,0,0-.05-.05-.05-.05,0,4.95,0,9.89-.01,14.84l.03-.03c-4.95,0-9.89,0-14.84.01l.05.05Z"/>
      <path class="cls-9" d="M296.49,29.69c4.4,0,8.8.05,13.2-.04,1.31-.02,1.68.35,1.66,1.66-.08,4.4-.03,8.8-.04,13.2,0,0,.01-.01.01-.01-4.94,0-9.88-.01-14.82-.02l.02.02c0-4.94-.01-9.87-.02-14.81h-.01Z"/>
      <path class="cls-10" d="M.11,222.38c-.03-4.44,0-8.89-.1-13.33-.03-1.22.35-1.54,1.54-1.52,4.44.07,8.89.04,13.34.05,0,0-.05-.05-.05-.05,0,4.95-.02,9.9-.03,14.85-4.9,0-9.79,0-14.69,0Z"/>
      <path class="cls-9" d="M.11,222.38c4.9,0,9.79,0,14.69,0,0,0,.13-.01.13-.01-.02,4.94-.03,9.88-.05,14.81l-.03.03c-4.91,0-9.83-.01-14.74-.02,0-4.94,0-9.87,0-14.81Z"/>
      <path class="cls-2" d="M.11,237.2c4.91,0,9.83.01,14.74.02.04,4.9.08,9.8.12,14.7l-.16.16c-4.39-.01-8.79-.06-13.18-.02-1.08,0-1.67-.1-1.63-1.45.11-4.47.08-8.94.11-13.41Z"/>
      <path class="cls-9" d="M59.41,281.67c-.04-4.93-.09-9.86-.13-14.8,0,0,.19-.04.19-.04,4.87.01,9.75.02,14.63.04,0,0,.13-.05.13-.05-.01,4.94-.03,9.88-.04,14.82l-.06.06c-4.9,0-9.81-.02-14.71-.03Z"/>
      <path class="cls-14" d="M59.41,281.67c4.9,0,9.81.02,14.71.03.04,4.9.08,9.81.11,14.71l-.12.12c-4.39-.01-8.79-.05-13.18-.02-1.07,0-1.67-.07-1.64-1.43.11-4.47.08-8.94.11-13.4Z"/>
      <path class="cls-3" d="M74.14,222.39c4.94-.02,9.88-.05,14.83-.07,4.38.02,8.77,0,13.15.08,1.32.02,1.72-.44,1.7-1.73-.06-4.38-.03-8.77-.03-13.15,0,0-.03.03-.03.03,9.15,0,18.3-.05,27.44.05,1.87.02,2.33-.56,2.28-2.34-.12-4.15-.04-8.3-.04-12.45,9.87-.02,19.75-.04,29.62-.06-.02,4.93-.03,9.86-.05,14.79-4.16,0-8.33.11-12.48-.03-1.89-.06-2.31.59-2.3,2.37.07,9.09,0,18.19,0,27.28-4.32.02-8.63.08-12.95.02-1.41-.02-1.88.45-1.86,1.86.06,4.32,0,8.63-.02,12.95-9.18.01-18.35.06-27.53.01-1.61,0-2.14.46-2.1,2.09.09,4.24,0,8.48-.01,12.72-9.84,0-19.69,0-29.53.01,0,0-.13.05-.13.05.04-4.95.09-9.9.13-14.85,4.3,0,8.6-.04,12.9.03,1.36.02,1.91-.33,1.88-1.79-.09-3.76-.09-7.53,0-11.29.04-1.47-.52-1.81-1.88-1.79-4.3.07-8.6.03-12.9.03-.02-4.95-.03-9.89-.05-14.84l-.04.02Z"/>
      <path class="cls-7" d="M133.43,192.81c0,4.15-.08,8.3.04,12.45.05,1.78-.41,2.36-2.28,2.34-9.15-.1-18.29-.05-27.44-.05.03-4.94.06-9.87.09-14.81,0,0-.04.03-.04.03,9.88.01,19.76.03,29.64.04Z"/>
      <path class="cls-7" d="M14.8,222.38c0-4.95.02-9.9.03-14.85,9.89.03,19.78.07,29.67.1-.01,4.9-.02,9.8-.03,14.7-4.92.04-9.85.08-14.77.12-4.92-.03-9.85-.06-14.77-.09h-.13Z"/>
      <path class="cls-7" d="M74.12,29.66c4.95,0,9.89-.02,14.84-.02,0,4.97,0,9.94,0,14.91-4.92-.02-9.84-.03-14.75-.05-.03-4.95-.06-9.89-.1-14.84Z"/>
      <path class="cls-12" d="M74.22,44.5c4.92.02,9.84.03,14.75.05,0,0-.03-.04-.03-.04.02,4.94.03,9.87.05,14.81l-.02.02c-4.92,0-9.83.01-14.75.02,0-4.95,0-9.91,0-14.86Z"/>
      <path class="cls-15" d="M74.22,59.36c4.92,0,9.83-.01,14.75-.02,0,4.94,0,9.89.01,14.83-4.92-.01-9.84-.02-14.76-.03,0-4.92,0-9.85,0-14.77Z"/>
      <path class="cls-12" d="M74.22,74.13c4.92.01,9.84.02,14.76.03l-.02-.02c0,4.95.01,9.89.02,14.84-4.92,0-9.84.01-14.76.02,0-4.96,0-9.91,0-14.87Z"/>
      <path class="cls-15" d="M74.22,89c4.92,0,9.84-.01,14.76-.02,0,0-.02-.02-.02-.02,0,4.95.01,9.89.02,14.84-4.92-.01-9.84-.02-14.76-.03,0-4.92,0-9.85,0-14.77Z"/>
      <path class="cls-12" d="M74.22,103.78c4.92.01,9.84.02,14.76.03,0,0-.02-.02-.02-.02,0,4.95.01,9.89.02,14.84-4.92,0-9.84.01-14.76.02,0-4.96,0-9.91,0-14.87Z"/>
      <path class="cls-15" d="M74.22,118.65c4.92,0,9.84-.01,14.76-.02,0,0-.02-.02-.02-.02,0,4.95.01,9.89.02,14.84-4.92-.01-9.84-.02-14.76-.03,0-4.92,0-9.85,0-14.77Z"/>
      <path class="cls-12" d="M74.22,133.42c4.92.01,9.84.02,14.76.03,0,0-.02-.02-.02-.02,0,4.95.01,9.89.02,14.84-4.92,0-9.84.01-14.76.02,0-4.96,0-9.91,0-14.87Z"/>
      <path class="cls-15" d="M88.95,192.67c-4.46.02-8.91.02-13.37.09-1.1.02-1.47-.35-1.45-1.45.07-4.46.07-8.91.09-13.37,4.92-.01,9.84-.02,14.76-.03-.01,4.92-.02,9.84-.03,14.76Z"/>
      <path class="cls-12" d="M88.95,192.67c.01-4.92.02-9.84.03-14.76,0,0-.02.02-.02.02,4.95.03,9.91.05,14.86.08,0,4.92-.02,9.85-.02,14.77,0,0,.04-.03.04-.03-4.97-.03-9.93-.05-14.9-.08Z"/>
      <path class="cls-15" d="M74.22,148.29c4.92,0,9.84-.01,14.76-.02,0,0-.02-.02-.02-.02,0,4.95,0,9.9,0,14.84,0,0,.02-.02.02-.02-4.92,0-9.84-.01-14.76-.02,0-4.92,0-9.85,0-14.77Z"/>
      <path class="cls-12" d="M74.22,163.07c4.92,0,9.84.01,14.76.02,0,4.95-.01,9.89-.02,14.84,0,0,.02-.02.02-.02-4.92.01-9.84.02-14.76.03,0-4.96,0-9.92,0-14.87Z"/>
      <path class="cls-3" d="M44.47,222.33c.01-4.9.02-9.8.03-14.7,4.94,0,9.88,0,14.81,0,0,4.92.02,9.85.03,14.77,0,0,.01-.02.01-.02-4.96-.02-9.92-.04-14.89-.06Z"/>
      <path class="cls-15" d="M59.34,222.41c0-4.92-.02-9.85-.03-14.77,4.39-.02,8.78,0,13.17-.1,1.31-.03,1.72.37,1.7,1.69-.08,4.39-.04,8.78-.04,13.17,0,0,.04-.02.04-.02-4.94.01-9.89.02-14.83.04Z"/>
      <path class="cls-7" d="M103.79,207.52c0,4.38-.03,8.77.03,13.15.02,1.29-.38,1.76-1.7,1.73-4.38-.08-8.77-.06-13.15-.08,0-4.31.08-8.62-.03-12.93-.04-1.56.47-1.9,1.93-1.87,4.31.08,8.62,0,12.92,0Z"/>
      <path class="cls-15" d="M296.5,44.48c4.94,0,9.88.01,14.82.02-.03,4.94-.05,9.87-.08,14.81-4.92,0-9.84.02-14.75.02,0-4.95.01-9.9.02-14.85Z"/>
      <path class="cls-12" d="M296.49,59.33c4.92,0,9.84-.02,14.75-.02,0,4.95,0,9.91,0,14.86-4.92,0-9.84-.01-14.76-.02,0-4.94,0-9.88.01-14.82h0Z"/>
      <path class="cls-8" d="M296.47,74.15c4.92,0,9.84.01,14.76.02,0,4.92,0,9.85,0,14.77-4.92.01-9.84.02-14.76.03,0-4.95,0-9.89,0-14.84h-.01Z"/>
      <path class="cls-4" d="M296.49,88.97c4.92-.01,9.84-.02,14.76-.03,0,4.96,0,9.93,0,14.89-4.92,0-9.83,0-14.75-.01,0-4.94,0-9.88,0-14.83l-.02-.02Z"/>
      <path class="cls-8" d="M296.5,103.82c4.92,0,9.83,0,14.75.01,0,4.92,0,9.83,0,14.75-4.92.01-9.84.03-14.76.04,0-4.94.02-9.88.02-14.83,0,0,0,.02,0,.02Z"/>
      <path class="cls-4" d="M296.48,118.63c4.92-.01,9.84-.03,14.76-.04,0,4.96,0,9.93,0,14.89-4.92,0-9.83,0-14.75-.01,0-4.95,0-9.9-.01-14.86v.02Z"/>
      <path class="cls-8" d="M311.25,163.13c0,4.92,0,9.83,0,14.75-4.92.01-9.84.03-14.76.04,0-4.94,0-9.89,0-14.83,4.92.01,9.84.03,14.76.04Z"/>
      <path class="cls-4" d="M296.48,177.92c4.92-.01,9.84-.03,14.76-.04,0,4.96,0,9.93,0,14.89-4.92,0-9.83,0-14.75-.01,0-4.95,0-9.9-.01-14.86,0,0,0,.02,0,.02Z"/>
      <path class="cls-8" d="M296.5,133.47c4.92,0,9.83,0,14.75.01,0,4.92,0,9.83,0,14.75-4.92.01-9.84.03-14.76.04,0-4.94.02-9.88.02-14.83v.02Z"/>
      <path class="cls-4" d="M296.48,148.27c4.92-.01,9.84-.03,14.76-.04,0,4.96,0,9.93,0,14.89-4.92-.01-9.84-.03-14.76-.04,0,0,0,.02,0,.02,0-4.95,0-9.9,0-14.85v.02Z"/>
      <path class="cls-8" d="M296.5,192.76c4.92,0,9.83,0,14.75.01,0,4.92,0,9.83,0,14.75-4.92.01-9.84.03-14.76.04,0-4.94.02-9.88.02-14.83,0,0,0,.02,0,.02Z"/>
      <path class="cls-4" d="M296.48,207.56c4.92-.01,9.84-.03,14.76-.04,0,4.96,0,9.93,0,14.89-4.92,0-9.83,0-14.75-.01,0-4.95,0-9.9-.01-14.86v.02Z"/>
      <path class="cls-8" d="M296.5,222.4c4.92,0,9.83,0,14.75.01.02,4.38,0,8.76.09,13.14.03,1.33-.43,1.7-1.71,1.68-4.38-.07-8.76-.03-13.14-.04,0,0,.02,0,.02,0,0-4.94,0-9.87,0-14.81v.02Z"/>
      <path class="cls-13" d="M296.49,237.19c-.01,4.93-.02,9.87-.03,14.8,0,0,.01,0,.01,0-4.92,0-9.85-.02-14.77-.03v-14.72c4.94-.02,9.87-.03,14.81-.05h-.02Z"/>
      <path class="cls-9" d="M281.7,251.97c4.92,0,9.85.02,14.77.03,0,4.16-.08,8.32.06,12.47.07,1.97-.61,2.43-2.49,2.43-18.94-.05-37.88-.02-56.81-.01,0,0-.07-.06-.07-.06.01-4.93.02-9.86.03-14.79,4.38,0,8.76-.04,13.14.03,1.28.02,1.74-.34,1.71-1.68-.09-4.38-.07-8.76-.09-13.14,0-4.96,0-9.93,0-14.89,0-4.92,0-9.83,0-14.75,0-4.96,0-9.93,0-14.89,0-4.92,0-9.83,0-14.75s0-9.93,0-14.89,0-9.83,0-14.75,0-9.93,0-14.89c0-4.92,0-9.83,0-14.75,0-4.97,0-9.93,0-14.9l.04-14.79c4.93.02,9.86.04,14.79.06.03,4.92.06,9.83.09,14.75,0,4.96,0,9.92,0,14.89,0,4.92,0,9.84,0,14.76,0,4.96,0,9.92,0,14.89,0,4.92,0,9.84,0,14.76v29.65c0,4.96,0,9.92,0,14.89,0,4.92,0,9.84,0,14.76v14.89c-.01,4.3,0,8.6-.06,12.89-.02,1.3.25,1.96,1.76,1.93,4.37-.1,8.75-.07,13.12-.09Z"/>
      <path class="cls-9" d="M162.62,281.68c-9.72,0-19.44.01-29.16.02,0,0-.06-.05-.06-.05.02-4.92.04-9.85.07-14.77,0,0-.01.01-.01.01,4.38-.01,8.76-.07,13.14,0,1.31.02,1.71-.39,1.69-1.69-.06-4.38,0-8.76,0-13.14h-.01c4.94,0,9.88,0,14.82,0l-.03-.03c0,4.3.07,8.61-.01,12.91-.03,1.52.45,1.99,1.96,1.95,4.3-.11,8.6-.08,12.9-.1,4.94,0,9.88,0,14.82,0,14.8.01,29.61.03,44.41.04,0,0,.07.06.07.06,0,4.09-.14,8.19.02,12.27.08,2.08-.59,2.57-2.61,2.57-23.08-.07-46.16-.04-69.24-.04-.93,0-1.85,0-2.78,0Z"/>
      <path class="cls-3" d="M222.37,74.23c4.95-.02,9.89-.04,14.84-.07,0,0-.04-.02-.04-.02.02,4.93.05,9.86.07,14.79-.01,4.96-.03,9.92-.04,14.87h0c-18.99,0-37.98.01-56.97-.04-1.78,0-2.43.41-2.37,2.3.13,4.16.02,8.34,0,12.5-4.93,0-9.87-.01-14.8-.02,0-4.21-.08-8.43.06-12.64.06-1.78-.56-2.19-2.23-2.15-4.21.11-8.43.04-12.64.04,0-4.94,0-9.88.01-14.82,9.19,0,18.37-.04,27.56.03,1.57.01,2.16-.37,2.12-2.04-.11-4.24-.04-8.49-.04-12.74,9.89,0,19.77,0,29.66,0,0,4.3.04,8.6-.03,12.9-.02,1.36.33,1.91,1.79,1.88,3.76-.09,7.53-.09,11.29,0,1.47.04,1.81-.52,1.79-1.88-.07-4.3-.03-8.6-.03-12.9Z"/>
      <path class="cls-3" d="M296.5,44.48c0,4.95-.01,9.9-.02,14.85,0,0,0,0,0,0-9.18,0-18.37.03-27.55-.03-1.58-.01-2.16.41-2.13,2.07.09,4.24,0,8.49,0,12.73-4.92-.02-9.85-.04-14.77-.07,0-4.24-.06-8.48.02-12.72.03-1.47-.37-2.05-1.94-2.01-4.32.1-8.63.06-12.95.08-4.93-.04-9.86-.08-14.79-.12,0-4.93,0-9.86,0-14.79l-.03.03c9.15,0,18.3-.05,27.44.05,1.87.02,2.33-.56,2.28-2.34-.12-4.15-.04-8.3-.04-12.45,9.88,0,19.76,0,29.64,0,0,4.01.11,8.03-.03,12.04-.07,2.02.36,2.88,2.62,2.76,4.08-.2,8.18-.06,12.27-.07l-.02-.02Z"/>
      <path class="cls-12" d="M88.98,74.16c0-4.94,0-9.89-.01-14.83,0,0,.02-.02.02-.02,4.93-.02,9.86-.04,14.79-.06,9.87,0,19.75.01,29.62.02,4.97.03,9.94.06,14.91.1-.01,4.94-.03,9.88-.04,14.83,0,0,.03-.04.03-.04-4.94,0-9.89,0-14.83,0-4.96.01-9.93.02-14.89.04-4.91,0-9.83,0-14.74,0-4.96-.02-9.92-.04-14.87-.06l.02.02Z"/>
      <path class="cls-7" d="M177.9,74.23c0,4.25-.07,8.49.04,12.74.04,1.68-.55,2.05-2.12,2.04-9.19-.06-18.37-.03-27.56-.03,0,0-.02-.02-.02-.02l.05-14.8s-.03.04-.03.04c9.88,0,19.76.02,29.64.03Z"/>
      <path class="cls-15" d="M148.31,59.38c-4.97-.03-9.94-.06-14.91-.09.01-4.16.12-8.33,0-12.49-.05-1.85.53-2.34,2.35-2.33,9.1.07,18.19,0,27.29-.01l.11.11c-.03,4.9-.05,9.8-.08,14.7-4.92.04-9.83.08-14.75.12Z"/>
      <path class="cls-15" d="M163.17,29.67h14.75c-.03,4.94-.05,9.88-.08,14.81-4.9.03-9.8.05-14.7.08,0,0-.11-.11-.11-.11.05-4.93.09-9.85.14-14.78Z"/>
      <path class="cls-7" d="M222.37,44.47c0,4.93,0,9.86,0,14.79-4.4.03-8.8,0-13.19.11-1.33.03-1.67-.39-1.65-1.68.07-4.4.01-8.8,0-13.2,4.95,0,9.89,0,14.84-.01Z"/>
      <path class="cls-15" d="M237.16,59.38c4.32-.01,8.64.03,12.95-.08,1.56-.04,1.96.54,1.94,2.01-.08,4.24-.02,8.48-.02,12.72,0,0-.02.2-.02.2-4.95-.03-9.89-.07-14.84-.1,0,0,.04.02.04.02-.02-4.93-.04-9.86-.05-14.79Z"/>
      <path class="cls-7" d="M222.37,74.23c0,4.3-.04,8.6.03,12.9.02,1.36-.33,1.91-1.79,1.88-3.76-.09-7.53-.09-11.29,0-1.47.04-1.81-.52-1.79-1.88.07-4.3.03-8.6.03-12.9,4.94,0,9.88,0,14.81,0Z"/>
      <path class="cls-12" d="M163.14,44.56c4.9-.03,9.8-.05,14.7-.08.02,4.39,0,8.78.09,13.16.03,1.31-.4,1.74-1.71,1.71-4.39-.09-8.77-.07-13.16-.09.03-4.9.05-9.8.08-14.7Z"/>
      <path class="cls-9" d="M74.23,296.41c-.04-4.9-.08-9.81-.11-14.71,0,0,.06-.06.06-.06,9.87-.02,19.74-.03,29.6-.05,9.87.01,19.75.03,29.62.04,0,0,.06.05.06.05,0,4.32-.06,8.64,0,12.95.02,1.4-.45,1.87-1.86,1.87-19.12-.06-38.24-.08-57.37-.11Z"/>
      <path class="cls-3" d="M163.17,29.67c-.05,4.93-.09,9.85-.14,14.78-9.1.02-18.19.08-27.29.01-1.81-.01-2.4.48-2.35,2.33.12,4.16.02,8.32,0,12.49-9.87,0-19.75-.01-29.62-.02,0-4.22-.08-8.44.06-12.65.06-1.8-.59-2.18-2.24-2.14-4.22.11-8.44.04-12.65.03,0,0,.03.04.03.04,0-4.97,0-9.94,0-14.91,0,0-.03.04-.03.04,4.14,0,8.29-.13,12.42.06,2.14.1,2.55-.67,2.48-2.61-.14-4.06-.05-8.13-.05-12.19,4.94,0,9.89,0,14.83,0,0,4.25.04,8.49-.03,12.74-.02,1.41.25,2.05,1.87,2.04,14.2-.08,28.4-.07,42.6-.09l.1.05Z"/>
      <path class="cls-7" d="M163.07,29.62c-14.2.02-28.4.02-42.6.09-1.63,0-1.9-.63-1.87-2.04.07-4.24.03-8.49.03-12.74,13.22-.03,26.43-.05,39.65-.08,1.61,0,3.23-.02,4.84-.03l-.04,14.79Z"/>
      <path class="cls-7" d="M103.79,14.94c0,4.07-.09,8.13.05,12.19.07,1.94-.34,2.71-2.48,2.61-4.13-.19-8.28-.06-12.42-.06,0-4.95,0-9.89.01-14.84,4.95.03,9.9.07,14.84.1Z"/>
      <path class="cls-7" d="M252.02,29.76c0,4.15-.08,8.3.04,12.45.05,1.78-.41,2.36-2.28,2.34-9.15-.1-18.29-.05-27.44-.05,0-4.95,0-9.89.01-14.84,9.89.03,19.78.07,29.67.1Z"/>
      <path class="cls-15" d="M296.52,44.5c-4.09,0-8.19-.13-12.27.07-2.26.11-2.69-.75-2.62-2.76.13-4.01.03-8.03.03-12.04,4.95-.03,9.9-.05,14.85-.08,0,4.94.01,9.87.02,14.81Z"/>
      <path class="cls-9" d="M14.97,251.92c-.04-4.9-.08-9.8-.12-14.7,0,0,.03-.03.03-.03,4.93-.02,9.86-.03,14.78-.05,9.88,0,19.76.02,29.64.03,0,4.96.01,9.92.02,14.88-13.86,0-27.73,0-41.59-.01-.92,0-1.84-.07-2.76-.11Z"/>
      <path class="cls-10" d="M59.32,252.03c0-4.96-.01-9.92-.02-14.88.02-4.92.03-9.84.05-14.76,0,0-.01.02-.01.02,4.94-.01,9.89-.02,14.83-.04.02,4.95.03,9.89.05,14.84,0,4.94,0,9.88,0,14.81-.04,4.95-.09,9.9-.13,14.85-4.88-.01-9.75-.02-14.63-.04-.05-4.93-.1-9.87-.14-14.8Z"/>
      <path class="cls-3" d="M29.67,237.13c-4.93.02-9.86.03-14.78.05.02-4.94.03-9.88.05-14.81,4.92.03,9.85.06,14.77.09-.01,4.89-.02,9.78-.03,14.68Z"/>
      <path class="cls-15" d="M103.78,281.6c-9.87.02-19.74.03-29.6.05.01-4.94.03-9.88.04-14.82,9.84,0,19.69,0,29.53-.01l.09.08c-.02,4.9-.03,9.8-.05,14.71Z"/>
      <path class="cls-10" d="M103.8,192.77c0-4.92.02-9.85.02-14.77,0,0,0-.1,0-.1,4.38,0,8.77-.04,13.15.05,1.32.03,1.7-.38,1.67-1.68-.1-4.38-.07-8.76-.1-13.15,0-4.96,0-9.91,0-14.87,0-4.93,0-9.85,0-14.78,0-4.96,0-9.91,0-14.87,0-4.93,0-9.85,0-14.78.04-4.94.07-9.88.11-14.83l-.05-.02c4.95,0,9.91,0,14.86,0,.01,4.94.03,9.88.04,14.81,0,4.95,0,9.91,0,14.86,0,4.92,0,9.85,0,14.77,0,4.96,0,9.92,0,14.87,0,4.92,0,9.85,0,14.77-.02,4.39,0,8.77-.09,13.16-.03,1.31.4,1.74,1.71,1.71,4.39-.09,8.77-.07,13.16-.09,4.94.06,9.88.11,14.81.17,0,4.91,0,9.81,0,14.72l-.04.03c-9.87.02-19.75.04-29.62.06-9.88-.01-19.76-.03-29.64-.04Z"/>
      <path class="cls-9" d="M163.01,207.55c.02-4.93.03-9.86.05-14.79,0,0,.04-.03.04-.03,4.94,0,9.87,0,14.81,0,.01,4.93.02,9.86.04,14.79,0,4.97,0,9.94,0,14.9v14.73c-.02,4.94-.05,9.89-.07,14.83l.05.08-14.85-.05s.03.03.03.03c-.03-4.95-.06-9.9-.1-14.85,0-9.88,0-19.77,0-29.65Z"/>
      <path class="cls-15" d="M163.01,207.55c0,9.88,0,19.77,0,29.65-4.9.02-9.8.03-14.71.05l-.08-.09c.01-9.09.07-18.19,0-27.28-.01-1.78.41-2.43,2.3-2.37,4.16.14,8.32.04,12.48.03Z"/>
      <path class="cls-15" d="M103.75,266.81c.02-4.24.1-8.48.01-12.72-.03-1.63.5-2.1,2.1-2.09,9.18.05,18.35,0,27.53-.01l.09.08c0,4.94-.01,9.88-.02,14.81,0,0,.01-.01.01-.01-9.88,0-19.76.01-29.64.02,0,0-.09-.08-.09-.08Z"/>
      <path class="cls-7" d="M74.22,252.02c0-4.94,0-9.88,0-14.81,4.3,0,8.6.04,12.9-.03,1.36-.02,1.91.33,1.88,1.79-.09,3.76-.09,7.53,0,11.29.04,1.47-.52,1.81-1.88,1.79-4.3-.07-8.6-.03-12.9-.03Z"/>
      <path class="cls-15" d="M133.39,251.98c.02-4.32.08-8.63.02-12.95-.02-1.41.45-1.88,1.86-1.86,4.32.06,8.63,0,12.95-.02,0,0,.08.08.08.08,0,4.94-.01,9.88-.02,14.82,0,0,.01-.01.01-.01-4.94,0-9.88.01-14.82.02l-.09-.08Z"/>
      <path class="cls-15" d="M29.67,237.13c.01-4.89.02-9.78.03-14.68,4.92-.04,9.84-.08,14.77-.12,4.96.02,9.92.04,14.89.06-.02,4.92-.03,9.84-.05,14.76-9.88,0-19.76-.02-29.64-.03Z"/>
      <path class="cls-7" d="M88.94,44.51c4.22,0,8.44.07,12.65-.03,1.65-.04,2.3.33,2.24,2.14-.14,4.21-.05,8.44-.06,12.65-4.93.02-9.86.04-14.79.06-.02-4.94-.03-9.87-.05-14.81Z"/>
      <path class="cls-15" d="M88.96,74.14c4.96.02,9.92.04,14.87.06,0,4.91,0,9.81,0,14.72-4.96.01-9.92.03-14.87.04,0,0,.02.02.02.02,0-4.95-.01-9.89-.02-14.84Z"/>
      <path class="cls-12" d="M88.96,88.97c4.96-.01,9.92-.03,14.87-.04,4.94.02,9.88.05,14.82.07-.04,4.94-.07,9.88-.11,14.83-4.9,0-9.81.02-14.71.03-4.96-.02-9.92-.04-14.87-.06,0,0,.02.02.02.02,0-4.95-.01-9.89-.02-14.84Z"/>
      <path class="cls-15" d="M88.96,103.79c4.96.02,9.92.04,14.87.06,0,4.91,0,9.81,0,14.72-4.96.01-9.92.03-14.87.04,0,0,.02.02.02.02,0-4.95-.01-9.89-.02-14.84Z"/>
      <path class="cls-12" d="M88.96,118.61c4.96-.01,9.92-.03,14.87-.04,4.9,0,9.81.02,14.71.03,0,4.96,0,9.91,0,14.87-4.9,0-9.81.02-14.71.03-4.96-.02-9.92-.04-14.87-.06,0,0,.02.02.02.02,0-4.95-.01-9.89-.02-14.84Z"/>
      <path class="cls-15" d="M88.96,133.44c4.96.02,9.92.04,14.87.06,0,4.91,0,9.81,0,14.72-4.96.01-9.92.03-14.87.04,0,0,.02.02.02.02,0-4.95-.01-9.89-.02-14.84Z"/>
      <path class="cls-15" d="M88.96,177.92c0-4.95.01-9.89.02-14.84,0,0-.02.02-.02.02,4.96.01,9.92.03,14.87.04,0,4.92,0,9.84,0,14.76,0,0,0,.1,0,.1-4.95-.02-9.91-.05-14.86-.07Z"/>
      <path class="cls-12" d="M103.83,163.14c-4.96-.01-9.92-.03-14.87-.04,0-4.95,0-9.9,0-14.84,4.96-.01,9.92-.03,14.87-.04,4.9,0,9.81.02,14.71.03,0,4.96,0,9.91,0,14.87-4.9,0-9.81.02-14.71.03Z"/>
      <path class="cls-15" d="M266.8,74.1c.01-4.24.1-8.49,0-12.73-.04-1.66.54-2.08,2.13-2.07,9.18.06,18.37.03,27.55.03,0,4.94,0,9.88-.01,14.82,0,0,.01-.01.01-.01-9.89-.01-19.79-.02-29.68-.03Z"/>
      <path class="cls-12" d="M266.8,74.1c9.89.01,19.79.02,29.68.03,0,4.94,0,9.89,0,14.84,0,0,.02.02.02.02-4.95,0-9.91,0-14.86,0-4.95.01-9.9.02-14.85.03-4.93-.02-9.86-.04-14.79-.06,0,0,.03.04.03.04,0-4.92-.01-9.84-.02-14.76,0,0,.02-.2.02-.2,4.92.02,9.85.04,14.77.07Z"/>
      <path class="cls-13" d="M281.65,88.99c4.95,0,9.91,0,14.86,0,0,4.94,0,9.88,0,14.83,0,0,0-.02,0-.02-4.93-.01-9.86-.02-14.8-.04-.02-4.93-.04-9.85-.06-14.78Z"/>
      <path class="cls-1" d="M281.71,103.76c4.93.01,9.86.02,14.79.04,0,4.94-.02,9.88-.02,14.83,0,0,0-.02,0-.02-4.94,0-9.88,0-14.82.01-.01-4.93-.03-9.86-.04-14.79l.08-.07Z"/>
      <path class="cls-13" d="M281.67,118.62c4.94,0,9.88,0,14.82-.01,0,4.95,0,9.9.01,14.86,0,0,0-.02,0-.02-4.93-.01-9.86-.02-14.8-.04-.02-4.93-.03-9.86-.05-14.79h0Z"/>
      <path class="cls-1" d="M296.48,163.09c0,4.94,0,9.89,0,14.83,0,0,0-.02,0-.02-4.94,0-9.88,0-14.82.01,0-4.94,0-9.88,0-14.83,4.94,0,9.88,0,14.82.01v-.02Z"/>
      <path class="cls-13" d="M281.67,177.92c4.94,0,9.88,0,14.82-.01,0,4.95,0,9.9.01,14.86,0,0,0-.02,0-.02-4.93-.01-9.86-.02-14.8-.04-.02-4.93-.03-9.86-.05-14.79h0Z"/>
      <path class="cls-1" d="M281.71,133.41c4.93.01,9.86.02,14.79.04,0,4.94-.02,9.88-.02,14.83,0,0,0-.02,0-.02-4.93.02-9.85.03-14.78.05,0,0-.08-.07-.08-.07v-14.76l.08-.07Z"/>
      <path class="cls-13" d="M281.71,148.3c4.93-.02,9.85-.03,14.78-.05v14.85c-4.94,0-9.88,0-14.82-.01h0c.02-4.93.03-9.86.05-14.78Z"/>
      <path class="cls-1" d="M281.71,192.7c4.93.01,9.86.02,14.79.04,0,4.94-.02,9.88-.02,14.83,0,0,0-.02,0-.02-4.94,0-9.88,0-14.82.01-.01-4.93-.03-9.86-.04-14.79l.08-.07Z"/>
      <path class="cls-13" d="M281.67,207.56c4.94,0,9.88,0,14.82-.01,0,4.95,0,9.9.01,14.86,0,0,0-.02,0-.02-4.93-.01-9.86-.02-14.8-.04-.02-4.93-.03-9.86-.05-14.79h0Z"/>
      <path class="cls-1" d="M281.71,222.35c4.93.01,9.86.02,14.79.04,0,4.94,0,9.87,0,14.81-4.93.02-9.86.03-14.8.05,0,0-.08-.07-.08-.07,0-4.92,0-9.84,0-14.76l.08-.07Z"/>
      <path class="cls-5" d="M281.7,251.97c-4.37.02-8.75-.01-13.12.09-1.51.03-1.78-.62-1.76-1.93.07-4.3.04-8.59.06-12.89,4.92-.02,9.83-.04,14.75-.07,0,0,.08.07.08.07,0,4.91,0,9.82-.01,14.72Z"/>
      <path class="cls-8" d="M237.16,266.82c-14.8-.01-29.61-.03-44.41-.04,0-4.9,0-9.81,0-14.71,0,0-.04-.06-.04-.06,4.94,0,9.88,0,14.83-.01,9.89.01,19.77.02,29.66.03h0c-.01,4.92-.02,9.85-.03,14.78Z"/>
      <path class="cls-15" d="M237.2,103.81c.01-4.96.03-9.92.04-14.87,4.93.02,9.86.04,14.78.07,0,0-.03-.04-.03-.04-.01,4.93-.03,9.86-.04,14.79-4.92.02-9.84.03-14.76.05Z"/>
      <path class="cls-5" d="M281.65,88.99c.02,4.93.04,9.85.06,14.78,0,0-.08.07-.08.07-4.92-.02-9.83-.04-14.75-.07-.03-4.92-.06-9.83-.09-14.75,4.95-.01,9.9-.02,14.85-.03Z"/>
      <path class="cls-4" d="M237.2,103.81c4.92-.02,9.84-.03,14.76-.05,0,4.97,0,9.93,0,14.9-4.93-.01-9.85-.02-14.78-.03,0-4.94.02-9.88.03-14.82h0Z"/>
      <path class="cls-6" d="M266.88,103.77c4.92.02,9.83.04,14.75.07.01,4.93.03,9.86.04,14.79,0,0,0,0,0,0-4.93.01-9.86.02-14.78.03,0-4.96,0-9.92,0-14.89Z"/>
      <path class="cls-8" d="M237.18,118.62c4.93.01,9.85.02,14.78.03,0,4.92,0,9.83,0,14.75-4.92.01-9.84.03-14.76.04,0-4.95,0-9.9,0-14.85l-.02.02Z"/>
      <path class="cls-5" d="M266.88,118.65c4.93-.01,9.86-.02,14.78-.03.01,4.93.03,9.86.05,14.79,0,0-.08.07-.08.07-4.92-.02-9.83-.04-14.75-.07,0-4.92,0-9.84,0-14.76Z"/>
      <path class="cls-6" d="M281.67,163.09c0,4.94,0,9.88,0,14.83,0,0,0,0,0,0-4.93.01-9.86.02-14.78.03,0-4.96,0-9.92,0-14.89,4.93.01,9.86.02,14.78.03h0Z"/>
      <path class="cls-8" d="M251.96,148.3c0,4.92,0,9.83,0,14.75-4.92.02-9.84.03-14.77.05,0-4.95,0-9.89,0-14.84,4.92.01,9.84.03,14.76.04Z"/>
      <path class="cls-5" d="M281.67,163.09c-4.93-.01-9.86-.02-14.78-.03,0-4.92,0-9.84,0-14.76,4.92-.02,9.83-.04,14.75-.07,0,0,.08.07.08.07-.01,4.93-.03,9.86-.05,14.79Z"/>
      <path class="cls-8" d="M251.96,177.95c0,4.92,0,9.83,0,14.75-4.92.02-9.84.03-14.77.05,0-4.95,0-9.89,0-14.84,4.92.02,9.84.03,14.77.05Z"/>
      <path class="cls-5" d="M266.88,177.95c4.93-.01,9.86-.02,14.78-.03.01,4.93.03,9.86.05,14.79,0,0-.08.07-.08.07-4.92-.02-9.83-.04-14.75-.07v-14.76Z"/>
      <path class="cls-4" d="M237.19,192.75c4.92-.02,9.84-.03,14.77-.05,0,4.96,0,9.93,0,14.89-4.92,0-9.84-.02-14.77-.03,0-4.95.01-9.9.02-14.84l-.02.02Z"/>
      <path class="cls-6" d="M266.88,192.71c4.92.02,9.83.04,14.75.07.01,4.93.03,9.86.04,14.79,0,0,0,0,0,0-4.93.01-9.86.02-14.78.03,0-4.96,0-9.92,0-14.89Z"/>
      <path class="cls-8" d="M237.19,207.57c4.92,0,9.84.02,14.77.03,0,4.92,0,9.83,0,14.75-4.92.02-9.84.03-14.77.05,0-4.95.01-9.9.02-14.84l-.02.02Z"/>
      <path class="cls-5" d="M266.88,207.59c4.93-.01,9.86-.02,14.78-.03.01,4.93.03,9.86.05,14.79,0,0-.08.07-.08.07-4.92-.02-9.83-.04-14.75-.07,0-4.92,0-9.84,0-14.76Z"/>
      <path class="cls-6" d="M281.63,148.23c-4.92.02-9.83.04-14.75.07,0-4.96,0-9.92,0-14.89,4.92.02,9.83.04,14.75.07,0,4.92,0,9.84,0,14.76Z"/>
      <path class="cls-4" d="M237.19,222.39c4.92-.02,9.84-.03,14.77-.05,0,4.96,0,9.93,0,14.89-4.92-.01-9.84-.03-14.77-.04,0,0,.02.02.02.02,0-4.95,0-9.9,0-14.84l-.02.02Z"/>
      <path class="cls-6" d="M266.88,222.35c4.92.02,9.83.04,14.75.07,0,4.92,0,9.84,0,14.76-4.92.02-9.83.04-14.75.07,0-4.96,0-9.92,0-14.89Z"/>
      <path class="cls-4" d="M251.96,148.3c-4.92-.01-9.84-.03-14.76-.04l.02.02v-14.85l-.02.02c4.92-.01,9.84-.03,14.76-.04,0,4.96,0,9.93,0,14.89Z"/>
      <path class="cls-8" d="M237.19,237.2c4.92.01,9.84.03,14.77.04.02,4.38,0,8.76.09,13.14.03,1.33-.43,1.7-1.71,1.68-4.38-.07-8.76-.03-13.14-.03,0,0,0,0,0,0,0-4.95,0-9.89-.01-14.84Z"/>
      <path class="cls-4" d="M251.96,177.95c-4.92-.02-9.84-.03-14.77-.05l.02.02v-14.84l-.02.02c4.92-.02,9.84-.03,14.77-.05,0,4.96,0,9.93,0,14.89Z"/>
      <path class="cls-8" d="M103.83,266.89c9.88,0,19.76-.01,29.64-.02-.02,4.92-.04,9.85-.07,14.77-9.87-.01-19.75-.03-29.62-.04.02-4.9.03-9.8.05-14.71Z"/>
      <path class="cls-8" d="M148.28,252.06c0-4.94.01-9.88.02-14.82,4.9-.02,9.8-.03,14.71-.05.03,4.95.06,9.9.1,14.85-4.94,0-9.88,0-14.82.01Z"/>
      <path class="cls-8" d="M133.48,252.07c4.94,0,9.88-.01,14.82-.02-.01,4.38-.07,8.76,0,13.14.02,1.31-.39,1.71-1.69,1.69-4.38-.06-8.76,0-13.14,0,0-4.94.01-9.88.02-14.81Z"/>
      <path class="cls-4" d="M163.07,252.02c4.95.02,9.9.03,14.85.05,0,4.9,0,9.81,0,14.71-4.3.02-8.6,0-12.9.1-1.51.04-1.99-.43-1.96-1.95.09-4.3.02-8.6.01-12.91Z"/>
      <path class="cls-13" d="M177.93,266.78c0-4.9,0-9.81,0-14.71,0,0-.05-.08-.05-.08,4.96.03,9.91.05,14.87.08,0,4.9,0,9.81,0,14.71-4.94,0-9.88,0-14.82,0Z"/>
      <path class="cls-15" d="M237.21,103.8c0,4.94-.02,9.88-.03,14.82,0,0,.02-.02.02-.02-9.88.02-19.75.05-29.63.07-9.9-.03-19.81-.06-29.71-.1.01-4.17.13-8.34,0-12.5-.06-1.89.59-2.31,2.37-2.3,18.99.06,37.98.04,56.97.04Z"/>
      <path class="cls-12" d="M177.87,118.57c9.9.03,19.81.06,29.71.1,0,4.91,0,9.82,0,14.73-9.9.03-19.81.06-29.71.1-4.91,0-9.83,0-14.74,0-4.96-.02-9.92-.04-14.88-.06,0,0,.02.02.02.02,0-4.94-.01-9.88-.02-14.82,0,0,.02-.02.02-.02,4.93-.02,9.86-.04,14.79-.06,4.93,0,9.87.01,14.8.02Z"/>
      <path class="cls-10" d="M252.03,89c-4.93-.02-9.86-.04-14.78-.07-.02-4.93-.05-9.86-.07-14.79,4.95.03,9.89.07,14.84.1,0,4.92.01,9.84.02,14.76Z"/>
      <path class="cls-7" d="M133.51,103.79c-.01-4.94-.03-9.88-.04-14.81,0,0-.03.03-.03.03,4.94-.01,9.88-.03,14.81-.04l.02.02c0,4.94,0,9.88-.01,14.82,0,0,.01-.01.01-.01h-14.76Z"/>
      <path class="cls-7" d="M163.07,118.55c-4.93.02-9.86.04-14.79.06,0-4.94,0-9.88,0-14.82,0,0-.01.01-.01.01,4.21,0,8.43.07,12.64-.04,1.67-.04,2.28.37,2.23,2.15-.14,4.21-.05,8.43-.06,12.64Z"/>
      <path class="cls-3" d="M118.66,89c-4.94-.02-9.88-.05-14.82-.07,0-4.91,0-9.82,0-14.72,4.91,0,9.83,0,14.74,0,0,4.92.02,9.85.03,14.77l.05.02Z"/>
      <path class="cls-15" d="M118.6,88.97c0-4.92-.02-9.85-.03-14.77,4.96-.01,9.93-.02,14.89-.04,0,4.95-.02,9.89-.03,14.84,0,0,.03-.03.03-.03-4.95,0-9.91,0-14.86,0Z"/>
      <path class="cls-10" d="M133.43,89.01c0-4.95.02-9.89.03-14.84,4.94,0,9.89,0,14.83,0-.02,4.93-.03,9.87-.05,14.8-4.94.01-9.88.03-14.81.04Z"/>
      <path class="cls-6" d="M177.91,192.74c-4.94,0-9.87,0-14.81,0,0-4.91,0-9.81,0-14.72,0,0-.03-.19-.03-.19,4.94,0,9.88.01,14.82.02,4.94.05,9.88.09,14.81.14,0,4.91-.01,9.81-.02,14.72-4.93.01-9.85.02-14.78.04Z"/>
      <path class="cls-3" d="M118.55,118.6c-4.9,0-9.81-.02-14.71-.03,0-4.91,0-9.82,0-14.72,4.9,0,9.81-.02,14.71-.03,0,4.93,0,9.85,0,14.78Z"/>
      <path class="cls-12" d="M148.27,103.79c0,4.94,0,9.88,0,14.82,0,0-.02.02-.02.02-4.91,0-9.83.01-14.74.02,0-4.95,0-9.91,0-14.86,4.92,0,9.84,0,14.76,0Z"/>
      <path class="cls-15" d="M133.51,118.65c4.91,0,9.83-.01,14.74-.02,0,4.94.01,9.88.02,14.82-4.92-.01-9.84-.02-14.76-.03,0-4.92,0-9.85,0-14.77Z"/>
      <path class="cls-3" d="M103.83,163.14c4.9,0,9.81-.02,14.71-.03.02,4.38,0,8.77.1,13.15.03,1.31-.35,1.71-1.67,1.68-4.38-.08-8.77-.04-13.15-.05,0-4.92,0-9.84.01-14.76Z"/>
      <path class="cls-12" d="M148.29,177.84c-4.39.02-8.77,0-13.16.09-1.31.03-1.74-.4-1.71-1.71.09-4.39.07-8.77.09-13.16,4.92,0,9.84.01,14.76.02,0,4.92.01,9.84.02,14.76Z"/>
      <path class="cls-15" d="M148.29,177.84c0-4.92-.01-9.84-.02-14.76,0,0-.02.02-.02.02,4.96.01,9.92.03,14.87.04-.02,4.89-.04,9.79-.06,14.68l.03.19c-4.94-.06-9.88-.11-14.81-.17Z"/>
      <path class="cls-15" d="M148.27,163.08c-4.92,0-9.84-.01-14.76-.02,0-4.92,0-9.85,0-14.77,4.92,0,9.84-.01,14.76-.02,0,0-.02-.02-.02-.02,0,4.95,0,9.9,0,14.84l.02-.02Z"/>
      <path class="cls-12" d="M148.27,148.28c-4.92,0-9.84.01-14.76.02,0-4.96,0-9.92,0-14.87,4.92.01,9.84.02,14.76.03,0,0-.02-.02-.02-.02,0,4.95.01,9.89.02,14.84Z"/>
      <path class="cls-3" d="M118.55,148.24c-4.9,0-9.81-.02-14.71-.03,0-4.91,0-9.82,0-14.72,4.9,0,9.81-.02,14.71-.03,0,4.93,0,9.85,0,14.78Z"/>
      <path class="cls-5" d="M177.91,192.74c4.93-.01,9.85-.02,14.78-.04,0,0,.08.07.08.07-.01,4.93-.03,9.86-.04,14.79-4.93-.01-9.86-.02-14.78-.03-.01-4.93-.02-9.86-.04-14.79Z"/>
      <path class="cls-4" d="M177.95,237.16c0-4.91,0-9.82,0-14.73,4.93-.01,9.86-.03,14.78-.04,0,4.92.01,9.83.02,14.75,0,0-.04.11-.04.11-4.92-.03-9.84-.06-14.77-.09Z"/>
      <path class="cls-6" d="M192.74,222.39c-4.93.01-9.86.03-14.78.04,0-4.97,0-9.93,0-14.9,4.93.01,9.86.02,14.78.03,0,0,0,0,0,0,0,4.94,0,9.88-.01,14.81,0,0,.02.02.02.02Z"/>
      <path class="cls-6" d="M177.95,237.16c4.92.03,9.84.06,14.77.09,0,4.92,0,9.84,0,14.77,0,0,.04.06.04.06-4.96-.03-9.91-.05-14.87-.08.02-4.94.05-9.89.07-14.83Z"/>
      <path class="cls-4" d="M237.19,237.2c0,4.95,0,9.89.01,14.84-9.89-.01-19.77-.02-29.66-.03,0-4.93,0-9.86.01-14.79,9.89,0,19.77,0,29.66.01l-.02-.02Z"/>
      <path class="cls-5" d="M207.55,237.21c0,4.93,0,9.86-.01,14.79-4.94,0-9.88,0-14.83.01,0-4.92,0-9.84,0-14.77,0,0,.04-.11.04-.11,4.94.01,9.88.02,14.82.04l-.02.03Z"/>
      <path class="cls-4" d="M207.57,133.4c0-4.91,0-9.82,0-14.73,9.88-.02,19.75-.05,29.63-.07,0,4.95,0,9.9,0,14.85,0,0,.02-.02.02-.02-9.88-.01-19.76-.02-29.64-.03Z"/>
      <path class="cls-4" d="M237.19,148.26c0,4.95,0,9.89,0,14.84,0,0,.02-.02.02-.02-4.95.02-9.9.04-14.86.06-9.87-.03-19.73-.06-29.6-.09,0-4.91,0-9.82,0-14.73,14.82-.01,29.64-.02,44.46-.03l-.02-.02Z"/>
      <path class="cls-4" d="M237.19,177.9c0,4.95,0,9.89,0,14.84,0,0,.02-.02.02-.02-9.89,0-19.78,0-29.66,0,0-4.92,0-9.83,0-14.75l14.81-.11c4.95.02,9.9.04,14.86.06l-.02-.02Z"/>
      <path class="cls-8" d="M207.55,192.72c9.89,0,19.78,0,29.66,0,0,4.95-.01,9.9-.02,14.84,0,0,.02-.02.02-.02-9.88-.01-19.77-.03-29.65-.04,0-4.92,0-9.84,0-14.75l-.02-.03Z"/>
      <path class="cls-4" d="M207.56,207.51c9.88.01,19.77.03,29.65.04,0,4.95-.01,9.9-.02,14.84,0,0,.02-.02.02-.02-9.88.02-19.77.04-29.65.06v-.1c0-4.91,0-9.82,0-14.73v-.1Z"/>
      <path class="cls-8" d="M207.56,222.43c9.88-.02,19.77-.04,29.65-.06,0,4.95,0,9.9,0,14.84-9.89,0-19.77,0-29.66-.01,0,0,.02-.03.02-.03,0-4.91,0-9.83-.01-14.74Z"/>
      <path class="cls-15" d="M237.21,148.28c-14.82.01-29.64.02-44.46.03-4.96-.03-9.92-.06-14.89-.1,0-4.91,0-9.82,0-14.72,9.9-.03,19.81-.06,29.71-.1,9.88.01,19.76.02,29.64.03,0,4.95,0,9.9,0,14.85Z"/>
      <path class="cls-8" d="M237.21,177.92c-4.95-.02-9.9-.04-14.86-.06,0-4.91,0-9.82,0-14.73,4.95-.02,9.9-.04,14.86-.06,0,4.95,0,9.9,0,14.84Z"/>
      <path class="cls-3" d="M177.87,133.5c0,4.91,0,9.82,0,14.72-4.91,0-9.83,0-14.74,0,0-4.91,0-9.82,0-14.72,4.91,0,9.83,0,14.74,0Z"/>
      <path class="cls-15" d="M163.13,133.49c0,4.91,0,9.82,0,14.72-4.96.01-9.92.03-14.87.04,0,0,.02.02.02.02,0-4.95-.01-9.89-.02-14.84,4.96.02,9.92.04,14.88.06Z"/>
      <path class="cls-15" d="M222.35,163.14c0,4.91,0,9.82,0,14.73-4.94.04-9.88.07-14.81.11-4.95,0-9.89,0-14.84,0-4.94-.05-9.88-.09-14.81-.14,0-4.9-.01-9.8-.02-14.7,4.96-.03,9.92-.06,14.89-.1,9.87.03,19.73.06,29.6.09Z"/>
      <path class="cls-1" d="M192.7,177.98c4.95,0,9.89,0,14.84,0,0,4.92,0,9.83,0,14.75,0,0,.02.03.02.03-4.93,0-9.87,0-14.8.01,0,0-.08-.07-.08-.07,0-4.91,0-9.81.01-14.72Z"/>
      <path class="cls-3" d="M177.87,163.14c0,4.9.01,9.8.02,14.7-4.94,0-9.88-.01-14.82-.02.02-4.89.04-9.79.06-14.68,4.91,0,9.83,0,14.74,0Z"/>
      <path class="cls-12" d="M177.87,163.14c-4.91,0-9.83,0-14.74,0-4.96-.01-9.92-.03-14.87-.04,0-4.95,0-9.9,0-14.84,4.96-.01,9.92-.03,14.87-.04,4.91,0,9.83,0,14.74,0,4.96.03,9.92.06,14.89.1,0,4.91,0,9.82,0,14.73-4.96.03-9.92.06-14.89.1Z"/>
      <path class="cls-13" d="M192.77,192.77c4.93,0,9.87,0,14.8-.01,0,4.92,0,9.84,0,14.75,0,0,0,.1,0,.09-4.94-.02-9.88-.03-14.82-.05,0,0,0,0,0,0,.01-4.93.03-9.86.04-14.79Z"/>
      <path class="cls-13" d="M207.56,222.43c0,4.91,0,9.83.01,14.74-4.94-.01-9.88-.02-14.82-.04,0-4.92-.01-9.83-.02-14.75,0,0-.02-.02-.02-.02,4.94-.01,9.89-.02,14.83-.04v.1Z"/>
      <path class="cls-1" d="M207.55,222.34c-4.94.01-9.89.02-14.83.04,0-4.94,0-9.88.01-14.81,4.94.02,9.88.03,14.82.05,0,4.91,0,9.82,0,14.73Z"/>
    </g>
  </g>
</svg>