<?xml version="1.0" encoding="UTF-8"?>
<svg id="Capa_2" xmlns="http://www.w3.org/2000/svg" viewBox="0 0 252.62 289">
  <defs>
    <style>
      .cls-1 {
        fill: #fdefb4;
      }

      .cls-2 {
        fill: #d3b617;
      }

      .cls-3 {
        fill: #fef0b2;
      }

      .cls-4 {
        fill: #ffeec0;
      }

      .cls-5 {
        fill: #fdf7c8;
      }

      .cls-6 {
        fill: #fab72d;
      }

      .cls-7 {
        fill: #f9b62d;
      }

      .cls-8 {
        fill: #fee43d;
      }

      .cls-9 {
        fill: #080805;
      }

      .cls-10 {
        fill: #f9ebb1;
      }

      .cls-11 {
        fill: #f6db1b;
      }

      .cls-12 {
        fill: #ffd815;
      }

      .cls-13 {
        fill: #f7f3b4;
      }

      .cls-14 {
        fill: #b69315;
      }

      .cls-15 {
        fill: #f8c22e;
      }
    </style>
  </defs>
  <g id="Capa_1-2" data-name="Capa_1">
    <g>
      <path class="cls-9" d="M252.04,153.44c0,25.48-.09,50.96.1,76.44.03,3.76-.9,4.74-4.64,4.64-4.38-.12-10.28-2.13-12.78.94-2.14,2.63-.84,8.29-.58,12.58.21,3.47-.79,4.75-4.36,4.41-3.3-.32-6.67.17-9.98-.13-3.27-.3-3.84,1.06-3.83,3.98.03,4.58,2.07,10.7-.88,13.32-2.55,2.26-8.55.93-12.99.66-3.44-.2-4.19,1.06-4.08,4.21.16,4.45,1.55,10.52-.73,12.96-2.67,2.86-8.78.87-13.39.87-41.46.06-82.91-.02-124.37.13-4.13.01-6.01-.57-5.58-5.29.38-4.06,1.86-9.47-.61-12.01-2.49-2.55-7.92-1.01-11.98-.66-4.65.41-5.62-1.29-5.4-5.55.21-4.06,1.93-9.51-.78-11.88-2.3-2.01-7.63-.98-11.55-.59-4.68.47-5.9-1.22-5.67-5.7.21-4.03,1.96-9.5-.92-11.81-2.45-1.97-7.68-.89-11.61-.48C.92,234.97-.01,233.4,0,229.05c.16-50.62.15-101.25,0-151.87-.01-3.97,1.06-5.47,4.93-4.8.16.03.33.01.5,0,4.1-.32,9.71,1.84,11.91-.86,2.07-2.54.69-7.92.73-12.06.05-6.66.11-13.32-.03-19.98-.05-2.37.64-3.24,3.08-3.13,3.82.18,7.67-.16,11.48.11,2.99.21,3.69-.94,3.52-3.67-.21-3.32.18-6.68-.11-9.98-.3-3.42.69-4.59,4.31-4.49,9.32.26,18.65-.08,27.97.16,3.19.08,4.23-.93,3.75-3.91-.05-.32-.03-.67,0-1,.31-4.27-1.89-10.1.9-12.37,2.64-2.15,8.24-.77,12.54-.77,29.97-.03,59.94.07,89.91-.12,4.02-.03,4.96,1.15,4.83,4.95-.14,4.25-1.97,9.93.88,12.41,2.41,2.1,7.91.69,12.05.73,6.16.05,12.34.29,18.47-.1,3.94-.25,4.86,1.11,4.51,4.72-.32,3.3.06,6.66-.11,9.98-.13,2.53.6,3.62,3.34,3.45,3.65-.22,7.34.18,10.98-.13,3.26-.27,3.83,1.03,3.78,3.97-.18,9.49.03,18.98-.12,28.47-.05,2.8.72,4.09,3.62,3.62.16-.03.33-.02.5,0,4.59.37,10.74-2.05,13.34,1.02,2.23,2.64.59,8.6.59,13.09.01,22.32,0,44.63,0,66.95ZM53.95,234.55c-.02,1.96-.23,3.95,0,5.89.45,3.9-1.29,8,1.07,11.71l.44.12.43-.15c5.33.08,10.67.17,16,.25.05,4.92.12,9.85.15,14.77.01,1.92-.07,3.87,2.85,3.01,22.3,0,44.6,0,66.89,0,1.32,0,2.64,0,3.95-.01,6.43.05,12.86.25,19.29.1,4.88-.12,11.56,2.21,14.15-1.01,2.69-3.35.87-9.8.55-14.89.07-.61.13-1.21.2-1.82,3.29-.07,6.58-.19,9.86-.2,8.15-.03,8.14,0,8.15-7.91,0-3.29,0-6.59.01-9.88h-.01c4.45-.07,8.91-.4,13.34-.14,3.57.21,5.05-.64,4.73-4.53-.37-4.43-.08-8.9-.08-13.36l-.04.04c4.82-.07,9.64-.31,14.44-.15,2.85.1,3.67-.85,3.61-3.65-.16-8.31-.05-16.62-.05-24.93,0-30.92-.06-61.83.09-92.75.02-3.64-.73-5-4.6-4.71-4.45.34-8.96-.03-13.44-.09,0,0,.04.06.04.06-.08-11.61-.17-23.21-.25-34.82-.67-1.85-2.24-.95-3.38-.98-4.79-.16-9.58-.17-14.37-.24l.03.02c-.01-4.8-.14-9.6,0-14.39.07-2.49-.58-3.59-3.29-3.48-5.28.22-10.58.15-15.87.2-5.61-.1-11.23-.21-16.84-.31-.13-5.75-.26-11.49-.39-17.24-5.84-1.27-11.74-.44-17.61-.42-16.89-.06-33.78-.06-50.67-.25-2.79-.03-3.31,1.05-3.24,3.48.13,4.8.02,9.61,0,14.41-6.01.11-12.03.22-18.04.33-4.97-.06-9.95,0-14.92-.23-2.5-.11-3.07.89-3.04,3.18.05,4.97-.16,9.93-.26,14.9l.08-.05c-4.47,0-8.95.23-13.4-.08-3.51-.24-4.44.92-4.41,4.39.12,10.57-.15,21.15-.26,31.73l.07-.05c-2.44,0-4.92-.26-7.32.07-3.34.46-6.93-1.47-10.05,1.01-.01.71-.02,1.43-.03,2.14-.1,1.48-.3,2.97-.3,4.45-.02,32.31-.01,64.63-.01,96.94,0,6,.12,12-.05,17.99-.07,2.65.82,3.5,3.43,3.37,3.82-.2,7.66.06,11.49-.1,2.33-.1,3.11.61,3.19,3.05.16,4.92-2.3,11.83,1.05,14.24,3.42,2.47,9.92.68,15.08.75.5,0,1-.04,1.5-.06l.05.29Z"/>
      <path class="cls-12" d="M71.88,252.37c-5.33-.08-10.67-.17-16-.25.33-17.33-2.1-34.62-.72-51.97.02-.23-.71-.52-1.08-.79-4.51-2.12-9.29-.45-13.92-.97-1.67-.19-3.78.65-4.28-2,.04-32.24.08-64.47.12-96.71,0-1.3.22-2.69-.92-3.73,1.1-1.72.98-3.63.86-5.53,0,0-.07.05-.07.05,4.64-.02,9.28-.22,13.91,0,3.28.16,4.35-1,4.3-4.24-.17-10.6-.11-21.2-.14-31.8,0,0-.08.05-.08.05,4.77-.02,9.55-.17,14.31,0,3.03.1,4.03-1.05,3.91-4.03-.19-4.6-.02-9.21,0-13.82,6.01-.11,12.03-.22,18.04-.33,17.91.04,35.81.07,53.72.11,6.06-.03,12.12-.06,18.18-.1,5.61.1,11.23.21,16.84.31,1.95,4.13.9,8.52.88,12.77-.02,3.98,1.48,5.35,5.32,5.13,4.31-.26,8.63-.16,12.95-.22,0,0-.03-.02-.03-.02-.05,10.63-.05,21.26-.2,31.89-.04,3.28,1.4,4.43,4.53,4.32,4.15-.14,8.3-.05,12.46-.06.4-.03.81-.07,1.21-.1,0,0-.04-.06-.04-.06-.02,42.1-.03,84.19-.05,126.29,0,0,.04-.04.04-.04-4.81-.04-9.62.03-14.42-.15-2.82-.1-3.84.99-3.73,3.77.18,4.8.12,9.61.17,14.42,0,0,.01-.01.01-.01-4.8-.05-9.61,0-14.41-.18-2.81-.11-3.85.97-3.75,3.76.17,4.8.1,9.61.13,14.42-.07.61-.13,1.21-.2,1.82-1.2-1.57-2.75-2.04-4.75-2.01-8.8.1-17.6.17-26.4-.01-3.83-.08-4.96,1.59-4.78,5.11.18,3.31.02,6.64,0,9.96-22.93,0-45.86,0-68.79,0,0,.33-.01.66-.02.99h4.88c18.92,0,37.84-.02,56.76.03,1.75,0,3.69-.66,5.18.94-.04.27-.05.54-.05.82-22.3,0-44.6,0-66.89,0-2.17-1.17-1.77-3.22-1.97-5.2-.42-4.19,1.3-8.56-1.03-12.58ZM125.89,54.53c-10.48-.02-20.97.07-31.45-.13-3.4-.07-4.52.82-4.51,4.44.14,52.44.12,104.87.13,157.31-.06,4.49.08,9-.24,13.47-.27,3.71.97,4.87,4.75,4.84,20.81-.17,41.61-.15,62.42-.01,3.57.02,4.94-.79,4.93-4.68-.12-56.94-.11-113.88-.02-170.82,0-3.49-1.06-4.61-4.55-4.54-10.48.21-20.97.1-31.46.12Z"/>
      <path class="cls-10" d="M35.93,90.42c.12,1.91.24,3.82-.86,5.54,0,.18-.06.35-.17.49-1.72,1.65-.96,3.77-.96,5.67-.05,31.09-.04,62.18-.04,93.27.41.82,1.15,1,1.98,1,.5,2.66,2.61,1.81,4.28,2,4.63.52,9.41-1.15,13.92.97-.06,11.64-.12,23.27-.19,34.91-.5.02-1,.07-1.5.06-5.15-.07-11.65,1.72-15.08-.75-3.35-2.42-.89-9.32-1.05-14.24-.08-2.44-.86-3.14-3.19-3.05-3.82.16-7.67-.1-11.49.1-2.61.13-3.5-.72-3.43-3.37.17-5.99.05-11.99.05-17.99,0-32.31,0-64.63.01-96.94,0-1.48.19-2.97.3-4.45.83,1.75.43,3.61.43,5.41.03,36.77.02,73.54.02,110.31,0,1.59,0,3.19,0,4.78.75-.35.91-.66.91-.97.02-39.27.03-78.53,0-117.8,0-1.39.62-3.11-1.33-3.88,3.12-2.47,6.71-.55,10.05-1.01,2.4-.33,4.87-.07,7.32-.07Z"/>
      <path class="cls-6" d="M215.88,216.54c.02-42.1.03-84.19.05-126.29,4.48.06,8.99.43,13.44.09,3.87-.29,4.62,1.07,4.6,4.71-.15,30.91-.09,61.83-.09,92.75,0,8.31-.11,16.62.05,24.93.06,2.8-.76,3.75-3.61,3.65-4.81-.16-9.63.08-14.44.15Z"/>
      <path class="cls-1" d="M143.82,36.41c-17.91-.04-35.81-.07-53.72-.11.01-4.81.13-9.61,0-14.41-.07-2.43.45-3.51,3.24-3.48,16.89.19,33.78.19,50.67.25-.06,5.92-.12,11.84-.18,17.75Z"/>
      <path class="cls-10" d="M53.91,54.44c.03,10.6-.03,21.2.14,31.8.05,3.24-1.02,4.4-4.3,4.24-4.62-.23-9.27-.03-13.91,0,.11-10.58.38-21.15.26-31.73-.04-3.46.89-4.63,4.41-4.39,4.45.31,8.93.08,13.4.08Z"/>
      <path class="cls-7" d="M143.81,267.38c.01-3.32.17-6.65,0-9.96-.19-3.52.95-5.18,4.78-5.11,8.8.18,17.6.12,26.4.01,2-.02,3.54.45,4.75,2.01.33,5.09,2.15,11.54-.55,14.89-2.59,3.22-9.28.89-14.15,1.01-6.43.15-12.86-.05-19.29-.1-.64-.26-1.28-.51-1.92-.77,0-.66,0-1.33,0-1.99Z"/>
      <path class="cls-6" d="M214.75,90.42c-4.15.01-8.31-.08-12.46.06-3.13.11-4.57-1.04-4.53-4.32.15-10.63.14-21.26.2-31.89,4.79.07,9.58.08,14.37.24,1.14.04,2.71-.86,3.38.98-1.55,1.5-.89,3.43-.91,5.17-.07,9.92-.05,19.83-.06,29.75Z"/>
      <path class="cls-6" d="M143.82,36.41c.06-5.92.12-11.84.18-17.75,5.87-.02,11.77-.85,17.61.42.13,5.75.26,11.49.39,17.24-6.06.03-12.12.06-18.18.1Z"/>
      <path class="cls-10" d="M72.06,36.64c-.02,4.61-.19,9.22,0,13.82.12,2.98-.88,4.13-3.91,4.03-4.76-.16-9.54-.01-14.31,0,.1-4.97.31-9.94.26-14.9-.02-2.29.55-3.29,3.04-3.18,4.97.22,9.94.17,14.92.23Z"/>
      <path class="cls-6" d="M197.99,54.3c-4.32.06-8.65-.03-12.95.22-3.83.23-5.33-1.15-5.32-5.13.02-4.25,1.07-8.64-.88-12.77,5.29-.05,10.58.01,15.87-.2,2.71-.11,3.36.99,3.29,3.48-.14,4.79-.02,9.6,0,14.39Z"/>
      <path class="cls-7" d="M197.94,234.54c-.04-4.81.01-9.62-.17-14.42-.1-2.78.92-3.87,3.73-3.77,4.8.18,9.61.11,14.42.15,0,4.46-.28,8.93.08,13.36.32,3.89-1.16,4.74-4.73,4.53-4.43-.26-8.89.08-13.34.15Z"/>
      <path class="cls-7" d="M179.92,252.52c-.03-4.81.04-9.62-.13-14.42-.1-2.79.94-3.87,3.75-3.76,4.8.19,9.61.13,14.41.18,0,3.29-.01,6.59-.01,9.88,0,7.9,0,7.88-8.15,7.91-3.29.01-6.58.13-9.86.2Z"/>
      <path class="cls-5" d="M18.56,91.5c1.95.77,1.33,2.49,1.33,3.88.02,39.27.01,78.53,0,117.8,0,.31-.15.62-.91.97,0-1.59,0-3.19,0-4.78,0-36.77,0-73.54-.02-110.31,0-1.8.4-3.66-.43-5.41.01-.71.02-1.43.03-2.14Z"/>
      <path class="cls-8" d="M53.9,234.27c.06-11.64.12-23.27.19-34.91.38.26,1.1.56,1.09.79-1.39,17.35,1.04,34.64.72,51.97,0,0-.43.15-.43.15,0,0-.44-.12-.44-.12-.78-5.84,1.12-11.84-1.06-17.6l-.05-.29Z"/>
      <path class="cls-15" d="M214.75,90.42c0-9.92-.01-19.83.06-29.75.01-1.74-.65-3.67.91-5.17.08,11.61.17,23.21.25,34.82-.4.03-.81.07-1.21.1Z"/>
      <path class="cls-2" d="M71.88,252.37c2.33,4.02.61,8.39,1.03,12.58.2,1.98-.2,4.03,1.97,5.2-2.92.86-2.84-1.09-2.85-3.01-.03-4.92-.1-9.85-.15-14.77Z"/>
      <path class="cls-14" d="M53.95,234.55c2.18,5.76.28,11.76,1.06,17.6-2.35-3.71-.62-7.81-1.07-11.71-.22-1.94-.01-3.92,0-5.89Z"/>
      <path class="cls-2" d="M143.81,269.37c.64.26,1.28.51,1.92.77-1.32,0-2.64,0-3.96.01,0-.27.01-.55.05-.82.66.01,1.32.02,1.99.03Z"/>
      <path class="cls-6" d="M125.89,54.53c10.49-.02,20.98.08,31.46-.12,3.49-.07,4.55,1.06,4.55,4.54-.09,56.94-.1,113.88.02,170.82,0,3.89-1.36,4.7-4.93,4.68-20.81-.14-41.61-.16-62.42.01-3.78.03-5.01-1.13-4.75-4.84.32-4.47.18-8.98.24-13.47,0,0,.43,0,.43,0l.43-.07.45.18.48-.05c4.67,0,9.35,0,14.02,0,.33,0,.67,0,1,0,.31.11.63.15.96.13,10.3.01,20.62-.18,30.91.14,4.33.13,5.2-1.45,5.19-5.43-.14-33.25-.08-66.49-.08-99.74,0-11.47-.12-22.94.07-34.41.06-3.52-1.1-4.69-4.57-4.51-4.47.24-8.97.04-13.46.03,0-5.97,0-11.94,0-17.91Z"/>
      <path class="cls-3" d="M125.89,54.53c0,5.97,0,11.94,0,17.91-5.96.03-11.93.05-17.89.08-.38-.01-.76-.03-1.13-.04-1.65,1.46-.98,3.42-.98,5.16-.03,46.19-.02,92.39-.02,138.58-4.67,0-9.35,0-14.02,0,0-52.89,0-105.78,0-158.66-.31,0-.62,0-.93,0v158.53l-.43.07s-.43,0-.43,0c-.01-52.44,0-104.87-.13-157.31,0-3.62,1.11-4.5,4.51-4.44,10.48.2,20.97.11,31.45.13Z"/>
      <path class="cls-4" d="M35.88,196.39c-.83,0-1.56-.18-1.98-1,1.74-1.64.96-3.77.96-5.66.05-31.09.03-62.18.03-93.27.11-.14.17-.31.17-.49,1.14,1.03.92,2.42.92,3.72-.03,32.24-.07,64.47-.12,96.71Z"/>
      <path class="cls-11" d="M143.81,269.37c-.66-.01-1.32-.02-1.99-.03-1.49-1.6-3.43-.93-5.18-.94-18.92-.05-37.84-.03-56.76-.03h-4.88c0-.33.01-.66.02-.99,22.93,0,45.86,0,68.79,0,0,.66,0,1.33,0,1.99Z"/>
      <path class="cls-13" d="M34.9,96.45c0,31.09.02,62.18-.03,93.27,0,1.9.78,4.03-.96,5.66,0-31.09-.01-62.18.04-93.27,0-1.9-.76-4.03.96-5.67Z"/>
      <path class="cls-12" d="M108,72.51c5.96-.03,11.93-.05,17.89-.08,4.49,0,8.99.21,13.46-.03,3.47-.19,4.62.99,4.57,4.51-.19,11.47-.07,22.94-.07,34.41,0,33.25-.06,66.5.08,99.74.02,3.98-.85,5.56-5.19,5.43-10.29-.32-20.61-.13-30.91-.14.04-3,.1-5.99.1-8.99.03-44.95.05-89.9.07-134.85Z"/>
      <path class="cls-4" d="M90.91,216.09V57.55c.31,0,.62,0,.93,0,0,52.89,0,105.78,0,158.66,0,0-.48.05-.48.05l-.45-.18Z"/>
      <path class="cls-13" d="M105.86,216.21c0-46.19-.01-92.39.02-138.58,0-1.74-.67-3.7.98-5.16,0,47.92,0,95.83,0,143.75-.33,0-.67,0-1,0Z"/>
      <path class="cls-4" d="M106.86,216.22c0-47.92,0-95.83,0-143.75.38.01.76.03,1.13.04-.02,44.95-.04,89.9-.07,134.85,0,3-.07,5.99-.1,8.99-.33.03-.65-.01-.96-.13Z"/>
    </g>
  </g>
</svg>