<?xml version="1.0" encoding="UTF-8"?>
<svg id="Capa_2" xmlns="http://www.w3.org/2000/svg" viewBox="0 0 304.77 263.8">
  <defs>
    <style>
      .cls-1 {
        fill: #fff9f9;
      }

      .cls-2 {
        fill: #140d0d;
      }

      .cls-3 {
        fill: #121313;
      }

      .cls-4 {
        fill: #281610;
      }

      .cls-5 {
        fill: #22120c;
      }

      .cls-6 {
        fill: #25140e;
      }

      .cls-7 {
        fill: #220600;
      }

      .cls-8 {
        fill: #e42520;
      }

      .cls-9 {
        fill: #1a0300;
      }

      .cls-10 {
        fill: #171819;
      }

      .cls-11 {
        fill: #010101;
      }

      .cls-12 {
        fill: #040405;
      }

      .cls-13 {
        fill: #1c0300;
      }

      .cls-14 {
        fill: #140805;
      }
    </style>
  </defs>
  <g id="Capa_1-2" data-name="Capa_1">
    <g>
      <path class="cls-8" d="M183.11,20.77l.12-.57s.57-.15.57-.15c26.61.11,53.21.22,79.82.33.47-.11.72.06.77.5-3.71,19.26-3.19,19.92,15.77,19.92,1.32,0,2.64,0,3.96,0l-.11-.13c0,26.81,0,53.62,0,80.42l.12-.12c-6.56.32-14.76-2.67-19.24,1.16-4.32,3.7-.81,12-1.49,18.24-.06.53-.17,1.04-.26,1.57,0,0,.12-.13.12-.13q-20.2-.61-19.35,19.36s.13-.13.13-.13c-6.57.28-15.05-1.85-19.2,1.46-4.9,3.9-1.17,12.82-1.77,19.52,0,0,.12-.12.12-.12-4.75-.02-9.53.23-14.25-.12-4.7-.35-6.71,1.03-6.37,6.09.33,4.97-.2,10.01-.35,15.01,0,0,.13-.13.13-.13q-19.65-.86-19.4,18.56c0,.26.02.53.04.79,0,0,.13-.13.13-.13-6.57.27-15.07-1.87-19.2,1.44-4.87,3.91-1.13,12.83-1.78,19.54l.12-.13c-6.77,0-13.53.01-20.3.02,0,0,.18.11.18.11-.3-6.36,1.63-14.33-1.49-18.66-3.71-5.14-12.37-.96-18.74-2.3,0,0,.12.14.12.14-.74-6.28,2.74-14.66-1.49-18.37-4.44-3.9-12.72-.97-19.32-1.15l.07.16c-.19-6.62,2.13-15.36-1.21-19.33-3.93-4.67-13-.89-19.79-1.63,0,0,.2.04.2.04q1.39-19.67-17.95-20.52c-.52-.02-1.04-.2-1.56-.3,0,0,.11.15.11.15q-.19-19.72-20.01-19.52c-.27,0-.53,0-.8,0,0,0,.1.14.1.14-.02-.27-.04-.53-.05-.8-.18-6.36,2.04-14.74-1.17-18.54-3.8-4.51-12.5-.92-19.04-1.56,0,0,.19.09.18.09,0-26.75,0-53.51,0-80.26,0,0-.17.08-.17.08,6.36-.18,14.72,2.04,18.57-1.16,4.56-3.79.89-12.5,1.62-19.03,0,0-.12.16-.12.16,27.51-.19,55.01-.39,82.52-.58l.57.05s.17.55.17.55q-.98,19.93,18.77,19.96c.26,0,.53,0,.79,0l-.12-.12c.02,5.3.14,10.6,0,15.89-.08,3.21.89,4.57,4.42,4.9,16.1,1.55,16.29,1.49,16.32-14.45,0-2.12.07-4.24.11-6.35,0,0-.13.12-.13.12q20.3.01,19.5-20ZM83.29,40.75c-4.81,0-9.65.36-14.42-.1-5.14-.49-6.18,1.53-6.16,6.33.08,13.65-.15,13.9-14.06,13.92-5.04,0-6.39,1.62-6.22,6.44.33,9.61.07,19.24.13,28.86.01,1.77-.71,4.78,1.21,4.98,5.81.6,11.98,1.46,17.48.08,4.25-1.07,2.04-6.64,1.71-9.88-.84-8.07,1.74-10.76,10.05-10.13,10.51.81,11.21.13,10.35-10.26-.7-8.38,2.2-10.95,10.02-9.65,7.56,1.25,11.71-.46,10.87-9.78-.97-10.74-.22-10.81-11.34-10.81-3.21,0-6.41,0-9.62,0Z"/>
      <path class="cls-10" d="M284.01,121.08c0-26.81,0-53.62,0-80.42.53.04,1.07.07,1.6.11,6.02.52,14.01-2.67,17.51,1.44,2.96,3.47,1.06,11.19,1.08,17.03.07,18.44-.19,36.88.16,55.32.1,5.39-1.53,7.01-6.72,6.53-4.5-.41-9.08-.03-13.62,0Z"/>
      <path class="cls-12" d="M122.69,20.22c-27.51.19-55.01.39-82.52.58.11-2.39.3-4.79.31-7.18q.06-13.04,13.49-13.04c20.83,0,41.66.17,62.48-.12,4.92-.07,6.64,1.16,6.17,6.16-.42,4.49.01,9.06.07,13.6Z"/>
      <path class="cls-11" d="M20.28,40.75c0,26.75,0,53.51,0,80.26-2.39-.02-4.78-.05-7.18-.05q-12.97,0-12.97-13.38c0-19.67.21-39.35-.13-59.01-.1-5.82.86-8.82,7.53-7.88,4.17.59,8.49.08,12.74.06Z"/>
      <path class="cls-11" d="M263.62,20.37c-26.61-.11-53.21-.22-79.82-.33.21-6.29-1.95-15.05,1.3-18.19,3.38-3.26,12.01-1.22,18.34-1.25,17.8-.08,35.6.14,53.4-.13,4.93-.08,7.26.85,6.67,6.38-.47,4.45.04,9.01.12,13.52Z"/>
      <path class="cls-7" d="M163.73,40.64c-.04,2.12-.11,4.24-.11,6.35-.03,15.94-.22,16-16.32,14.45-3.53-.34-4.5-1.69-4.42-4.9.13-5.29,0-10.59,0-15.89,6.95,0,13.9,0,20.85-.01Z"/>
      <path class="cls-5" d="M263.14,141.93c.09-.52.2-1.04.26-1.57.67-6.24-2.83-14.55,1.49-18.24,4.48-3.83,12.68-.85,19.24-1.16-.85,6.68,2.99,15.62-1.82,19.51-4.1,3.32-12.61,1.19-19.17,1.47Z"/>
      <path class="cls-6" d="M223.07,182.02c.61-6.7-3.13-15.62,1.77-19.52,4.16-3.31,12.64-1.18,19.2-1.46-.2,4.99-.84,10.02-.46,14.97.4,5.14-1.58,6.36-6.28,6-4.72-.36-9.49-.02-14.24,0Z"/>
      <path class="cls-4" d="M202.21,202.88c.15-5.01.68-10.04.35-15.01-.34-5.06,1.68-6.44,6.37-6.09,4.73.35,9.5.11,14.25.12-.86,6.65,3.03,15.54-1.85,19.42-4.16,3.31-12.59,1.25-19.13,1.56Z"/>
      <path class="cls-5" d="M162.13,242.95c.64-6.71-3.1-15.64,1.78-19.54,4.13-3.31,12.63-1.17,19.2-1.44-.15,1.57-.4,3.15-.43,4.72q-.3,16.12-16.58,16.17c-1.32,0-2.64.06-3.96.09Z"/>
      <path class="cls-10" d="M80.27,181.83c6.8.74,15.86-3.04,19.79,1.63,3.34,3.97,1.03,12.7,1.21,19.33-6.28-.34-14.33,1.56-18.37-1.62-4.39-3.46-.75-11.91-1.67-18.12-.07-.44-.64-.81-.97-1.21Z"/>
      <path class="cls-12" d="M141.94,242.84c6.77,0,13.53-.01,20.3-.02-.03,2.12-.08,4.24-.08,6.35-.01,14.39-2.24,16.11-16.68,13.74-2.97-.49-3.28-1.85-3.28-4.21-.01-5.29-.16-10.58-.26-15.87Z"/>
      <path class="cls-9" d="M284.12,40.78c-1.32,0-2.64,0-3.96,0-18.96,0-19.48-.66-15.77-19.92,6.4.6,14.98-2.9,18.63,1.57,3.14,3.84.94,12.06,1.1,18.35Z"/>
      <path class="cls-3" d="M20.1,120.93c6.54.63,15.24-2.95,19.04,1.56,3.21,3.8.99,12.19,1.17,18.54,0,.27.03.53.05.8-6.36-1.5-14.99,2.63-18.7-1.87-3.17-3.84-1.09-12.02-1.34-18.28-.01-.25-.15-.5-.22-.75Z"/>
      <path class="cls-2" d="M40.26,141.69c.27,0,.53,0,.8,0q19.82-.2,20.01,19.52c-6.54-.07-14.91,2.3-19.12-.86-4.49-3.38-.61-12.25-1.69-18.65Z"/>
      <path class="cls-13" d="M60.95,161.05c.52.1,1.04.28,1.56.3q19.34.85,17.95,20.52c-6.25-.18-14.46,1.96-18.2-1.19-3.94-3.32-.77-11.83-1.29-18.05-.04-.52-.02-1.05-.02-1.58Z"/>
      <path class="cls-14" d="M101.21,202.62c6.6.18,14.87-2.75,19.32,1.15,4.22,3.7.75,12.09,1.49,18.37-.26.01-.53.06-.79.04-6.47-.47-15.04,2.85-18.81-1.34-3.2-3.55-1.01-11.96-1.21-18.21Z"/>
      <path class="cls-9" d="M121.89,221.99c6.37,1.34,15.03-2.84,18.74,2.3,3.12,4.32,1.19,12.3,1.49,18.66-6.67-.84-15.67,2.92-19.42-1.77-3.22-4.04-.76-12.61-.81-19.18Z"/>
      <path class="cls-11" d="M40.3,20.64c-.73,6.53,2.95,15.24-1.62,19.03-3.85,3.2-12.21.98-18.57,1.16.09-.25.21-.49.25-.75,1.04-6.19-2.59-14.71,1.61-18.08,3.94-3.16,12.05-1.12,18.32-1.36Z"/>
      <path class="cls-11" d="M143,40.78c-.26,0-.53,0-.79,0q-19.75-.03-18.77-19.96c6.37.77,14.93-2.92,18.55,1.63,3.11,3.9.88,12.06,1.01,18.33Z"/>
      <path class="cls-11" d="M183.11,20.77q.8,20.01-19.5,20c.5-6.48-2.79-15.05,1.34-18.85,3.47-3.19,11.92-.97,18.16-1.15Z"/>
      <path class="cls-11" d="M243.92,161.16q-.85-19.97,19.35-19.36.5,19.83-19.35,19.36Z"/>
      <path class="cls-11" d="M182.98,222.1c-.01-.26-.03-.53-.04-.79q-.25-19.42,19.4-18.56.73,19.64-19.37,19.35Z"/>
      <path class="cls-1" d="M83.29,40.75c3.21,0,6.41,0,9.62,0,11.12,0,10.37.07,11.34,10.81.84,9.32-3.32,11.03-10.87,9.78-7.83-1.3-10.72,1.27-10.02,9.65.86,10.39.16,11.06-10.35,10.26-8.31-.64-10.89,2.06-10.05,10.13.34,3.24,2.54,8.81-1.71,9.88-5.5,1.38-11.67.53-17.48-.08-1.92-.2-1.2-3.21-1.21-4.98-.06-9.62.2-19.25-.13-28.86-.17-4.81,1.19-6.43,6.22-6.44,13.92-.02,14.14-.27,14.06-13.92-.03-4.8,1.02-6.81,6.16-6.33,4.77.45,9.61.1,14.42.1Z"/>
    </g>
  </g>
</svg>