<?xml version="1.0" encoding="UTF-8"?>
<svg id="Capa_2" xmlns="http://www.w3.org/2000/svg" viewBox="0 0 673.6 673.6">
  <defs>
    <style>
      .cls-1 {
        fill: none;
        stroke-width: 21px;
      }

      .cls-1, .cls-2 {
        stroke: #1d1d1b;
        stroke-miterlimit: 10;
      }

      .cls-2 {
        fill: #fff;
        stroke-width: 25px;
      }
    </style>
  </defs>
  <g id="Capa_1-2" data-name="Capa_1">
    <g>
      <rect class="cls-1" x="10.5" y="10.5" width="652.6" height="652.6"/>
      <path class="cls-2" d="M336.54,604.79c52.46,0,104.91.16,157.37-.07,24.47-.11,40.62-15.51,41.08-39.63.49-25.97,1.25-52.05-.52-77.91-4.01-58.71-33.78-101.17-85.79-127.87-4.51-2.32-12.8-1.61-17.32,1.08-63.09,37.57-125.99,38.56-188.81-.06-6.78-4.17-11.97-5.22-19.29-1.32-45.58,24.24-75.44,60.9-82.91,112.14-4.22,28.99-2.77,58.87-3.06,88.36-.3,29.74,15.42,45.23,44.93,45.29,51.44.1,102.87.03,154.31-.01ZM455.43,215.69c-.3-66.36-53.3-118.81-119.88-118.64-65.64.17-119.16,54.23-118.87,120.09.29,65.64,54.17,118.74,120.33,118.59,66.05-.15,118.73-53.55,118.43-120.04Z"/>
    </g>
  </g>
</svg>