<?xml version="1.0" encoding="UTF-8"?>
<svg id="Capa_2" xmlns="http://www.w3.org/2000/svg" viewBox="0 0 673.6 673.6">
  <defs>
    <style>
      .cls-1 {
        fill: none;
        stroke: #1d1d1b;
        stroke-miterlimit: 10;
        stroke-width: 21px;
      }

      .cls-2 {
        fill: #fff;
      }
    </style>
  </defs>
  <g id="Capa_1-2" data-name="Capa_1">
    <g>
      <path d="M333.93,242.48v-85.42c-4.32-1.94-8.7-3.58-12.78-5.78-24.1-12.99-35.06-42.67-25.38-68.34,9.85-26.12,37.15-41.03,64.37-35.17,26.76,5.76,46.22,31.18,43.83,58.3-2.1,23.75-14.66,40.27-37,48.83-3.86,1.48-4.84,3.3-4.81,7.16.17,24.83.1,49.66.1,74.49,0,1.78,0,3.57,0,5.92,2.53,0,4.48,0,6.43,0,46.66,0,93.32,0,139.99,0,34.9.01,61.31,26.4,61.42,61.39.04,13.83.11,27.67-.06,41.49-.04,3.41.92,5.21,4.14,6.81,32.58,16.13,50.15,42.42,49.98,78.83-.17,36.01-17.88,61.86-49.99,77.84-2.89,1.44-4.2,2.89-4.14,6.31.22,13.99.1,28,.09,41.99-.04,34.6-26.48,61.4-60.97,61.42-109.32.08-218.64.07-327.97,0-34.24-.02-60.71-26.71-60.82-61.01-.05-14.17-.11-28.33.03-42.49.03-3.07-.89-4.62-3.75-6.03-32.16-15.86-50.02-41.63-50.35-77.64-.34-36.42,17.16-62.77,49.61-79.09,3.26-1.64,4.54-3.32,4.54-7.07-.01-16.98-.9-34.1.87-50.92,3.14-29.75,29.06-51.77,59.06-51.82,49.16-.07,98.32-.02,147.48-.02,1.82,0,3.64,0,6.08,0ZM345.16,270.53c-53.83,0-107.66,0-161.5,0-21.87,0-35.27,13.27-35.27,35.14-.03,83.17-.03,166.33,0,249.5,0,22.07,13.44,35.37,35.62,35.37,107.66,0,215.33,0,322.99,0,21.45,0,35.05-13.51,35.06-34.97.04-83.33.03-166.66,0-249.99,0-21.57-13.46-35.03-34.91-35.04-54,0-108,0-162,0ZM320.34,102.62c.05,14.99,12.82,27.74,27.77,27.73,15.29,0,28.14-12.87,27.99-28.03-.15-15.07-12.8-27.68-27.8-27.69-15.32-.02-28.02,12.7-27.96,28ZM120.06,381.72c-18.29,13.79-27.11,30.94-25.77,52.72,1.15,18.66,9.96,33.2,25.77,44.73v-97.45ZM570.42,478.23c15.63-7.32,27.23-30.4,25.73-51.84-1.3-18.58-9.9-33.14-25.73-44.49v96.33Z"/>
      <path class="cls-2" d="M345.16,270.53c54,0,108,0,162,0,21.44,0,34.9,13.46,34.91,35.04.03,83.33.03,166.66,0,249.99,0,21.47-13.61,34.97-35.06,34.97-107.66,0-215.33,0-322.99,0-22.19,0-35.62-13.3-35.62-35.37-.02-83.17-.02-166.33,0-249.5,0-21.87,13.4-35.14,35.27-35.14,53.83,0,107.66,0,161.5,0ZM304.3,392.94c.02-31.15-25.17-56.32-56.19-56.15-30.67.17-55.77,25.62-55.62,56.37.15,30.76,25.3,55.53,56.34,55.49,30.65-.04,55.45-24.95,55.47-55.72ZM392.06,392.58c-.08,31.02,24.69,55.98,55.66,56.08,30.93.1,56.01-24.73,56.19-55.63.17-30.7-24.85-55.93-55.75-56.23-30.63-.29-56.01,24.95-56.09,55.78ZM348.18,486.54c-20.98,0-41.95-.04-62.93.02-7.74.02-12.53,3.57-14.11,10.12-2.44,10.11,3.62,17.92,14.16,17.94,26.64.07,53.27.03,79.91.03,15.65,0,31.3.07,46.95-.06,7.66-.07,12.6-4.68,13.44-12.02,1.07-9.39-4.5-15.95-13.98-16-21.14-.11-42.29-.03-63.43-.03Z"/>
      <path class="cls-2" d="M320.34,102.62c-.05-15.3,12.65-28.02,27.96-28,15,.02,27.65,12.62,27.8,27.69.15,15.16-12.7,28.02-27.99,28.03-14.96,0-27.72-12.74-27.77-27.73Z"/>
      <path class="cls-2" d="M120.06,381.72v97.45c-15.8-11.53-24.62-26.07-25.77-44.73-1.34-21.77,7.48-38.92,25.77-52.72Z"/>
      <path class="cls-2" d="M570.42,478.23v-96.33c15.83,11.34,24.43,25.91,25.73,44.49,1.5,21.44-10.11,44.52-25.73,51.84Z"/>
      <path d="M304.3,392.94c-.02,30.77-24.82,55.68-55.47,55.72-31.04.04-56.19-24.73-56.34-55.49-.15-30.76,24.95-56.2,55.62-56.37,31.02-.18,56.21,25,56.19,56.15ZM276.25,392.72c-.03-15.38-12.64-27.84-28.1-27.79-14.97.05-27.38,12.67-27.49,27.95-.1,15.23,12.71,27.84,28.15,27.7,15.19-.13,27.47-12.6,27.44-27.86Z"/>
      <path d="M392.06,392.58c.08-30.83,25.46-56.07,56.09-55.78,30.9.3,55.92,25.53,55.75,56.23-.17,30.9-25.26,55.74-56.19,55.63-30.97-.1-55.74-25.06-55.66-56.08ZM448.12,420.58c15.17-.09,27.73-12.69,27.64-27.71-.1-15.46-12.78-28.11-28.01-27.93-15.17.18-27.57,12.67-27.6,27.8-.03,15.4,12.57,27.93,27.98,27.84Z"/>
      <path d="M348.18,486.54c21.14,0,42.29-.08,63.43.03,9.48.05,15.05,6.61,13.98,16-.84,7.34-5.78,11.95-13.44,12.02-15.65.13-31.3.06-46.95.06-26.64,0-53.27.04-79.91-.03-10.54-.03-16.59-7.83-14.16-17.94,1.58-6.55,6.38-10.1,14.11-10.12,20.98-.06,41.95-.02,62.93-.02Z"/>
      <path class="cls-2" d="M276.25,392.72c.03,15.26-12.25,27.73-27.44,27.86-15.44.14-28.25-12.47-28.15-27.7.1-15.28,12.51-27.9,27.49-27.95,15.46-.05,28.06,12.41,28.1,27.79Z"/>
      <path class="cls-2" d="M448.12,420.58c-15.41.09-28.01-12.44-27.98-27.84.03-15.13,12.43-27.63,27.6-27.8,15.23-.18,27.92,12.47,28.01,27.93.09,15.03-12.46,27.62-27.64,27.71Z"/>
      <rect class="cls-1" x="10.5" y="10.5" width="652.6" height="652.6"/>
    </g>
  </g>
</svg>