<?xml version="1.0" encoding="UTF-8"?>
<svg id="Capa_2" xmlns="http://www.w3.org/2000/svg" viewBox="0 0 312.59 312.69">
  <defs>
    <style>
      .cls-1 {
        fill: #b03a2d;
      }

      .cls-2 {
        fill: #908f95;
      }

      .cls-3 {
        fill: #ced0d4;
      }

      .cls-4 {
        fill: #e1b435;
      }

      .cls-5 {
        fill: #1d191e;
      }

      .cls-6 {
        fill: #f3ed91;
      }

      .cls-7 {
        fill: #5d5c62;
      }

      .cls-8 {
        fill: #231e2c;
      }

      .cls-9 {
        fill: #8a2827;
      }

      .cls-10 {
        fill: #c6853e;
      }

      .cls-11 {
        fill: #f2cc68;
      }

      .cls-12 {
        fill: #d08a36;
      }

      .cls-13 {
        fill: #050407;
      }

      .cls-14 {
        fill: #c2751f;
      }
    </style>
  </defs>
  <g id="Capa_1-2" data-name="Capa_1">
    <g>
      <path class="cls-8" d="M223.34,67.36c.05.09.06.19.04.29-.44.64-.27,1.37-.27,2.06-.01,5.82-.02,11.64,0,17.46,0,.67-.28,1.42.34,2.01,0,0,.01.02.01.02.01.16.02.32.03.48.72.73,1.65.42,2.48.42,4.91.03,9.82.05,14.73,0,1.56-.02,3.16.36,4.68-.3.03-.18.05-.37.08-.55,0,0,.02-.02.02-.02,0,0,.23.02.23.02l.22-.08c.69-.74.4-1.65.41-2.49.02-5.54.07-11.08-.02-16.62-.03-1.67.32-2.41,2.2-2.38,5.54.11,11.08.11,16.62,0,1.87-.04,2.24.68,2.21,2.36-.09,5.54-.04,11.08-.02,16.62,0,.84-.27,1.75.38,2.51l.2.11.23-.03c6.66.04,13.32.13,19.97.09,1.52,0,2.19.18,2.18,1.99-.08,21.66-.06,43.32-.06,64.98l-.06.06c-4.67,0-9.35.06-14.02-.02-2.75-.05-5.51.32-8.26-.11-.03-7.28-.06-14.55-.09-21.83,0-14.13-.04-28.26.01-42.39,0-1.89-.66-2.49-2.5-2.46-5.63.09-11.27.13-16.9-.02-2.13-.06-2.65.61-2.64,2.69.08,13.89.03,27.78.03,41.68-.15.17-.29.33-.44.5-7.29,0-14.57-.02-21.86-.03-.14-.16-.29-.32-.43-.48,0-13.82-.06-27.63.06-41.45.02-2.35-.69-2.95-2.95-2.9-6.35.13-12.7.03-19.05.02-.66-.91-.5-1.96-.5-2.98,0-5.62-.06-11.23.03-16.85.03-1.97-.67-2.62-2.63-2.59-6.4.1-12.81.04-19.22.05-.07-.14-.15-.28-.23-.41.03-6.41-.04-12.83.13-19.23.06-2.28-.79-2.81-2.88-2.78-6.49.08-12.98,0-19.47-.03-.37-.55-.38-1.1-.33-1.78.44-5.91.22-11.83.2-17.74,0-1.95-.94-2.87-3.14-2.82-6.4.15-12.81.06-19.21.07v-.02c0-6.82.07-13.65,0-20.47-.02-1.55.36-2,1.94-1.98,6.27.09,12.54.08,18.81,0,1.39-.02,1.69.41,1.67,1.73-.07,6.11.1,12.23-.1,18.33-.07,2.1.67,2.6,2.46,2.44.66.64,1.5.4,2.27.4,3.8.02,7.61.05,11.41-.01,1.15-.02,2.38.4,3.46-.39.64,0,1.27,0,1.91,0,0,2.7,0,5.4,0,8.1,0,4.13.01,8.26-.01,12.38,0,.87.08,1.3.87.43.05.31.1.63.16.94-.11.37.16.47.42.57.75.66,1.67.38,2.51.38,5.15.03,10.3.13,15.45-.04,2.34-.08,3.16.48,3.07,2.98-.2,6-.07,12-.07,18,.16,0,.31,0,.47,0v-21.31l.22-.05.22.04c0,7.29.02,14.59.03,21.88.56.88,1.43.41,2.14.41,6.71.08,13.41.1,20.12.14Z"/>
      <path class="cls-8" d="M44.69,91.53c-.21-1.64.24-2.3,2.15-2.25,6.01.16,12.03.14,18.04.02,1.84-.04,2.21.55,2.19,2.28-.05,6.72.06,13.44.12,20.16,0,0,0,.11,0,.11-6.55-.43-13.1-.19-19.65-.22-2.72-.01-3.14.46-3.14,3.19,0,5.3-.03,10.61.02,15.91.01,1.23-.38,2.53.34,3.71,0,.46,0,.93,0,1.39-.59,1.13-.59,2.26,0,3.39,0,5.23,0,10.45.01,15.68-.43,1.19-1.24,1.51-2.51,1.5-6.61-.07-13.22-.03-19.83-.03l-.04-.04c0-13.96.05-27.92-.05-41.88-.02-2.19.34-2.97,2.75-2.88,5.94.21,11.89.09,17.84.04.65,0,1.96.69,1.75-1,0-6.36,0-12.72,0-19.09Z"/>
      <path class="cls-8" d="M112.46,22.51c.96,0,1.92,0,2.88,0,2.3.85,4.69.38,7.02.35,3.21-.05,6.45.55,9.63-.35.48,0,.97,0,1.45,0,.15.12.3.24.46.36.06,7.34.11,14.67.17,22.01-.04,7.3-.09,14.6-.13,21.9-.3.1-.6.3-.9.3-6.86-.1-13.73.53-20.58-.29,0-14.76,0-29.53,0-44.29Z"/>
      <path class="cls-8" d="M22.47,266.93c-.07-.13-.1-.26-.09-.4,0-.21,0-.41,0-.62.03-6.49.06-12.98.09-19.47,6.43,0,12.86.03,19.28-.02,1.47-.01,2.15.32,2.12,1.97-.08,5.71-.07,11.43,0,17.14.02,1.48-.53,1.91-1.95,1.9-5.32-.06-10.63-.04-15.95,0-1.21,0-2.36-.13-3.5-.49Z"/>
      <path class="cls-5" d="M.06,245.43C.04,216.29.03,187.15,0,158.01c0-1.07,0-1.71,1.45-1.67,5.08.13,10.16.09,15.24.12.16.23.31.22.47,0,1.43,0,2.87,0,4.3,0,.3.14.6.27.9.41-.03,1.1-.05,2.2-.08,3.29-.42-.09-.82-.29-.77-.75.2-1.94-.89-2.13-2.47-2.11-5.32.07-10.63.09-15.95,0-1.69-.03-2.15.55-2.15,2.19.04,27.78.05,55.55,0,83.33,0,1.85.64,2.27,2.35,2.24,5.16-.09,10.32-.2,15.47.04,2.44.11,2.73-.98,2.72-2.87-.03-4.84,0-9.68-.02-14.52-.01-1.6.18-3.14.85-4.6.06.13.12.27.17.41-.03,7.33-.05,14.67-.08,22l.02-.02c-7.45-.01-14.9-.03-22.35-.04Z"/>
      <path class="cls-5" d="M22.47,266.93c1.14.36,2.3.5,3.5.49,5.32-.04,10.63-.05,15.95,0,1.42.02,1.97-.42,1.95-1.9-.06-5.71-.08-11.43,0-17.14.02-1.65-.66-1.98-2.12-1.97-6.43.06-12.86.02-19.28.02-.05-.15-.09-.31-.14-.46.03-.17.05-.33.08-.5,0,0-.02.02-.02.02,7.15.02,14.3.03,21.45.05.3.14.6.29.9.43.01,7.31.02,14.62.04,21.93l.04-.04c-.48.06-.97.13-1.45.19-.31,0-.63,0-.94,0-.96-.2-1.92-.21-2.88,0-.31,0-.62,0-.93,0-5.41-.02-10.81-.04-16.22-.06-.13-.08-.28-.13-.43-.14.17-.31.34-.62.51-.92Z"/>
      <path class="cls-2" d="M89.07,111.53c.01-14.09,0-28.19.09-42.28,0-.67-1.07-1.64.29-2.15.06.07.13.14.19.2-.02.87-.07,1.74-.07,2.61-.02,13.87-.03,27.74-.05,41.61-.15.03-.31.03-.46,0Z"/>
      <path class="cls-7" d="M111.51,66.76c0-13.99,0-27.97.04-41.96,0-.74-.61-1.73.46-2.29,0,14.77.01,29.54.02,44.31-.1.01-.2.02-.3.02-.07-.05-.14-.08-.23-.08Z"/>
      <path class="cls-13" d="M112.03,66.82c0-14.77-.01-29.54-.02-44.31.15-.08.3-.07.45,0,0,14.76,0,29.53,0,44.29-.14.03-.28.04-.43.02Z"/>
      <path class="cls-5" d="M178.6,43.41c-.79.88-.87.44-.87-.43.02-4.13.01-8.26.01-12.38,0-2.7,0-5.4,0-8.1.16,0,.33,0,.49,0,.13.13.25.26.38.4,0,6.83,0,13.67,0,20.5Z"/>
      <path class="cls-13" d="M67.19,111.85s0-.11,0-.11c.47-.01.94-.02,1.41-.04.78.59,1.68.31,2.52.32,5.99.04,11.98.04,17.97.06-.64.69-1.48.42-2.24.42-6.55.02-13.11,0-19.66,0,0-.22.01-.43.02-.65Z"/>
      <path class="cls-2" d="M22.41,245.47c-.03.17-.05.33-.08.5-6.64,0-13.29.01-19.93-.04-.77,0-1.75.51-2.34-.49,7.45.01,14.9.03,22.35.04Z"/>
      <path class="cls-2" d="M89.46,67.1c2.97-.63,5.98-.19,8.98-.26,4.36-.1,8.71-.06,13.07-.08.09,0,.16.02.23.07-.06.15-.12.29-.18.44-7.3,0-14.6.02-21.9.03-.07-.07-.13-.14-.19-.2Z"/>
      <path class="cls-7" d="M89.08,112.08c-5.99-.02-11.98-.02-17.97-.06-.84,0-1.74.27-2.52-.32,6.83-.06,13.66-.12,20.48-.18.15.03.31.03.46,0-.02.17-.03.34-.05.51-.14-.02-.28,0-.41.05Z"/>
      <path class="cls-3" d="M44.69,91.53c0,6.36,0,12.72,0,19.09-.75-3.52-.28-7.08-.3-10.61-.01-2.82-.46-5.67.3-8.47Z"/>
      <path class="cls-5" d="M175.84,22.5c-1.07.79-2.3.37-3.46.39-3.8.06-7.61.03-11.41.01-.77,0-1.6.24-2.27-.4,5.71,0,11.42,0,17.14,0Z"/>
      <path class="cls-13" d="M131.99,22.51c-3.18.9-6.42.3-9.63.35-2.33.04-4.72.5-7.02-.35,5.55,0,11.1,0,16.65,0Z"/>
      <path class="cls-8" d="M22.35,156.85c-.3-.14-.6-.27-.9-.41.31-.04.62-.07.92-.11,0,0,.04.04.04.04-.02.16-.04.32-.06.48Z"/>
      <path class="cls-8" d="M17.16,156.45c-.16.22-.31.23-.47,0,.16,0,.31,0,.47,0Z"/>
      <path class="cls-5" d="M22.38,265.91c0,.2,0,.41,0,.62-.12-.13-.24-.26-.36-.39l.36-.22Z"/>
      <path class="cls-13" d="M133.9,22.88c-.15-.12-.3-.24-.46-.36.15-.06.31-.08.47-.07,0,0,0,.02,0,.02.01.14,0,.28-.02.41Z"/>
      <path class="cls-8" d="M178.61,22.91c-.13-.13-.25-.26-.38-.4.14-.07.28-.08.43-.03.05.15.03.3-.05.43Z"/>
      <path class="cls-8" d="M290.25,156.32c.16,0,.3.05.44.13.32,1.28,1.37.84,2.16.85,5.55.03,11.11.07,16.66-.01,1.65-.03,2.18.48,2.18,2.16-.04,27.77-.05,55.54,0,83.31,0,1.79-.54,2.31-2.31,2.28-5.23-.1-10.47-.05-15.71-.03-1.35,0-2.72.2-3.34-1.44,0-.8,0-1.61,0-2.41.52-.77.52-1.54,0-2.32-.06-5.12-.11-10.23-.17-15.35,0-7.44,0-14.89,0-22.33.01-14.93.03-29.86.04-44.79,0,0,.06-.06.06-.06Z"/>
      <path class="cls-5" d="M290.34,243.57c.61,1.64,1.98,1.45,3.34,1.44,5.24-.03,10.47-.08,15.71.03,1.76.03,2.31-.49,2.31-2.28-.05-27.77-.05-55.54,0-83.31,0-1.68-.52-2.19-2.18-2.16-5.55.08-11.11.05-16.66.01-.78,0-1.84.44-2.16-.85,6.83,0,13.66,0,20.5,0,.16.23.31.22.46,0,.29.05.78.04.82.16.13.44.13.93.13,1.4-.01,29.14-.03,58.29-.04,87.43-7.45.01-14.9.02-22.35.03l.02.02c.04-.64.07-1.28.11-1.93Z"/>
      <path class="cls-5" d="M290.31,246.92c0,6.51,0,13.01,0,19.52,0,.33.01.65.02.98-.04.16-.08.31-.12.47-5.56.05-11.13.11-16.69.16-.47,0-.94,0-1.41,0-1.43-.06-2.86-.12-4.3-.19,0,0,.01.04.01.04,0-7.31,0-14.61,0-21.92.14-.08.23-.2.26-.36.23-.03.45-.07.68-.1,7.15.15,14.3.21,21.45-.03l-.02-.02c.02.16.05.33.07.49l.04.96ZM279.49,246.44c-2.86,0-5.72.08-8.57-.03-1.66-.07-2.21.48-2.18,2.16.09,5.32.18,10.64-.04,15.96-.09,2.26.82,2.87,2.72,2.87,5.56,0,11.11-.02,16.67.02,1.25,0,1.66-.49,1.66-1.7-.03-5.88-.04-11.75,0-17.63,0-1.24-.46-1.69-1.68-1.67-2.86.05-5.72.02-8.57.01Z"/>
      <path class="cls-13" d="M267.72,89.17c-.64-.76-.37-1.67-.38-2.51-.02-5.54-.07-11.08.02-16.62.03-1.68-.34-2.4-2.21-2.36-5.54.11-11.08.11-16.62,0-1.88-.04-2.23.7-2.2,2.38.09,5.54.04,11.08.02,16.62,0,.84.28,1.76-.41,2.49-.08-.19-.16-.37-.24-.56-.02-.27-.04-.53-.05-.8.08-.62.23-1.24.23-1.86,0-6.25,0-12.5-.01-18.74.13-.08.27-.13.43-.13,7.17.43,14.34.1,21.51.17,0,0,0,0,0,0-.03,7.31-.05,14.62-.08,21.92Z"/>
      <path class="cls-13" d="M200.62,44.93v21.31c-.16,0-.31,0-.47,0,0-6-.14-12.01.07-18,.08-2.51-.73-3.06-3.07-2.98-5.14.17-10.3.06-15.45.04-.84,0-1.76.28-2.51-.38,1.43-.06,2.86-.12,4.3-.18,5.07,0,10.15,0,15.22,0,.17,0,.34,0,.51,0,.31,0,.62,0,.93,0,.16.07.32.14.48.2Z"/>
      <path class="cls-3" d="M267.81,267.86c1.43.06,2.86.12,4.3.19-1.08.83-2.83-.34-3.51.76-.78,1.25-.26,2.93-.27,4.41-.04,5.69-.03,11.38-.04,17.07-.16,0-.32,0-.48,0,0-7.48,0-14.95,0-22.43Z"/>
      <path class="cls-2" d="M223.34,67.36c-6.71-.04-13.41-.06-20.12-.14-.71,0-1.58.46-2.14-.41,6.63,0,13.26-.01,19.89.03.79,0,1.76-.45,2.36.52Z"/>
      <path class="cls-2" d="M290.27,245.96c-.02-.16-.05-.33-.07-.49,7.45-.01,14.9-.02,22.35-.03-.6,1-1.58.48-2.35.49-6.5.07-12.99.07-19.49.09-.14-.04-.29-.06-.44-.05Z"/>
      <path class="cls-2" d="M223.51,89.68c-.01-.16-.02-.32-.03-.48,7.33.02,14.67.03,22,.05-.03.18-.05.37-.08.55-7.29-.36-14.59-.14-21.89-.12Z"/>
      <path class="cls-2" d="M267.72,89.17c.03-7.31.05-14.62.08-21.92.67.46.36,1.15.36,1.73.02,6.76,0,13.52,0,20.28,0,0-.23.03-.23.03l-.2-.11Z"/>
      <path class="cls-2" d="M223.46,89.17c-.62-.58-.33-1.33-.34-2.01-.02-5.82-.02-11.64,0-17.46,0-.69-.17-1.42.27-2.06.3,7.17.15,14.35.08,21.53Z"/>
      <path class="cls-2" d="M267.8,67.25c-7.17-.07-14.34.26-21.51-.17,5.25-.59,10.52-.18,15.78-.22,1.9-.02,3.88-.53,5.73.39Z"/>
      <path class="cls-2" d="M245.87,67.21c0,6.25.02,12.5.01,18.74,0,.62-.15,1.24-.23,1.86-.53-5.5-.08-11.01-.24-16.51-.03-1.17.21-2.36-.18-3.51-.22-.65.26-.57.64-.58Z"/>
      <path class="cls-3" d="M273.52,268.05c5.56-.05,11.13-.11,16.69-.16-.27.5-.76.49-1.23.49-4.87,0-9.74,0-14.6-.02-.29,0-.57-.2-.86-.31Z"/>
      <path class="cls-3" d="M183.48,44.73c-1.43.06-2.86.12-4.3.18-.26-.1-.53-.2-.42-.57,1.57.21,3.2-.36,4.72.39Z"/>
      <path class="cls-3" d="M200.62,44.93c-.16-.07-.32-.14-.48-.2.41-.4.73-.43.92.2,0,0-.22-.04-.22-.04l-.22.05Z"/>
      <path class="cls-3" d="M290.33,267.42c0-.33-.01-.65-.02-.98.37.32.42.65.02.98Z"/>
      <path class="cls-3" d="M290.27,245.96c.15,0,.3.01.44.05-.13.3-.27.6-.4.9l-.04-.96Z"/>
      <path class="cls-2" d="M245.7,88.61c.08.19.16.37.24.56,0,0-.22.08-.22.08,0,0-.23-.02-.23-.02.07-.21.14-.41.21-.62Z"/>
      <path class="cls-8" d="M311.65,156.44c-.15.22-.3.24-.46,0,.15,0,.31,0,.46,0Z"/>
      <path class="cls-3" d="M199.21,44.73c-.17,0-.34,0-.51,0,.17-.26.34-.25.51,0Z"/>
      <path class="cls-6" d="M89.35,312.53c-.47-5.83-.08-11.68-.2-17.51-.03-1.34-.03-2.69-.04-4.03.03-.2.06-.39.1-.59.04-6.88.03-13.76.14-20.64.03-1.57-.6-1.78-1.95-1.78-6.88.02-13.75-.06-20.63-.11,0-.15-.02-.3-.02-.45.13-.93.38-1.86.38-2.79.02-6.05,0-12.1-.02-18.16.03-.18.07-.35.1-.53,6.43-.02,12.86-.14,19.29,0,2.27.05,2.78-.7,2.73-2.83-.13-5.79.04-11.59-.09-17.39-.04-1.82.68-2.55,2.27-2.45,6.02.35,12.04.38,18.05-.15,1.69-.15,2.18.5,2.15,2.16-.08,6.03.02,12.07-.06,18.1-.02,1.79.43,2.57,2.39,2.54,5.95-.1,11.91-.09,17.86,0,1.64.02,2.19-.45,2.18-2.14-.07-14.21-.06-28.42-.07-42.64,6.66,0,13.33.06,19.99-.07,2.09-.04,2.49.72,2.46,2.61-.11,5.79-.02,11.59-.06,17.38,0,1.24.08,2.06,1.72,2.12,5.85.23,11.7.62,17.55.02,3.1-.32,3.13-.2,3.13,2.93,0,13.17.04,26.35-.02,39.52,0,1.74.39,2.35,2.23,2.32,5.95-.11,11.9-.13,17.85.01,2.01.05,2.37-.72,2.34-2.49-.09-5.71.02-11.43-.07-17.14-.03-1.75.31-2.55,2.33-2.5,5.95.13,11.9.11,17.85,0,1.8-.03,2.3.55,2.28,2.31-.07,6.58.01,13.17.04,19.76-.08.14-.08.29,0,.43-.29,7.31-.3,14.62,0,21.93-44.05,0-88.1-.01-132.16,0-.62,0-1.43-.42-1.89.45-.05,7.27-.09,14.53-.14,21.8Z"/>
      <path class="cls-5" d="M222.55,312.61c-.63.03-1.26.08-1.9.08-42.9,0-85.79,0-128.69,0-.63,0-1.26-.05-1.9-.08,0-.3,0-.59,0-.89,1.25.42,2.51-.02,3.76-.02,41.98.02,83.95.02,125.93.02.95,0,1.91-.05,2.77.47,0,.14,0,.28.01.42Z"/>
      <path class="cls-13" d="M90.07,311.73c0,.3,0,.59,0,.89-.24-.03-.47-.05-.71-.08.05-7.27.09-14.53.14-21.8.08-.02.16-.04.23-.04,43.73,0,87.47,0,131.2-.06,1.75,0,2.09.63,2.08,2.21-.07,6.59-.02,13.18-.01,19.77l-.22.08-.22-.07c0-.14,0-.28-.01-.42,0-6.27-.04-12.53.04-18.8.02-1.63-.44-2.3-2.14-2.19-2.05.13-4.12.03-6.19.03-40.45,0-80.91.02-121.36-.05-2.34,0-2.92.69-2.86,2.94.15,5.87.05,11.74.05,17.61Z"/>
      <path class="cls-5" d="M66.76,267.86c6.88.04,13.75.12,20.63.11,1.35,0,1.98.21,1.95,1.78-.11,6.88-.11,13.76-.14,20.64-.51,0-1.02,0-1.53,0-.47,0-.94,0-1.41,0-.33,0-.65,0-.98,0-13.02,0-26.03,0-39.05,0-.48-.03-.96-.07-1.44-.1h0c0-7.47.01-14.95.02-22.42,0,0-.04.04-.04.04,7.33-.01,14.66-.03,21.98-.04ZM66.96,289.8c6.5,0,13-.04,19.5.03,1.61.02,2.23-.42,2.21-2.13-.09-5.55-.08-11.1,0-16.65.02-1.57-.33-2.25-2.09-2.24-13.08.06-26.16.05-39.24,0-1.51,0-2.1.41-2.08,2.01.08,5.63.09,11.26,0,16.89-.03,1.73.62,2.14,2.22,2.12,6.5-.07,13-.03,19.5-.03Z"/>
      <path class="cls-13" d="M223.53,290.28c-.31-7.31-.3-14.62,0-21.93.15-.09.31-.18.46-.27,0,0-.02-.22-.02-.22.65.08,1.29.16,1.94.24.14,0,.29,0,.43,0,.95-.04,1.89-.1,2.84-.1,12.89-.03,25.78-.06,38.66-.09,0,0-.01-.04-.01-.04,0,7.48,0,14.95,0,22.43h0c-.17.04-.33.08-.5.11-13.02,0-26.03-.02-39.05-.03-.8,0-1.6,0-2.41,0-.31,0-.62,0-.93,0l-1.44-.13.03.03ZM245.67,289.8c6.5,0,13.01-.04,19.51.03,1.63.02,2.22-.46,2.19-2.15-.09-5.55-.08-11.1,0-16.65.02-1.58-.36-2.24-2.1-2.23-13.08.06-26.17.06-39.25,0-1.79,0-2.08.74-2.06,2.27.06,5.47.11,10.95-.02,16.42-.05,1.99.7,2.37,2.48,2.35,6.42-.08,12.85-.03,19.27-.03Z"/>
      <path class="cls-7" d="M222.99,312.61c0-6.59-.05-13.18.01-19.77.02-1.58-.32-2.21-2.08-2.21-43.73.05-87.47.05-131.2.06-.08,0-.16.03-.23.04.45-.87,1.26-.45,1.89-.45,44.05-.02,88.1-.01,132.16,0,0,0-.03-.03-.03-.03,0,.17,0,.34,0,.51-.02,6.58-.03,13.16-.1,19.74,0,.69.54,1.58-.43,2.11Z"/>
      <path class="cls-3" d="M44.82,267.86c0,7.47-.01,14.95-.02,22.42-.82-.69-.44-1.63-.44-2.45-.04-5.78-.03-11.57-.01-17.35,0-.97.08-1.91-.98-2.43.48-.06.97-.13,1.45-.19Z"/>
      <path class="cls-3" d="M22.39,267.99c5.41.02,10.81.04,16.22.06-5.41.51-10.82.64-16.22-.06Z"/>
      <path class="cls-3" d="M39.55,268.05c.96-.2,1.92-.19,2.88,0-.96.51-1.92.51-2.88,0Z"/>
      <path class="cls-3" d="M225.87,290.38c.8,0,1.6,0,2.41,0-.8.53-1.6.54-2.41,0Z"/>
      <path class="cls-3" d="M44.8,290.28c.48.03.96.07,1.44.1-.51.4-1.01.59-1.44-.1Z"/>
      <path class="cls-3" d="M87.67,290.39c.51,0,1.02,0,1.53,0-.03.2-.06.39-.09.59-.48-.2-.95-.4-1.43-.59Z"/>
      <path class="cls-3" d="M223.51,290.76c0-.17,0-.34,0-.51.48.04.96.09,1.44.13-.39.46-.94.31-1.43.38Z"/>
      <path class="cls-3" d="M85.29,290.38c.33,0,.65,0,.98,0-.33.39-.65.39-.98,0Z"/>
      <path class="cls-3" d="M267.32,290.4l.5-.11c-.09.36-.25.45-.5.11Z"/>
      <path class="cls-1" d="M223.1,133.9c.14.16.29.32.43.48.09.54.3,1.09.25,1.62-.67,6.79-.16,13.6-.26,20.39l-.15,1.41s-.14.11-.13.14c.03.12.1.23.15.34,0,6.34,0,12.69,0,19.03-.05.05-.16.12-.15.15.03.13.1.24.16.36,0,.31,0,.63,0,.94-7.42-.02-14.85-.04-22.27-.06-.01-14.92-.02-29.83-.04-44.75,7.33-.02,14.67-.05,22-.07Z"/>
      <path class="cls-9" d="M290.19,156.37c-.01,14.93-.03,29.86-.04,44.79-7.4-.01-14.8-.02-22.21-.04-.04-7.46-.08-14.92-.12-22.39.03-7.5.06-15,.09-22.49,2.75.43,5.51.06,8.26.11,4.67.08,9.34.02,14.02.02Z"/>
      <path class="cls-1" d="M267.92,156.25c-.03,7.5-.06,15-.09,22.49-7.42,0-14.85.01-22.27.02,0-.48,0-.96,0-1.44.65-6.4.34-12.8.15-19.21-.11-.58-.22-1.16-.33-1.73,0-7.32,0-14.65.01-21.97.15-.17.29-.33.44-.5,6.33.02,12.66.04,19,.05,1.03,0,2.06-.08,3.01.45.03,7.28.06,14.55.09,21.83Z"/>
      <path class="cls-9" d="M267.83,134.42c-.95-.54-1.98-.45-3.01-.45-6.33-.01-12.66-.03-19-.05,0-13.89.06-27.79-.03-41.68-.01-2.08.51-2.74,2.64-2.69,5.63.15,11.27.11,16.9.02,1.84-.03,2.51.57,2.5,2.46-.05,14.13-.02,28.26-.01,42.39Z"/>
      <path class="cls-9" d="M223.1,133.9c-7.33.02-14.67.05-22,.07-.02-5.72-.03-11.45-.05-17.17,0-9.03-.01-18.06-.02-27.09,0,0,.13-.14.13-.14,6.35.01,12.7.12,19.05-.02,2.26-.05,2.97.55,2.95,2.9-.11,13.81-.06,27.63-.06,41.45Z"/>
      <path class="cls-9" d="M133.9,22.88c.02-.14.03-.28.02-.41,6.4,0,12.81.08,19.21-.07,2.2-.05,3.13.87,3.14,2.82.02,5.92.24,11.84-.2,17.74-.05.68-.05,1.23.33,1.78l-.14.15c-7.39,0-14.79,0-22.18,0-.06-7.34-.11-14.67-.17-22.01Z"/>
      <path class="cls-9" d="M156.39,44.74c6.49.02,12.98.12,19.47.03,2.1-.03,2.94.5,2.88,2.78-.17,6.41-.1,12.82-.13,19.23-.93.08-1.9-.24-2.79.28-5.09,0-10.18.02-15.26.02-.61-.45-1.23-.45-1.85,0-.33,0-.66,0-.99,0-.16-.08-.31-.15-.47-.23h-.93c-.03-7.33-.05-14.65-.08-21.97l.14-.15Z"/>
      <path class="cls-9" d="M178.85,67.2c6.41,0,12.81.05,19.22-.05,1.95-.03,2.66.62,2.63,2.59-.09,5.61-.04,11.23-.03,16.85,0,1.02-.17,2.07.5,2.98,0,0-.13.14-.13.14-7.41-.32-14.85.31-22.25-.53-.05-7.31-.1-14.63-.14-21.94l.22-.03Z"/>
      <path class="cls-9" d="M245.39,134.41c0,7.32,0,14.65-.01,21.97-7.28,0-14.56,0-21.85,0,.09-6.8-.42-13.6.26-20.39.05-.53-.16-1.08-.25-1.62,7.29,0,14.57.02,21.86.03Z"/>
      <path class="cls-13" d="M223.51,89.68c7.3-.02,14.59-.25,21.89.12-1.52.66-3.12.28-4.68.3-4.91.06-9.82.03-14.73,0-.84,0-1.76.31-2.48-.42Z"/>
      <path class="cls-1" d="M175.83,67.07c.89-.52,1.86-.2,2.79-.28.09.13.17.27.23.41,0,0-.22.03-.22.03-.93-.05-1.87-.11-2.8-.16Z"/>
      <path class="cls-9" d="M67.19,111.85c0,.22-.01.43-.02.65-.07,7.16-.14,14.32-.21,21.48-6.56,0-13.13,0-19.69-.03-.88,0-1.74.04-2.52.49-.72-1.18-.33-2.48-.34-3.71-.05-5.3-.03-10.61-.02-15.91,0-2.73.42-3.21,3.14-3.19,6.55.03,13.11-.21,19.65.22Z"/>
      <path class="cls-9" d="M22.35,156.85c.02-.16.04-.32.06-.48,6.61,0,13.22-.05,19.83.03,1.28.01,2.08-.31,2.51-1.5.03.49.06.98.09,1.47-.01,7.13-.02,14.26-.04,21.39-.04.3-.08.6-.12.89-.12.06-.24.1-.37.15-7.29-.01-14.58-.02-21.87-.03-.06-6.21-.12-12.41-.18-18.62.03-1.1.05-2.2.08-3.29Z"/>
      <path class="cls-1" d="M44.85,156.37c-.03-.49-.06-.98-.09-1.47,0-5.23,0-10.45-.01-15.68,0-1.13,0-2.26,0-3.39,0-.46,0-.93,0-1.39.79-.45,1.64-.49,2.52-.49,6.56.02,13.13.02,19.69.03.03,7.29.05,14.58.08,21.88-.09.15-.19.3-.28.46-7.16.03-14.31.06-21.47.1-.15-.03-.29-.05-.44-.04Z"/>
      <path class="cls-9" d="M44.75,135.83c0,1.13,0,2.26,0,3.39-.59-1.13-.59-2.26,0-3.39Z"/>
      <path class="cls-1" d="M156.25,44.89c.03,7.32.05,14.64.08,21.96-.01,7.43-.03,14.86-.04,22.29-1.2.41-2.44.49-3.71.48-6.21-.01-12.42.03-18.63.05,0-7.63-.01-15.25-.02-22.88.04-7.3.09-14.6.13-21.9,7.4,0,14.79,0,22.18,0Z"/>
      <path class="cls-9" d="M133.93,66.79c0,7.63.01,15.25.02,22.88-.02,7.3-.04,14.61-.06,21.91-7.3,0-14.59-.02-21.89-.02-.28-1.1.35-2.33-.47-3.35,0-13.02,0-26.04,0-39.06,0-.48.02-.95.03-1.43.04-.15.04-.3,0-.44.06-.15.12-.29.18-.44.1,0,.2,0,.3-.01.14.02.29.02.43-.02,6.85.82,13.72.19,20.58.29.3,0,.6-.19.9-.3Z"/>
      <path class="cls-8" d="M22.28,160.15c.06,6.21.12,12.41.18,18.62-.06.64-.12,1.28-.18,1.93-1.12.74-1.9,1.7-1.72,3.13.13.97.88,1.15,1.71,1.12,0,12.72.01,25.43.02,38.15-.67,1.46-.86,3-.85,4.6.03,4.84-.01,9.68.02,14.52.01,1.89-.28,2.98-2.72,2.87-5.15-.24-10.31-.13-15.47-.04-1.71.03-2.36-.38-2.35-2.24.05-27.78.05-55.55,0-83.33,0-1.64.47-2.22,2.15-2.19,5.31.09,10.63.08,15.95,0,1.58-.02,2.67.17,2.47,2.11-.05.46.36.66.77.75Z"/>
      <path class="cls-1" d="M22.29,223.08c0-12.72-.01-25.43-.02-38.15,0-1.41,0-2.83,0-4.24.06-.64.12-1.28.18-1.93,7.29.01,14.58.02,21.87.03.02,14.78.05,29.56.07,44.34-.05.11-.08.23-.09.36-7.14,0-14.28.02-21.42.03-.14-.02-.28-.03-.42-.04-.05-.14-.11-.28-.17-.41Z"/>
      <path class="cls-10" d="M22.46,223.5c.14,0,.28.02.42.04,0,6.35.05,12.7-.04,19.05-.03,1.82.42,2.51,2.38,2.46,5.39-.13,10.79-.06,16.19-.03.82,0,1.77-.35,2.43.52-7.15-.02-14.3-.03-21.45-.05.03-7.33.05-14.67.08-22Z"/>
      <path class="cls-14" d="M43.84,245.54c-.66-.87-1.61-.52-2.43-.52-5.4-.03-10.8-.1-16.19.03-1.96.05-2.4-.64-2.38-2.46.09-6.35.04-12.7.04-19.05,7.14,0,14.28-.02,21.43-.03.51,2.16.5,4.35.49,6.55-.01,5.17.03,10.33.05,15.5,0,.14.04.28.1.4l-.2.02c-.3-.14-.6-.29-.9-.43Z"/>
      <path class="cls-11" d="M66.76,267.86c-7.33.01-14.66.03-21.98.04-.01-7.31-.02-14.62-.04-21.93,0,0,.2-.02.2-.02.11,0,.22-.02.33-.05l.05.04c-.01,6.4.04,12.81-.07,19.21-.03,1.78.5,2.3,2.28,2.28,6.4-.09,12.81-.03,19.21-.02,0,.15.01.3.02.45Z"/>
      <path class="cls-13" d="M111.56,67.27c.04.15.04.29,0,.44-6.33,0-12.67.07-19-.05-1.98-.04-2.55.55-2.53,2.53.08,13.06.05,26.13.02,39.19,0,.89.41,1.93-.56,2.64.02-.17.03-.34.05-.51.01-13.87.03-27.74.05-41.61,0-.87.05-1.74.07-2.61,7.3,0,14.6-.02,21.9-.03Z"/>
      <path class="cls-8" d="M89.49,112.03c.97-.71.56-1.75.56-2.64.03-13.06.06-26.13-.02-39.19-.01-1.98.56-2.57,2.53-2.53,6.33.12,12.67.04,19,.05,0,.48-.02.95-.03,1.43-.74.61-.48,1.46-.48,2.22-.01,11.54-.01,23.09,0,34.63,0,.75-.27,1.61.48,2.21.82,1.03.19,2.25.47,3.35-.47.89-.37,1.85-.37,2.79,0,5.78-.08,11.56.04,17.34.04,1.93-.64,2.42-2.46,2.39-5.86-.1-11.72.02-17.58-.09-1.88-.03-2.46.58-2.44,2.45.07,6.65-.01,13.3-.04,19.95-7.33,0-14.66,0-21.99-.01,0,0,.05-.03.05-.03-.06-.16-.11-.33-.17-.49-.03-7.29-.05-14.58-.08-21.88.07-7.16.14-14.32.21-21.48,6.55,0,13.11.01,19.66,0,.76,0,1.6.27,2.24-.42.13-.06.27-.08.41-.05Z"/>
      <path class="cls-1" d="M267.95,201.13c7.4.01,14.8.02,22.2.04,0,7.44,0,14.89,0,22.33-.14,0-.29.02-.43.03-.74-.69-1.65-.41-2.49-.41-5.69-.03-11.38-.04-17.06,0-1.52.01-2.38-.35-2.36-2.1.09-6.63.09-13.27.13-19.9Z"/>
      <path class="cls-10" d="M289.73,223.53c.14-.02.29-.03.43-.03.06,5.11.11,10.23.17,15.35,0,.77,0,1.54,0,2.32,0,.8,0,1.61,0,2.41-.04.64-.07,1.28-.11,1.93-7.15.24-14.3.18-21.45.03.67-.85,1.61-.5,2.44-.5,5.32-.03,10.64-.13,15.95.04,2.19.07,2.65-.69,2.61-2.72-.12-6.27-.05-12.54-.05-18.81Z"/>
      <path class="cls-5" d="M290.33,241.16c0-.77,0-1.54,0-2.32.52.77.52,1.54,0,2.32Z"/>
      <path class="cls-4" d="M223.52,267.92c-.03-6.59-.11-13.17-.04-19.76.02-1.76-.49-2.34-2.28-2.31-5.95.1-11.9.12-17.85,0-2.01-.04-2.35.75-2.33,2.5.09,5.71-.02,11.43.07,17.14.03,1.77-.33,2.53-2.34,2.49-5.95-.14-11.9-.12-17.85-.01-1.84.03-2.24-.58-2.23-2.32.06-13.17.03-26.35.02-39.52,0-3.12-.03-3.24-3.13-2.93-5.86.6-11.7.21-17.55-.02-1.64-.06-1.72-.88-1.72-2.12.03-5.79-.05-11.59.06-17.38.04-1.89-.37-2.65-2.46-2.61-6.66.14-13.33.07-19.99.07,0,0,.03.03.03.03,0-7.48,0-14.97-.01-22.45,0-7.46,0-14.91-.01-22.37.02-7.45.04-14.9.06-22.35h0c7.44-.01,14.89-.03,22.33-.04,0,7.46,0,14.92,0,22.38,0,6.67.05,13.34-.05,20.01-.03,1.85.46,2.47,2.38,2.44,6.67-.11,13.34-.05,20.01-.05,0,0,.17-.04.17-.04-.04,6.57-.01,13.15-.15,19.72-.04,2.06.62,2.78,2.71,2.75,6.57-.1,13.15-.03,19.73-.03h0c0,6.58.05,13.17-.04,19.76-.03,1.93.53,2.7,2.56,2.66,5.79-.1,11.58-.09,17.37,0,1.82.02,2.55-.54,2.52-2.45-.1-6.66-.06-13.33-.08-20,0,0,.02-.02.02-.02,7.33,0,14.66,0,21.99,0,.45,2.26.41,4.54.4,6.82-.04,5.19.14,10.39-.3,15.57-.03,6.81-.04,13.63-.12,20.44-.02,1.82,1,2.06,2.45,2.03,6.64-.17,13.29.33,19.91-.46.09.07.2.11.32.12-.03.16-.12.28-.26.36-.84.68-.48,1.62-.48,2.44-.03,5.47-.12,10.94.04,16.4.06,2.15-.64,2.64-2.69,2.63-12.75-.09-25.51-.05-38.26-.03-.83,0-1.76-.32-2.47.44,0,0,.02.22.02.22-.15-.05-.31-.11-.47-.16Z"/>
      <path class="cls-14" d="M245.54,223.5c.44-5.18.27-10.38.3-15.57.02-2.28.06-4.57-.4-6.82,0-2.92-.02-5.83-.02-8.75-.01-4.54-.03-9.09-.04-13.63l.18.04c7.42,0,14.84-.01,22.27-.02.04,7.46.08,14.92.12,22.39-.04,6.63-.04,13.27-.13,19.9-.02,1.74.84,2.11,2.36,2.1,5.69-.05,11.37-.03,17.06,0,.84,0,1.75-.28,2.49.41,0,6.27-.08,12.54.05,18.81.04,2.03-.43,2.78-2.61,2.72-5.31-.16-10.63-.07-15.95-.04-.83,0-1.77-.35-2.44.5-.23.03-.45.07-.68.1-.12-.01-.22-.05-.32-.12.01-6.58-.04-13.16.08-19.74.03-1.84-.62-2.26-2.34-2.25-6.66.07-13.32,0-19.98-.02Z"/>
      <path class="cls-8" d="M279.49,246.44c2.86,0,5.72.04,8.57-.02,1.22-.02,1.69.43,1.68,1.67-.04,5.88-.04,11.75,0,17.63,0,1.21-.41,1.7-1.66,1.7-5.56-.04-11.11-.01-16.67-.02-1.9,0-2.81-.61-2.72-2.87.22-5.31.13-10.64.04-15.96-.03-1.68.52-2.23,2.18-2.16,2.85.11,5.71.03,8.57.03Z"/>
      <path class="cls-11" d="M223.96,267.86c.71-.76,1.64-.44,2.47-.44,12.75-.02,25.51-.06,38.26.03,2.05.01,2.75-.47,2.69-2.63-.16-5.46-.07-10.93-.04-16.4,0-.82-.36-1.77.48-2.44,0,7.31,0,14.61,0,21.92-12.89.03-25.78.05-38.66.09-.95,0-1.89.07-2.84.1-.14-.11-.29-.11-.43,0-.65-.08-1.29-.16-1.94-.24Z"/>
      <path class="cls-4" d="M133.89,201.15c.01,14.21,0,28.42.07,42.64,0,1.69-.54,2.17-2.18,2.14-5.95-.08-11.91-.1-17.86,0-1.96.03-2.41-.74-2.39-2.54.08-6.03-.02-12.07.06-18.1.02-1.66-.47-2.31-2.15-2.16-6.01.53-12.03.51-18.05.15-1.59-.09-2.31.64-2.27,2.45.13,5.79-.04,11.59.09,17.39.05,2.12-.46,2.88-2.73,2.83-6.43-.14-12.86-.02-19.29,0-.16,0-.31,0-.47.02,0,0-.05-.06-.05-.06.61-.84.5-1.81.5-2.75,0-5.08,0-10.16,0-15.24,0-5.13-.46-5.45-5.57-4.78-5.43.72-10.88.67-16.32-.07,0-14.75-.01-29.5-.02-44.26,7.29,0,14.59-.02,21.88-.02h0c0,6.74.03,13.49-.02,20.23-.01,1.44.25,2.17,1.94,2.15,6.82-.1,13.64-.08,20.47-.1,6.81.02,13.63.05,20.44.07.55,0,1.14.08,1.44-.56.05-6.96.1-13.93.16-20.89.57.79.32,1.69.33,2.54.02,5.55.08,11.11-.03,16.66-.04,1.8.56,2.3,2.31,2.28,6.58-.07,13.16,0,19.74,0,0,0-.03-.03-.03-.03Z"/>
      <path class="cls-4" d="M66.74,267.42c-6.4,0-12.81-.07-19.21.02-1.77.03-2.31-.5-2.28-2.28.11-6.4.06-12.81.07-19.21,7.12-.02,14.24-.03,21.36-.05,0,0,.05.06.05.06.12.17.25.34.37.51.01,6.05.04,12.1.02,18.16,0,.93-.25,1.86-.38,2.79Z"/>
      <path class="cls-11" d="M67.1,246.48c-.12-.17-.25-.34-.37-.51.16-.01.31-.02.47-.02-.03.18-.07.35-.1.53Z"/>
      <path class="cls-5" d="M223.52,267.92c.16.05.31.11.47.16-.15.09-.31.18-.46.27-.08-.14-.08-.29,0-.43Z"/>
      <path class="cls-8" d="M90.07,311.73c0-5.87.1-11.74-.05-17.61-.06-2.25.52-2.94,2.86-2.94,40.45.07,80.91.05,121.36.05,2.06,0,4.13.1,6.19-.03,1.71-.1,2.16.57,2.14,2.19-.08,6.27-.03,12.53-.04,18.8-.86-.52-1.82-.47-2.77-.47-41.98,0-83.95,0-125.93-.02-1.25,0-2.51.43-3.76.02Z"/>
      <path class="cls-8" d="M66.96,289.8c-6.5,0-13-.04-19.5.03-1.6.02-2.25-.39-2.22-2.12.09-5.63.08-11.26,0-16.89-.02-1.6.57-2.01,2.08-2.01,13.08.05,26.16.06,39.24,0,1.76,0,2.11.68,2.09,2.24-.07,5.55-.08,11.1,0,16.65.03,1.71-.59,2.15-2.21,2.13-6.5-.07-13-.03-19.5-.03Z"/>
      <path class="cls-8" d="M245.67,289.8c-6.42,0-12.85-.05-19.27.03-1.78.02-2.53-.36-2.48-2.35.14-5.47.09-10.94.02-16.42-.02-1.53.27-2.28,2.06-2.27,13.08.07,26.17.07,39.25,0,1.75,0,2.12.65,2.1,2.23-.07,5.55-.08,11.1,0,16.65.03,1.69-.56,2.17-2.19,2.15-6.5-.08-13-.03-19.51-.03Z"/>
      <path class="cls-5" d="M225.9,268.1c.14-.11.29-.11.43,0-.14,0-.29,0-.43,0Z"/>
      <path class="cls-14" d="M156.3,156.35c0-7.46,0-14.92,0-22.38h0c6.72,0,13.45-.06,20.17.03,1.81.03,2.28-.58,2.26-2.32-.08-6.72-.02-13.45,0-20.18,6,.02,12.01.05,18.01.06q3.77,0,3.9,3.68c.02.55-.04,1.12.4,1.55.02,5.72.03,11.45.05,17.17.01,14.92.02,29.83.04,44.75l-.06.06c-7.42-.02-14.84-.04-22.26-.06,0,0-.17.04-.17.04.02-6.81-.01-13.63.08-20.44.02-1.55-.42-2.02-1.99-2-6.81.08-13.62.03-20.44.03Z"/>
      <path class="cls-14" d="M201.13,178.72c7.42.02,14.85.04,22.27.06,0,0,.13-.06.13-.06-.03,7.46-.05,14.92-.08,22.38,0,0-.02.02-.02.02-7.45.01-14.89.02-22.34.03,0,0,0,0,0,0,0-7.46-.02-14.92-.03-22.38l.06-.06Z"/>
      <path class="cls-11" d="M223.53,156.39c7.28,0,14.56,0,21.85,0,.11.58.22,1.16.33,1.73-.58,6.4-.29,12.8-.15,19.21,0,.48,0,.96,0,1.44,0,0-.17-.04-.17-.04-.13,0-.27-.02-.4-.03,0-6.41-.07-12.83,0-19.24.02-1.9-.51-2.72-2.55-2.68-5.46.1-10.92.09-16.38,0-1.71-.03-2.15.6-2.13,2.2.07,6.57.02,13.14.02,19.71-.14.02-.27.02-.41.02,0,0-.13.06-.13.06,0-.31,0-.63,0-.94,0-.17,0-.34,0-.52,0-6.34,0-12.69,0-19.03,0-.16-.01-.32-.02-.48l.15-1.41Z"/>
      <path class="cls-14" d="M223.4,177.32c0,.17,0,.34,0,.52-.06-.12-.13-.24-.16-.36,0-.04.1-.1.15-.15Z"/>
      <path class="cls-14" d="M223.38,157.8c0,.16.01.32.02.48-.05-.11-.12-.22-.15-.34,0-.03.09-.09.13-.14Z"/>
      <path class="cls-14" d="M245.55,177.32c-.14-6.4-.43-12.81.15-19.21.19,6.4.49,12.81-.15,19.21Z"/>
      <path class="cls-1" d="M201.05,116.8c-.45-.44-.38-1-.4-1.55q-.13-3.67-3.9-3.68c-6-.01-12.01-.04-18.01-.06,0,0-.07.05-.07.05-.05-7.45-.09-14.9-.14-22.35.08,0,.17-.02.25-.04,7.4.84,14.84.22,22.25.53,0,9.03.01,18.06.02,27.09Z"/>
      <path class="cls-14" d="M156.29,89.14c.01-7.43.03-14.86.04-22.29.31,0,.62,0,.93,0,.16.08.31.16.47.23.33,0,.66,0,.99,0,.62,0,1.23,0,1.85,0,5.09,0,10.17-.01,15.26-.02.93.05,1.87.11,2.8.16.05,7.31.09,14.63.14,21.94-.08.02-.17.03-.25.04-7.36.04-14.71.07-22.07.11-.06-.06-.11-.12-.17-.17Z"/>
      <path class="cls-1" d="M160.57,67.09c-.62,0-1.23,0-1.85,0,.62-.44,1.23-.44,1.85,0Z"/>
      <path class="cls-1" d="M157.73,67.09c-.16-.08-.31-.16-.47-.23.16.08.31.16.47.23Z"/>
      <path class="cls-14" d="M67.16,178.79c-7.29,0-14.59.02-21.88.02-.14-.04-.27-.04-.41,0l-.17-.17c.04-.3.08-.6.12-.89.77-.7.44-1.63.44-2.45.04-6.3.03-12.6.04-18.9,7.16-.03,14.31-.06,21.47-.09,0,0,.22.04.22.04h.23s-.05.02-.05.02c0,7.47,0,14.94,0,22.41Z"/>
      <path class="cls-14" d="M44.4,223.15c-.02-14.78-.05-29.56-.07-44.34.13-.04.25-.09.37-.15,0,0,.17.17.17.17,0,14.75,0,29.5,0,44.25-.16.02-.31.04-.46.08Z"/>
      <path class="cls-10" d="M45.29,156.41c0,6.3,0,12.6-.04,18.9,0,.83.33,1.75-.44,2.45.01-7.13.02-14.26.04-21.39.15,0,.3,0,.44.04Z"/>
      <path class="cls-9" d="M67.21,156.35s-.23,0-.23,0c0,0-.22-.04-.22-.04.09-.15.19-.3.28-.46.05.16.11.33.17.49Z"/>
      <path class="cls-14" d="M156.3,133.97c-7.44.01-14.89.03-22.33.04-.02-7.48-.05-14.95-.07-22.43.02-7.3.04-14.61.06-21.91,6.21-.02,12.42-.06,18.63-.05,1.27,0,2.5-.08,3.71-.48.06.06.11.12.17.17-.05,7.41-.09,14.82-.14,22.24,0,7.47,0,14.94-.01,22.41h0Z"/>
      <path class="cls-1" d="M133.89,111.58c.02,7.48.05,14.95.07,22.43,0,0,0,0-.01,0-6.58-.01-13.15.04-19.73-.08-2.07-.04-2.77.63-2.73,2.72.11,6.57.04,13.15.04,19.73,0,0,0,0,0,0-7.43.03-14.86.07-22.29.1l-.09-.09c.02-6.65.11-13.3.04-19.95-.02-1.87.56-2.48,2.44-2.45,5.86.11,11.72-.01,17.58.09,1.82.03,2.5-.46,2.46-2.39-.12-5.78-.04-11.56-.04-17.34,0-.95-.1-1.91.37-2.79,7.3,0,14.59.02,21.89.02Z"/>
      <path class="cls-13" d="M111.54,108.2c-.75-.61-.48-1.46-.48-2.21-.02-11.54-.02-23.09,0-34.63,0-.76-.26-1.6.48-2.22,0,13.02,0,26.04,0,39.06Z"/>
      <path class="cls-5" d="M22.28,180.69c0,1.41,0,2.83,0,4.24-.84.04-1.59-.15-1.71-1.12-.18-1.43.59-2.39,1.72-3.13Z"/>
      <path class="cls-12" d="M44.4,223.15c.15-.04.31-.06.46-.08,0,0,.22.01.22.01h.22c5.44.73,10.89.78,16.32.06,5.11-.68,5.57-.36,5.57,4.78,0,5.08,0,10.16,0,15.24,0,.95.11,1.92-.5,2.75-7.12.01-14.24.03-21.36.04,0,0-.05-.04-.05-.04-.14-.12-.28-.24-.42-.36-.02-5.17-.06-10.33-.05-15.5,0-2.2.02-4.39-.49-6.55,0-.13.03-.25.09-.36Z"/>
      <path class="cls-4" d="M44.85,245.55c.14.12.28.24.42.36-.11.03-.22.04-.33.05-.06-.13-.09-.26-.09-.41Z"/>
      <path class="cls-1" d="M67.16,178.79c0-7.47,0-14.94,0-22.41,7.33,0,14.66,0,21.99.01,0,0,.09.09.09.09-.04,7.43-.08,14.86-.11,22.29,0,0,0,0,0,0-7.32,0-14.65.01-21.97.02,0,0,0,0,0,0Z"/>
      <path class="cls-12" d="M133.89,156.35c0,7.46,0,14.91.01,22.37-7.43.04-14.87.09-22.3.13,0,0-.16-.15-.16-.15.03-7.44.05-14.88.08-22.32,0,0,0,0,0,0,7.45,0,14.91-.02,22.36-.02Z"/>
      <path class="cls-6" d="M156.3,156.35c6.81,0,13.62.05,20.44-.03,1.57-.02,2.01.45,1.99,2-.09,6.81-.07,13.62-.08,20.44-6.67,0-13.34-.06-20.01.05-1.92.03-2.41-.59-2.38-2.44.11-6.67.05-13.34.05-20.01Z"/>
      <path class="cls-12" d="M201.07,178.78c0,7.46.02,14.92.03,22.38-6.58,0-13.15-.07-19.73.03-2.1.03-2.76-.69-2.71-2.75.14-6.57.11-13.15.15-19.72,7.42.02,14.84.04,22.26.06Z"/>
      <path class="cls-14" d="M133.89,156.35c-7.45,0-14.91.02-22.36.02,0-6.58.07-13.15-.04-19.73-.03-2.09.66-2.76,2.73-2.72,6.57.12,13.15.06,19.73.08-.02,7.45-.04,14.9-.06,22.35Z"/>
      <path class="cls-12" d="M201.1,201.16c7.45-.01,14.89-.02,22.34-.03.01,6.67-.02,13.33.07,20,.03,1.91-.7,2.47-2.52,2.45-5.79-.08-11.58-.09-17.37,0-2.02.04-2.59-.74-2.56-2.66.09-6.59.04-13.17.04-19.76Z"/>
      <path class="cls-12" d="M245.54,223.5c6.66.02,13.32.09,19.98.02,1.72-.02,2.37.4,2.34,2.25-.11,6.58-.06,13.16-.08,19.74-6.62.79-13.28.29-19.91.46-1.44.04-2.47-.2-2.45-2.03.08-6.81.09-13.63.12-20.44Z"/>
      <path class="cls-12" d="M223.54,178.72c.14,0,.27,0,.41-.02,7.01,0,14.03,0,21.04,0,.13.01.27.02.4.03.01,4.54.03,9.09.04,13.63,0,2.92.02,5.83.02,8.75-7.33,0-14.66,0-21.99,0,.02-7.46.05-14.92.07-22.38Z"/>
      <path class="cls-6" d="M111.61,178.85c7.43-.04,14.87-.09,22.3-.13,0,7.48,0,14.97.01,22.45-6.58-.01-13.16-.08-19.74,0-1.75.02-2.34-.48-2.31-2.28.11-5.55.05-11.1.03-16.66,0-.85.24-1.75-.33-2.54,0-.15-.03-.3-.08-.44.07-.13.11-.26.12-.4Z"/>
      <path class="cls-14" d="M67.16,178.79c7.32,0,14.65-.01,21.97-.02-.23,1.67.56,3.3.38,4.9-.64,5.81-.58,11.6.03,17.39-6.82.02-13.65,0-20.47.1-1.68.02-1.95-.71-1.94-2.15.05-6.74.02-13.49.02-20.23Z"/>
      <path class="cls-12" d="M89.54,201.07c-.61-5.8-.66-11.59-.03-17.39.18-1.61-.61-3.24-.38-4.9,0,0,0,0,0,0,7.44-.02,14.88-.05,22.32-.07,0,0,.16.15.16.15-.01.14-.05.28-.12.4-.65.55-.44,1.31-.44,2-.01,5.85-.01,11.7,0,17.55,0,.61-.19,1.28.37,1.78-.3.64-.89.56-1.44.56-6.81-.02-13.63-.05-20.44-.07Z"/>
      <path class="cls-11" d="M45.29,223.07h-.22s-.22,0-.22,0c0-14.75,0-29.5,0-44.25.14-.05.27-.05.41,0,0,14.75.01,29.5.02,44.26Z"/>
      <path class="cls-14" d="M111.42,200.58c-.56-.5-.37-1.17-.37-1.78-.01-5.85-.01-11.7,0-17.55,0-.69-.2-1.44.44-2,.05.14.08.29.08.44-.05,6.96-.1,13.93-.16,20.89Z"/>
      <path class="cls-12" d="M156.3,133.96c0-7.47,0-14.94.01-22.41,7.45,0,14.9,0,22.35,0,0,0,.07-.05.07-.05-.01,6.72-.07,13.45,0,20.18.02,1.74-.45,2.34-2.26,2.32-6.72-.1-13.45-.04-20.17-.04Z"/>
      <path class="cls-4" d="M244.99,178.69c-7.01,0-14.03,0-21.04,0,0-6.57.05-13.14-.02-19.71-.02-1.61.42-2.23,2.13-2.2,5.46.09,10.92.1,16.38,0,2.04-.04,2.57.78,2.55,2.68-.07,6.41-.01,12.82,0,19.24Z"/>
      <path class="cls-4" d="M178.66,111.56c-7.45,0-14.9,0-22.35,0,.05-7.41.09-14.83.14-22.24,7.36-.03,14.71-.07,22.07-.11.05,7.45.09,14.9.14,22.35Z"/>
      <path class="cls-14" d="M111.45,178.7c-7.44.02-14.88.05-22.32.07.04-7.43.07-14.86.11-22.29,7.43-.03,14.86-.07,22.29-.1-.03,7.44-.05,14.88-.08,22.32Z"/>
    </g>
  </g>
</svg>