<?xml version="1.0" encoding="UTF-8"?>
<svg id="Capa_2" xmlns="http://www.w3.org/2000/svg" viewBox="0 0 271.43 496.73">
  <defs>
    <style>
      .cls-1 {
        fill: #f39527;
      }

      .cls-2 {
        fill: #ddbd99;
      }

      .cls-3 {
        fill: #402618;
      }

      .cls-4 {
        fill: #ba8039;
      }

      .cls-5 {
        fill: #696968;
      }

      .cls-6 {
        fill: #050606;
      }

      .cls-7 {
        fill: #724f26;
      }

      .cls-8 {
        fill: #f5aa50;
      }

      .cls-9 {
        fill: #dfd9d6;
      }

      .cls-10 {
        fill: #2a295d;
      }

      .cls-11 {
        fill: #43559e;
      }

      .cls-12 {
        fill: #b66f2b;
      }

      .cls-13 {
        fill: #252322;
      }

      .cls-14 {
        fill: #cda067;
      }

      .cls-15 {
        fill: #fcdeb1;
      }
    </style>
  </defs>
  <g id="Capa_1-2" data-name="Capa_1">
    <g>
      <path class="cls-15" d="M223.93,161.32c-.52,5.02.65,10.12-.64,15.11-4.13-.04-8.28.08-12.39-.18-2.98-.19-4.14.68-3.98,3.82.21,4.12-.05,8.26-.1,12.39q-15.86.27-14.61,16.42c-.19,5.11-.39,10.21-.58,15.32-10.91.09-21.81.19-32.72.28,0,0,.09.05.09.05.03-.66.07-1.33.08-1.99q.27-14.86-14.97-13.28c-5.5-.23-11-.47-16.5-.7.99-16.75.99-16.7-13.35-16.1-2.25.09-3.12.52-3.27,3.01-.78,13.62-.86,13.61,12.59,13.64,1.16,0,2.32-.06,3.48-.09.25,5.04.5,10.08.75,15.12-5.61.12-11.23.24-16.84.37l-12.04-.3c-.34-.43-.66-.4-.98.02-.68.13-1.36.26-2.04.39-5.51-.92-11.16.72-16.63-.88,2.17-14.06,1.55-14.81-12.06-14.41-1.14.03-2.27.26-3.41.39-.26-.23-.52-.45-.78-.68-.03-5.5-.06-10.99-.09-16.49.02-10.59.05-21.18.07-31.76.05-4.3.24-8.6.1-12.89-.09-2.66.89-3.42,3.45-3.33,4.12.14,8.26-.06,12.39-.12.36-.02.71-.03,1.07-.05,5,.13,9.99.26,14.99.39-.03,8.77.15,17.56-.16,26.32-.17,4.91.51,6.2,5.45,6.31,4.63.1,9.28.22,13.9-.04,3.54-.19,7.23,1.17,10.62-.86,2.13.05,3.29-.89,3.19-3.12,2.02-8.97.6-18.04.7-27.06.02-2.21-2.45-3.88-4.66-3.5-9.24,1.58-18.51.27-27.75.71-.07-4.97-.15-9.95-.22-14.92,4.9-.2,9.8-.39,14.7-.59,2.48.12,4.96.34,7.44.34,29.54.07,59.09.12,88.63.17.05,3.77.42,7.57.06,11.3-.4,4.14,1.34,5.09,5.04,4.82,3.75-.27,7.54-.1,11.31-.12.8,5.57-.47,11.23.71,16.79ZM191.92,161.34c0-4.31-.05-8.63,0-12.94.04-2.71-1.18-3.94-3.89-3.92-8.13.04-16.26,0-24.38.03-3,.01-4.67,1.57-4.7,4.58-.05,7.96-.05,15.92,0,23.89.01,2.19,1.06,4.54,3.32,3.99,4.61-1.13,9.2.33,13.73-.58.5-.02.99-.03,1.49-.07,4.73-.35,11.22,2.06,13.71-1.05,2.36-2.95.64-9.16.72-13.93Z"/>
      <path class="cls-10" d="M48.31,444.66c0-2.83,0-5.65,0-8.48,2.65-4.64,7.11-3.75,11.32-3.73,2.33,0,4.6,2.06,6.98.18,3.49-.06,6.97-.16,10.45-.18,16.93-.11,33.85-.2,50.78-.3,6.29.16,12.59.31,18.88.47,9.38-.2,18.76-.4,28.15-.6.24.02.48.05.71.09,5.54.72,11.09.55,16.65.16,0,0-.16-.09-.16-.09.38,5.53-1.95,11.35,1.79,16.52-2.05,1.18-2.13,3.14-2.11,5.19.05,5.32.03,10.64.04,15.96.03,11.2.03,11.07,11.31,10.64,3.11-.12,3.97-1.2,3.92-4.13-.15-9.31-.09-18.62-.11-27.92l-.06-.26c4.81.19,9.61.39,14.42.58-.13.9.07,1.64,1,2.01.15-.6.3-1.2.45-1.8,1.21.87.65,2.12.65,3.22-.08,14.43-.19,28.86-.29,43.29-.37-.56-.19-1.63-1.34-1.46-.12.02-.29.22-.29.34,0,1.07.85,1.1,1.59,1.26-1.2,1.83-3.04.88-4.54.88-60.39.06-120.79,0-181.18.15-4.53.01-5.78-1.12-5.66-5.68.34-12.8.25-25.62.04-38.43-.05-3.36.95-4.34,4.18-4.05,2.97.27,5.99-.01,8.98.07,1.81.05,3.36-.04,3.43-2.38.42-.16,1.15-.23,1.22-.49.26-.95-.52-.97-1.18-1.01ZM127.93,464.85h-.04c0-4.33-.1-8.66.04-12.99.08-2.61-.93-3.52-3.51-3.49-8.16.12-16.32.13-24.47.05-2.93-.03-4.28,1.07-4.25,4.08.08,8.16.1,16.32.02,24.47-.02,2.57.96,3.53,3.54,3.51,8.49-.09,16.98-.07,25.47.02,2.35.03,3.29-.81,3.23-3.18-.11-4.16-.03-8.32-.03-12.49ZM78.93,463.76h-.02c0-3.98-.02-7.97,0-11.95.01-1.85-.27-3.27-2.64-3.25-7.8.05-15.6-.06-23.4.08-3.52.06-5.13,1.83-4.9,5.71.36,6.12.14,12.27.14,18.41,0,7.16.06,6.99,7.04,7.55,6.43.52,12.75-1.5,19.26-.24,2.71.53,4.84-1.28,4.57-4.87-.29-3.79-.06-7.63-.06-11.45ZM174.89,464.18c0-4.16-.03-8.32.01-12.48.02-1.95-.51-3.16-2.78-3.15-7.65.06-15.31-.06-22.96.07-3.23.06-5.2,1.55-5.12,5.27.16,7.15.1,14.31.02,21.46-.03,2.99,1.31,3.86,4.21,4.15,7.2.73,14.42-.41,21.63.59,2.98.41,5.38-.98,5.05-4.95-.31-3.63-.07-7.32-.07-10.98ZM222.56,453.76c-.13-.06-.26-.12-.39-.17v37.66c.13,0,.26,0,.39,0v-37.49Z"/>
      <path class="cls-6" d="M14.31,192.44c-3.66.05-7.33-.05-10.98.19-2.72.18-3.32-.88-3.31-3.43C.1,159.57.12,129.94,0,100.31c-.01-3.19,1.04-3.81,3.99-3.81,11.16-.01,11.16-.12,11.16-11.34,0-5.16.33-10.35-.1-15.47-.35-4.08,1.27-4.82,4.77-4.47,2.64.27,5.33-.11,7.98.11,2.98.24,4.19-.7,4.05-3.87-.18-3.97.14-7.96.24-11.94.29-.23.58-.47.88-.7,5-.1,10-.2,15-.31,0,0,.07.07.07.07.03,37.73.05,75.46.08,113.2.08,10.24.16,20.49.24,30.73-.01,5.54-.03,11.07-.04,16.61-.13,4.94-.27,9.88-.4,14.81-.7.04-1.41.09-2.11.13-2.2-.99-4.41-.98-6.62,0-1.47,0-2.94-.02-4.4-.02-.74-.92-1.68-.61-2.59-.41-.09-.78-.17-1.57-.26-2.35.4-3.88.64-7.77-.13-11.64-.32-.21-.64-.42-.95-.63-5-1.33-10.07-.41-15.11-.51-1.19-4.36-.42-8.78-.41-13.17.12-.05.25-.09.37-.14-.12-.18-.25-.37-.37-.55-.13-.65-.25-1.29-.38-1.94,0,0-.22-.34-.22-.34l-.4.08Z"/>
      <path class="cls-12" d="M207.89,367.78c-1.46,1.32-.54,3.15-1,4.68-1.97,4.6-.82,9.42-.88,14.13-.18,14.1-.06,14.1-13.99,13.82-.03-14.29-.1-28.57-.07-42.86,0-3-.3-5.07-4.21-5.05-25.58.15-51.17.13-76.75.16-10.36,0-20.72.01-31.09.02-4.09-.05-8.18-.05-12.27-.17-1.97-.06-3.57.3-4.3,2.38-.26-.66-.52-1.31-.77-1.97,1.27-5.39.09-10.9.74-16.32,5.53-.08,11.05-.15,16.58-.23,40.54.04,81.08.07,121.62.16,1.91,0,3.53-.79,5.31-1.12.09,7.01.17,14.03.26,21.04.08,3.8-1.04,7.68.82,11.35Z"/>
      <path class="cls-3" d="M207.06,356.43c-.09-7.01-.17-14.03-.26-21.04-.01-20.94-.02-41.89-.04-62.83.04-1,.13-1.99.12-2.99-.06-3.65,1.09-8.07-.56-10.76-2.09-3.4-6.98-1.09-10.64-1.41-2.68-.24-3.95-1.13-3.86-3.92.15-4.32.12-8.65.17-12.97,4.92,0,9.84.01,14.76.02.08,4.15.37,8.32.16,12.45-.16,3.18,1.02,3.86,3.99,3.87,4.07.02,9.49-1.96,11.83.92,1.98,2.43.65,7.62.66,11.59.03,25.8.02,51.59,0,77.39,0,1.65-.2,3.3-.31,4.95-2.41.29-5.12,1.44-7.16.71-4.66-1.66-6.83.71-8.87,4.03Z"/>
      <path class="cls-3" d="M30.04,272.04c1.4-.28,1.75-1.18,1.71-2.53-.09-2.64.23-5.32-.07-7.93-.45-3.87.93-5.15,4.83-4.94,3.71.2,8.83,1.73,10.82-.76,1.88-2.35.92-7.26.6-10.99-.33-3.9,1.14-4.9,4.73-4.54,3.11.32,6.27.16,9.4.21.99.78.76,1.99,1.05,3.01-.01,2.94-.02,5.88-.03,8.82,0,.38,0,.77,0,1.15-.06,1.19-.11,2.39-.17,3.58-1.14.03-2.29.05-3.43.1-10.64.5-10.67.5-10.9,11.17-.06,2.93-1.34,4.24-4.29,4.13-3.15-.12-6.31-.01-9.46-.08-1.78-.04-2.97.59-2.98,2.49-.03,8.99-.05,17.98.06,26.96.01.85.95,1.68,1.47,2.52-1.13.17-2.26.33-3.39.5-.36,0-.73,0-1.09,0-.62,0-1.25-.02-1.87-.02h-1.12c-1.63,0-3.27,0-4.9,0-.69,0-1.39,0-2.08,0-1.34-.17-2.68-.34-4.02-.51l.12.1c.06-10.65.12-21.3.18-31.95.27-.14.54-.27.82-.41,4.29-.04,8.58-.08,12.86-.12.38.63.76.63,1.16.02Z"/>
      <path class="cls-6" d="M63.98,17.62c3.98-.1,7.97-.33,11.95-.24,2.7.06,4.18-.7,3.79-3.64-.04-.33-.02-.67-.02-1,.08-13.33.52-13.66,14.04-12.1,2.1.24,2.41,1.08,2.38,2.82-.08,3.66.06,7.33-.06,11-.07,2.07.55,3.19,2.78,2.96,8.08.53,16.16.56,24.24-.01.58,0,1.16,0,1.74,0,1.04.04,2.09.08,3.13.12,0,0,.02.02.02.02-.01,3.66-.07,7.32-.01,10.97.05,2.67-1.05,4.02-3.82,4-8.15-.04-16.29-.04-24.44,0-2.82.01-3.84-1.44-3.74-4.07.06-1.49.13-3.01-.02-4.49-.42-4-1.96-6.6-6.74-6.52-9.16.15-9.17-.03-9.24,9.25,0,.5-.04,1,0,1.5.25,3.25-1.32,4.46-4.47,4.36-4.15-.12-8.31,0-12.47.02,0,0-.18-.2-.18-.2.13-4.62.26-9.24.39-13.86.25-.3.51-.6.77-.9Z"/>
      <path class="cls-6" d="M128.13.95c14.91-.06,29.81-.11,44.72-.17,2.29.95,2.06,2.91,2.15,4.9.35,8.31-.9,16.66.63,24.93.04.39.08.79.12,1.18,0,0-.15.43-.15.43l.32.32s.03-.04.03-.04c-5.68,0-11.36-.02-17.03-.02l.06.06c-.36-4.87,2.13-11.17-1.09-14.22-2.94-2.79-9.12-.68-13.87-.75-5.35,0-10.7-.01-16.05-.02,0,0-.02-.02-.02-.02.06-5.53.12-11.05.19-16.58Z"/>
      <path class="cls-10" d="M62.55,352.9c.26.66.52,1.31.78,1.97-.16,4.37-.33,8.74-.5,13.11-1.16.06-2.32.15-3.49.18q-10.75.3-10.88,11.37c-.02,2.15.41,4.46-2.56,5.11-3.98-.07-7.96-.14-11.94-.21-2.45-.04-3.71,1.12-3.63,3.61.21,7.47-.49,14.95.5,22.4.61,2.19,1.16.61,1.17-.11.05-7.99,0-15.98,0-23.97,0-1.94-1.32-1.99-2.7-2-3.66-.02-7.34-.21-10.98.03-2.95.19-3.4-1.26-3.14-3.58.1-.05.3-.15.29-.18-.07-.23-.17-.44-.27-.66,0-1.41.02-2.82.02-4.22.11-.62.41-1.29.3-1.88-.97-5.34,1.65-6.62,6.4-6.08,2.94.33,5.94.12,8.91.15,1.71.79,3.41.97,5.11-.03l2.09.09c1.03.71,2.04.68,3.03-.06,6.96-.25,6.98-.25,6.98-7.27,0-2.32-.15-4.64-.22-6.96.48-.39.97-.77,1.45-1.16,4.14.45,8.29.43,12.44.05.25.18.53.29.84.31Z"/>
      <path class="cls-7" d="M206.76,240.52c-4.92,0-9.84-.01-14.76-.02-3.04,0-6.08.11-9.11-.03-4.34-.2-5.86,2.31-6,6.07-.12,3.29,0,6.59,0,9.88-.62.19-1.23.37-1.85.56-.24-.27-.48-.54-.72-.81,1.36-3.99.53-8.06.54-12.11,0-3.06-1.49-3.63-3.97-3.65-3.8-.02-7.6-.13-11.4-.21-.2-5.25-.4-10.49-.6-15.74,10.91-.09,21.81-.19,32.72-.28,5.04.99,10.31-.94,15.25,1.2-.04,5.04-.07,10.08-.11,15.12Z"/>
      <path class="cls-7" d="M63.12,243.58c-.29-1.02-.07-2.23-1.05-3.01,2.07-4.9.64-10.01.78-15.01.05-1.94-1.93-1.47-3.09-1.51-3.95-.14-7.91-.1-11.86-.12.13-4.94.27-9.88.4-14.81,4.91.28,9.83.52,14.73-.08.26.23.52.45.78.68-.49,2.77-.97,5.52-.97,8.37,0,4.2,1.58,6.07,5.97,5.68,3.46-.31,6.98-.05,10.47-.04,5.47,1.6,11.12-.04,16.63.88-.02,3.8-.09,7.6-.04,11.39.03,2.15-.15,4.03-2.83,4.36-.72,0-1.45-.01-2.17-.01-3.64,0-7.28,0-10.93.01-3.43.05-6.87.32-10.28.08-2.94-.21-5.04.68-6.55,3.13Z"/>
      <path class="cls-6" d="M223.93,48.59c8.46,0,16.93.32,25.37-.1,4.83-.24,5.9,1.46,5.75,5.94-.29,8.61.01,17.24.07,25.86,0,0-.24.26-.24.26-5.01,0-10.01,0-15.02,0h.01c.81-3.41-1.86-6.62-.47-10.15,1.33-3.39-.22-4.97-3.74-4.88-4.17.11-8.34.18-12.5.27.91-5.71-.73-11.53.77-17.21Z"/>
      <path class="cls-7" d="M206.8,192.46c.06-4.13.31-8.27.1-12.39-.16-3.14,1.01-4.01,3.98-3.82,4.12.26,8.26.14,12.39.18.04,14.87.09,29.74.13,44.6,0,.97.18,2.01-.74,2.74,0,0-.3-.12-.3-.12l-.16.28c-4.81.03-9.62.06-14.43.09-1.8-5.06-.33-10.31-.87-15.45-.04-5.37-.07-10.74-.11-16.12Z"/>
      <path class="cls-3" d="M.35,352.66c-.02-15.81-.04-31.62-.06-47.43,0,0,.43.02.43.02l.03-.4c4.76-.12,9.51-.23,14.27-.35,0,0-.12-.1-.12-.1.14,1.8.39,3.6.4,5.4.07,12.89.1,25.78.14,38.67-.14,1.72-.28,3.44-.42,5.16-4.77-2.14-9.79-.62-14.68-.97Z"/>
      <path class="cls-5" d="M223.93,48.59c-1.5,5.68.15,11.5-.77,17.2-1.16-.09-2.31-.22-3.46-.27-3.95-.15-9.01,1.18-11.56-.78-3.07-2.35-.98-7.72-1.1-11.77-.09-2.83-1.08-3.65-3.81-3.74-3.74-.11-7.58.97-11.22-.71-.05-5.39-.1-10.78-.15-16.17l-.04.11c5,.04,10,.07,15,.11.03,4.32.11,8.64.08,12.96-.01,1.99.63,2.91,2.81,3.16,12.76,1.47,13.15,1.19,13.12-11.25,0-1.66-.09-3.32-.14-4.98.06-4.96.12-9.91.18-14.87,1.86,1.17.9,3.01.93,4.51.13,8.83.11,17.65.13,26.48Z"/>
      <path class="cls-6" d="M255.11,80.29c4.33,0,8.66.14,12.98-.07,2.69-.13,3.34.81,3.29,3.39-.15,8.65-.17,17.31.04,25.97.08,3.16-1.02,3.99-4,3.85-4.15-.19-8.31.06-12.47.11,0,0-.1-.1-.1-.1,0-10.97.01-21.93.02-32.9,0,0,.24-.26.24-.26Z"/>
      <path class="cls-4" d="M30.84,410.44c-.99-7.45-.29-14.94-.5-22.4-.07-2.49,1.19-3.65,3.63-3.61,3.98.07,7.96.14,11.94.21-.25,1.89-1.54,1.81-2.97,1.65-7.99-.88-10.06,1-9.4,8.47.03.33.17.7.07.98-1.62,4.43,1.13,4.73,4.36,4.72,8.33-.04,16.65-.02,24.98-.03,0,0,.42.14.42.14-.2,5.01-.39,10.03-.59,15.04-4.9.53-9.91-.86-14.74.86-3.26-1.01-6.62-.57-9.9-.43-4.2.18-7.12-.79-7.3-5.61Z"/>
      <path class="cls-6" d="M254.95,113.54c0,9.08-.11,18.17.06,27.24.05,2.88-.45,4.26-3.72,3.92-3.43-.35-6.92-.19-10.38-.26-.39-.33-.77-.67-1.16-1,.02-9.97.03-19.94.04-29.91,5.02-.03,10.05-.07,15.07-.1l.1.1Z"/>
      <path class="cls-6" d="M206.82,32.58c-5-.04-10-.07-15-.11.02-4.13.14-8.26.02-12.39-.06-2.14.64-2.83,2.81-2.79,9.41.19,18.82.22,28.22.31-.06,4.96-.12,9.91-.18,14.87-5.29.04-10.58.07-15.87.11Z"/>
      <path class="cls-13" d="M239.74,143.45c.39.33.77.67,1.16,1-2.13,4.25-.68,8.76-.85,13.14-.11,2.75-.72,3.85-3.63,3.71-4.15-.2-8.33,0-12.49.02-1.18-5.56.09-11.22-.71-16.79l.36.09.3-.22c5.29-.31,10.67.85,15.87-.96Z"/>
      <path class="cls-10" d="M207.06,356.43c2.05-3.32,4.21-5.69,8.87-4.03,2.04.73,4.75-.42,7.16-.71.38,5.22,2.27,11.93-.57,15.2-2.7,3.1-9.6.67-14.64.89-1.87-3.67-.74-7.55-.82-11.35Z"/>
      <path class="cls-3" d="M192.21,432.27c-5.55.39-11.1.56-16.65-.16.44-5.53-.63-11.11.58-16.61,4.57.09,9.15.17,13.72.26.69.22,1.38.44,2.06.66.09,5.28.19,10.57.28,15.85Z"/>
      <path class="cls-4" d="M191.93,416.42c-.69-.22-1.38-.44-2.07-.66,1.79-.46,2.14-1.72,2.08-3.39-.16-3.98-.19-7.96-.27-11.94l.34-.03c13.92.28,13.81.28,13.99-13.82.06-4.7-1.08-9.53.88-14.13.03,13.44.04,26.89.13,40.33.02,2.33-.83,3.18-3.18,3.25-3.97.13-7.97-.57-11.91.38Z"/>
      <path class="cls-14" d="M15.03,353.63c.14-1.72.28-3.44.42-5.16.99,1.17.33,2.59.61,3.87.1.58.4.94,1.04.91,4.95.06,9.9.13,14.86.19-.06,4.65-.12,9.29-.19,13.94-.31.18-.62.37-.92.55-2.97-.03-5.97.18-8.91-.15-4.74-.53-7.37.75-6.4,6.08.11.59-.19,1.26-.3,1.88-.56-7.56-.56-7.5-8.45-7.58-2.1-.02-4.3.66-6.33-.49.66-.04,1.32-.11,1.98-.12q13.5-.05,12.59-13.94Z"/>
      <path class="cls-3" d="M48.05,416.47c4.83-1.72,9.84-.33,14.74-.86,0,0,.32-.19.32-.19.06,4.33.12,8.67.17,13,0,.34,0,.68,0,1.01.01.63.03,1.27.04,1.9.42,2.12,2.26.64,3.26,1.29-2.37,1.89-4.64-.17-6.97-.18-4.2-.01-8.66-.91-11.32,3.73-.09-6.57-.17-13.14-.26-19.71Z"/>
      <path class="cls-6" d="M191.85,32.36c.05,5.39.1,10.78.15,16.17-5.46-.03-10.92-.07-16.39-.1.11-5.31.23-10.62.34-15.93,0,0-.03.04-.03.04,1.04-.04,2.08-.08,3.12-.11,4.27-.02,8.54-.04,12.81-.06Z"/>
      <path class="cls-4" d="M206.91,208.57c.54,5.14-.92,10.38.87,15.45-.31.46-.61.92-.92,1.38-4.95-2.14-10.22-.21-15.25-1.2.19-5.11.39-10.21.58-15.32,4.9-.1,9.81-.2,14.72-.3Z"/>
      <path class="cls-6" d="M48.96,32.6c4.62-.08,9.24-.16,13.86-.23l.18.2c.2,4.09-.6,8.22.56,12.29.77,2.7-.82,3.61-3.18,3.64-4.12.06-8.25.06-12.37.08l-.07-.07c.08-5,.16-10,.24-15,.26-.3.52-.61.77-.91Z"/>
      <path class="cls-13" d="M193.84,448.7c-3.74-5.16-1.41-10.99-1.79-16.52,4.89.4,11.79-2.21,14.15,1.03,2.45,3.36.61,9.84.64,14.95,0,0,.06.26.06.26-4.35.09-8.71.18-13.06.27Z"/>
      <path class="cls-10" d="M15.03,353.63q.92,13.89-12.59,13.94c-.66,0-1.32.07-1.98.12-.64-5-.38-10.02-.12-15.03,4.89.35,9.9-1.16,14.68.97Z"/>
      <path class="cls-5" d="M175.63,30.61c-1.53-8.28-.28-16.62-.63-24.93-.08-1.99.14-3.95-2.15-4.9,2.13-.72,3.12.09,3.1,2.29-.11,9.18-.21,18.36-.32,27.54Z"/>
      <path class="cls-5" d="M123.07,17.41c-8.08.57-16.16.55-24.24.01,8.08-.6,16.16-.58,24.24-.01Z"/>
      <path class="cls-5" d="M128.13.95c-.06,5.53-.12,11.05-.19,16.58-1.04-.04-2.09-.08-3.13-.12,2.79-.47,2.23-2.61,2.44-4.55.42-3.97-1.22-8.08.88-11.91Z"/>
      <path class="cls-7" d="M15.71,208.5c5.04.1,10.12-.83,15.11.51-5.05.07-10.12,1.1-15.11-.51Z"/>
      <path class="cls-7" d="M31.78,209.63c.77,3.87.54,7.76.13,11.64-.04-3.88-.09-7.76-.13-11.64Z"/>
      <path class="cls-7" d="M39.17,224.05c2.21-.98,4.41-.99,6.62,0-2.21.47-4.41.48-6.62,0Z"/>
      <path class="cls-13" d="M222.71,448.96c-.15.6-.3,1.2-.45,1.8-.93-.38-1.13-1.11-1-2.01.49.07.97.14,1.45.21Z"/>
      <path class="cls-3" d="M48.31,444.66c.66.05,1.44.06,1.18,1.01-.07.26-.79.33-1.22.49.01-.5.02-1,.04-1.5Z"/>
      <path class="cls-7" d="M32.17,223.62c.92-.2,1.85-.51,2.59.41-.92.21-1.92.92-2.59-.41Z"/>
      <path class="cls-5" d="M179.04,32.42c-1.04.04-2.08.08-3.12.11,0,0-.32-.32-.32-.32,0,0,.15-.43.15-.43,1.1.21,2.19.42,3.29.63Z"/>
      <path class="cls-14" d="M15.22,379.97c.09.22.2.43.27.66,0,.03-.19.12-.29.18-.25-.29-.24-.56.03-.83Z"/>
      <path class="cls-13" d="M32.95,48.81c-.29.23-.58.47-.88.7-.1-.72.19-.96.88-.7Z"/>
      <path class="cls-13" d="M63.98,17.62c-.26.3-.51.6-.77.9-.23-.71.03-1.01.77-.9Z"/>
      <path class="cls-13" d="M48.96,32.6c-.26.3-.52.61-.77.91-.22-.71,0-1.04.77-.91Z"/>
      <polygon class="cls-7" points="14.31 192.44 14.7 192.36 14.93 192.7 14.56 192.74 14.31 192.44"/>
      <polygon class="cls-4" points="222.22 223.93 222.38 223.65 222.68 223.77 222.53 224.14 222.22 223.93"/>
      <path class="cls-7" d="M15.3,194.64c.12.18.25.37.37.55-.12.05-.25.1-.37.14,0,0-.2-.35-.2-.35l.2-.35Z"/>
      <path class="cls-5" d="M16.02,272.14c-.27.14-.54.27-.82.41.06-.55.33-.7.82-.41Z"/>
      <path class="cls-5" d="M30.04,272.04c-.39.62-.78.61-1.16-.02.39,0,.77.01,1.16.02Z"/>
      <path class="cls-14" d="M.75,304.85l-.03.4s-.43-.02-.43-.02c-.11-.44-.11-.76.46-.38Z"/>
      <path class="cls-13" d="M48.01,48.57c4.12-.02,8.25-.02,12.37-.08,2.36-.03,3.95-.94,3.18-3.64-1.16-4.07-.37-8.19-.56-12.29,4.16-.02,8.32-.14,12.47-.02,3.15.09,4.72-1.11,4.47-4.36-.04-.5,0-1,0-1.5.08-9.28.08-9.1,9.24-9.25,4.78-.08,6.32,2.52,6.74,6.52.16,1.48.08,2.99.02,4.49-.1,2.63.93,4.08,3.74,4.07,8.15-.04,16.29-.04,24.44,0,2.77.01,3.87-1.33,3.82-4-.06-3.66,0-7.32.01-10.97,5.35,0,10.7.01,16.05.02.14,4.72-1.95,10.72.8,13.83,2.86,3.23,8.99.68,13.67,1.13.16.02.33,0,.49,0,0,0-.06-.06-.06-.06.51,5.23-2.33,12.15,1.24,15.26,3.43,2.99,10.17.87,15.46.69,5.46.03,10.92.07,16.39.1,3.64,1.68,7.48.6,11.22.71,2.73.08,3.73.91,3.81,3.74.12,4.05-1.97,9.42,1.1,11.77,2.55,1.96,7.61.63,11.56.78,1.15.04,2.31.17,3.46.27,4.17-.09,8.34-.16,12.51-.27,3.52-.09,5.07,1.49,3.74,4.88-1.39,3.53,1.28,6.74.47,10.17-4.48-.02-8.96.05-13.43-.1-2.59-.09-3.5.9-3.43,3.48.47,15.78-2.66,12.23,12.13,12.71.33.01.67-.03.99,0,2.76.31,3.89-.83,3.76-3.68-.18-4.14-.05-8.29-.05-12.44,5.01,0,10.01,0,15.02,0,0,10.97-.01,21.93-.02,32.9-5.02.03-10.05.07-15.07.1-8.3,0-16.61-.22-24.9.1-2.68.1-5.3-2.52-7.94-.12-.34.01-.67.02-1.01.03-10-.09-20-.18-30-.27-5.34-1.15-10.69-1.16-16.03.01-15.97.09-31.95.18-47.92.27-.35-.03-.7-.07-1.06-.1l-.02-.27c-4.34-1.01-8.67-1.11-12.99.09-.62.12-1.24.25-1.86.37-3.99-.04-7.98.1-11.96-.15-4.34-.28-5.28,2.34-4.63,5.59.63,3.17.28,6.28.5,9.41-.07.66-.15,1.33-.22,1.99-1.67,4.57-.27,9.32-.83,13.96-4.13.06-8.26.26-12.39.12-2.56-.09-3.54.67-3.45,3.33.15,4.29-.05,8.59-.1,12.89-4.97.36-10.02-.5-14.91,1-.03-37.73-.05-75.46-.08-113.2Z"/>
      <path class="cls-14" d="M205.93,113.55c.34-.01.67-.02,1.01-.03.17,4.99-.51,9.99.4,14.96-.17.06-.35.07-.53.05-29.54-.05-59.09-.09-88.63-.17-2.48,0-4.96-.22-7.44-.34.06-4.85.13-9.71.19-14.56.35.03.7.07,1.05.1,1.68,1.63,3.79.88,5.71.91,28.91.44,57.84-.75,86.74.66,1.17.06,1.28-.78,1.49-1.57Z"/>
      <path class="cls-4" d="M93.04,240.37c2.67-.34,2.86-2.21,2.83-4.36-.05-3.8.02-7.6.04-11.39.68-.13,1.36-.26,2.04-.39.33,0,.66-.01.98-.02,4.01.1,8.02.2,12.04.3.44,5.34-1.17,10.78.81,16.05-.9,2.79-.02,5.6-.14,8.4-.31,7.14-.23,7.23,6.95,7.22,9.88,0,10.04,0,9.58,9.87-.2,4.29,1.59,5.66,5.52,5.54,4.48-.14,8.97-.02,13.46-.1,10.9-.2,10.96-.22,11.34-10.92.11-3.01.94-4.62,4.37-4.39,3.8.26,7.63.02,11.45,0,.24.27.48.54.72.81-2.6,2.82-5.94.85-8.9,1.32-2.46.39-5.41.28-5.84,3.39-1.14,8.17.56,9.88,9.04,9.85.67,0,1.34.04,2-.02,3.54-.35,4.68,1.37,4.58,4.74-.17,5.48.03,10.98-.06,16.47-.24,13.29,2.49,11.64-12.52,11.79-3.23.03-4.45-1.27-4.39-4.46.13-6.65-.13-13.31.11-19.96.16-4.57-2.25-6.51-6.22-6.62-6.98-.2-14-.4-20.93.2-4.2.36-5.39-1.54-5.86-4.8-.26-1.79.14-3.67-.07-5.48-.38-3.25-1.54-5.27-5.64-5.17-10.3.25-10.3.02-10.31-10.18,0-.5.01-1-.01-1.5-.26-4.76-3.03-6.84-7.64-5.31-3.36,1.11-6.33.48-9.35-.88Z"/>
      <path class="cls-9" d="M124.8,176.5c-3.39,2.04-7.08.67-10.62.86-4.62.25-9.27.14-13.9.04-4.94-.11-5.62-1.4-5.45-6.31.31-8.76.13-17.55.16-26.32.43-.41.86-.83,1.29-1.24,9.24-.44,18.51.86,27.75-.71,2.22-.38,4.69,1.29,4.66,3.5-.1,9.02,1.33,18.1-.7,27.07-.06-2.15-.46-4.35-.12-6.44.8-5-1.29-5.98-5.96-5.83-11.38.37-11.3.12-10.92,11.83.08,2.54.67,3.56,3.37,3.43,3.47-.17,6.95.07,10.43.13Z"/>
      <path class="cls-9" d="M176.01,176.39c-4.53.91-9.12-.55-13.73.58-2.26.55-3.31-1.8-3.32-3.99-.05-7.96-.06-15.92,0-23.89.02-3.01,1.7-4.57,4.7-4.58,8.13-.03,16.26.01,24.38-.03,2.71-.01,3.93,1.22,3.89,3.92-.06,4.31,0,8.63,0,12.94-4.43-.04-8.86-.06-13.28-.14-1.76-.03-3.38-.01-3.12,2.46.45,4.23-.57,8.52.49,12.73Z"/>
      <path class="cls-2" d="M111.77,240.55c-1.98-5.26-.37-10.71-.81-16.05,5.62-.12,11.23-.24,16.84-.36,5.46-.06,10.92-.12,16.37-.19,4.94.19,9.87.38,14.81.57,0,0-.09-.05-.09-.05.2,5.25.4,10.49.6,15.74-15.91.11-31.81.23-47.72.34Z"/>
      <path class="cls-12" d="M48.09,161.77c4.89-1.5,9.94-.64,14.91-1-.02,10.59-.05,21.18-.07,31.77-4.87-.01-9.74-.02-14.6-.03-.08-10.24-.16-20.49-.24-30.73Z"/>
      <path class="cls-3" d="M127.05,209.02c-1.16.03-2.32.09-3.48.09-13.45-.03-13.37-.03-12.59-13.64.14-2.49,1.02-2.91,3.27-3.01,14.34-.6,14.34-.65,13.35,16.1,0,0-.44.04-.44.04l-.11.42Z"/>
      <path class="cls-12" d="M127.05,209.02s.11-.42.11-.42c0,0,.44-.04.44-.04,5.5.23,11,.47,16.5.7.03,4.9.05,9.8.08,14.7-5.46.06-10.92.13-16.37.19-.25-5.04-.5-10.08-.75-15.13Z"/>
      <path class="cls-12" d="M223.22,144.53c-3.77.02-7.56-.16-11.31.12-3.7.27-5.44-.68-5.04-4.82.36-3.73,0-7.53-.06-11.3.18.02.36,0,.53-.05,4.32.02,8.64.12,12.95.01,2.54-.06,3.58.84,3.5,3.47-.12,4.15.04,8.3.08,12.45l-.3.22-.36-.09Z"/>
      <path class="cls-4" d="M96.27,143.53c-.43.41-.86.83-1.29,1.24-5-.13-9.99-.26-14.99-.39-.08-4.64-.16-9.27-.23-13.91.07-.66.15-1.33.22-1.99,5.25-.07,10.5-.14,15.75-.21l.32.32c.07,4.97.15,9.95.22,14.92Z"/>
      <path class="cls-13" d="M124.8,176.5c-3.48-.06-6.97-.3-10.43-.13-2.69.13-3.28-.89-3.37-3.43-.38-11.71-.46-11.46,10.92-11.83,4.66-.15,6.76.84,5.96,5.83-.34,2.09.06,4.29.12,6.44.1,2.23-1.06,3.17-3.19,3.12Z"/>
      <path class="cls-2" d="M48.33,192.5c4.87.01,9.74.02,14.6.03.03,5.5.06,10.99.09,16.49-4.91.6-9.82.36-14.73.08.01-5.54.03-11.07.04-16.61Z"/>
      <path class="cls-13" d="M176.01,176.39c-1.05-4.21-.04-8.5-.49-12.73-.26-2.47,1.36-2.49,3.12-2.46,4.43.08,8.86.1,13.28.14-.08,4.77,1.64,10.99-.72,13.93-2.49,3.11-8.98.7-13.71,1.05-.49.04-.99.05-1.49.07Z"/>
      <path class="cls-2" d="M206.91,208.57c-4.91.1-9.81.2-14.72.3q-1.25-16.15,14.61-16.42c.04,5.37.07,10.74.11,16.12Z"/>
      <path class="cls-3" d="M144.18,223.95c-.03-4.9-.05-9.8-.08-14.7q15.24-1.58,14.97,13.28c-.01.66-.05,1.33-.08,1.99-4.94-.19-9.87-.38-14.81-.57Z"/>
      <path class="cls-4" d="M79.27,223.73c-3.49,0-7-.27-10.47.04-4.39.39-5.98-1.49-5.97-5.68,0-2.86.48-5.6.97-8.37,1.13-.13,2.27-.36,3.4-.39,13.61-.4,14.23.35,12.06,14.41Z"/>
      <path class="cls-4" d="M110.94,113.46c-.06,4.86-.12,9.71-.19,14.56-4.9.19-9.8.39-14.7.59,0,0-.32-.32-.32-.32.11-4.88.22-9.76.33-14.64.62-.12,1.24-.25,1.86-.37,4.33.37,8.66.49,12.99-.09l.02.27Z"/>
      <path class="cls-7" d="M79.76,130.48c.08,4.64.16,9.27.23,13.91-.36.02-.71.03-1.07.05.56-4.64-.83-9.39.83-13.96Z"/>
      <path class="cls-2" d="M98.93,224.2c-.33,0-.66.01-.98.02.32-.42.65-.45.98-.02Z"/>
      <path class="cls-11" d="M127.93,464.85c0,4.16-.08,8.33.03,12.49.06,2.37-.88,3.21-3.23,3.18-8.49-.1-16.98-.11-25.47-.02-2.58.03-3.56-.94-3.54-3.51.08-8.16.07-16.32-.02-24.47-.03-3.02,1.31-4.11,4.25-4.08,8.16.08,16.32.07,24.47-.05,2.58-.04,3.59.88,3.51,3.49-.14,4.32-.04,8.66-.04,12.99h.04Z"/>
      <path class="cls-13" d="M78.93,463.76c0,3.82-.22,7.65.06,11.45.27,3.58-1.86,5.39-4.57,4.87-6.5-1.26-12.83.76-19.26.24-6.98-.56-7.03-.4-7.04-7.55,0-6.14.21-12.29-.14-18.41-.23-3.88,1.38-5.65,4.9-5.71,7.8-.14,15.6-.03,23.4-.08,2.37-.02,2.65,1.41,2.64,3.25-.03,3.98,0,7.97,0,11.95h.02Z"/>
      <path class="cls-13" d="M174.89,464.18c0,3.66-.24,7.34.07,10.98.34,3.97-2.07,5.36-5.05,4.95-7.21-1-14.43.14-21.63-.59-2.9-.29-4.24-1.17-4.21-4.15.08-7.15.14-14.31-.02-21.46-.08-3.72,1.89-5.22,5.12-5.27,7.65-.13,15.31-.01,22.96-.07,2.27-.02,2.8,1.19,2.78,3.15-.05,4.16-.01,8.32-.01,12.48Z"/>
      <path class="cls-15" d="M176.14,415.51c-1.21,5.5-.14,11.08-.58,16.61-.23-.05-.47-.08-.71-.1-10.21-1.32-20.47-.15-30.7-.62l-.05-1.96c1.18-1.33,1.15-2.66.02-4.01,0-1.33,0-2.66,0-3.99,1.14-1.33,1.11-2.66.02-4.01-.11-.63-.23-1.25-.34-1.88,10.78-.02,21.56-.04,32.34-.05Z"/>
      <path class="cls-11" d="M193.84,448.7c4.35-.09,8.71-.18,13.06-.27.02,9.31-.04,18.62.11,27.92.05,2.93-.81,4.01-3.92,4.13-11.29.43-11.28.56-11.31-10.64-.01-5.32,0-10.64-.04-15.96-.02-2.05.06-4,2.11-5.19Z"/>
      <path class="cls-13" d="M144.12,421.44c0,1.33,0,2.66,0,3.99,0,1.34-.02,2.67-.02,4.01.02.65.03,1.3.05,1.96.16,1.86,1.73.76,2.56,1.22-6.29-.16-12.59-.31-18.89-.47-.01-.29-.1-.56-.27-.8.01-.98.02-1.96.04-2.93.44-3.32.47-6.63-.02-9.94.14-1,.28-2,.43-3,0,0,.16.22.16.22,5.15.02,10.3.04,15.46.06l.18-.18c.11.63.23,1.25.34,1.88,0,1.33-.02,2.67-.02,4.01Z"/>
      <path class="cls-2" d="M127.56,431.35c.17.24.25.51.27.8-16.92.1-33.85.19-50.77.3-3.48.02-6.96.12-10.45.18-1-.65-2.84.83-3.26-1.29,21.41,0,42.82,0,64.22,0Z"/>
      <path class="cls-13" d="M222.56,453.76v37.49c-.13,0-.26,0-.39,0v-37.66c.13.06.26.12.39.17Z"/>
      <path class="cls-2" d="M146.71,432.62c-.83-.46-2.4.64-2.56-1.22,10.23.48,20.49-.69,30.7.62-9.38.2-18.76.4-28.15.6Z"/>
      <path class="cls-13" d="M223.03,495.61c-.74-.16-1.59-.19-1.59-1.26,0-.12.18-.32.29-.34,1.15-.18.97.9,1.34,1.46,0,0-.04.14-.04.14Z"/>
      <path class="cls-1" d="M93.04,240.37c3.01,1.36,5.99,1.99,9.35.88,4.6-1.53,7.38.55,7.64,5.31.03.5.01,1,.01,1.5.01,10.21.02,10.43,10.31,10.18,4.1-.1,5.26,1.92,5.64,5.17.21,1.8-.18,3.69.07,5.48.47,3.26,1.66,5.17,5.86,4.8,6.93-.6,13.95-.4,20.93-.2,3.97.11,6.38,2.05,6.22,6.62-.24,6.65.03,13.31-.11,19.96-.06,3.19,1.16,4.49,4.39,4.46,15.01-.15,12.28,1.5,12.52-11.79.1-5.49-.1-10.98.06-16.47.1-3.36-1.04-5.09-4.58-4.74-.66.07-1.33.02-2,.02-8.48.03-10.18-1.68-9.04-9.85.44-3.12,3.39-3,5.84-3.39,2.96-.47,6.3,1.5,8.9-1.32.62-.18,1.23-.37,1.85-.56,1.28.3,2.56.69,3.86.88,3.53.53,8.09-1.6,10.41,1.08,2.21,2.54.66,6.98.69,10.58.02,2.57.96,3.53,3.52,3.47,3.8-.09,7.6.07,11.4.12.01,20.94.02,41.89.04,62.83-1.78.33-3.4,1.13-5.31,1.12-40.54-.09-81.08-.12-121.62-.16,0-10.62,0-21.24,0-31.86,0-9.11.16-18.22-.04-27.32-.08-3.61.93-5.12,4.73-4.88,3.78.24,7.6-.1,11.4-.18,0,7.5-.02,14.99.03,22.49.07,10.85-1.53,9.77,10.41,9.94,3.09.04,4.62-.95,4.57-4.29-.12-8.16-.08-16.33,0-24.49.03-2.91-1.06-4.36-4.1-4.23-3.66.15-7.32.16-10.98.23.01-3.79-.07-7.58.08-11.37.1-2.64-.66-3.83-3.59-3.89-4.03-.07-9.25,1.93-11.78-1.09-2.39-2.86-.5-7.93-.71-12.02-.03-.66,0-1.32,0-1.98,3.63-.6,7.49,1.17,10.96-1.06.72,0,1.45.01,2.17.02ZM134.77,305.4c-5.97,0-11.97.31-17.92-.1-4.91-.34-6.66,1.45-5.91,6.15.16.97-.02,1.99.06,2.98.29,3.35,1.44,5.29,5.52,5.18,10.78-.3,21.57,0,32.36-.12,11.64-.13,9.81,2.16,10.06-10.37.06-2.8-.97-3.81-3.77-3.76-6.8.13-13.61.04-20.41.04Z"/>
      <path class="cls-8" d="M62.84,367.97c.17-4.37.33-8.74.5-13.11.72-2.08,2.32-2.43,4.29-2.37,4.09.13,8.18.12,12.27.17.01,8.95.13,17.9-.02,26.85-.06,3.61,1.18,5.11,4.89,4.99,5.96-.19,11.93-.05,17.9-.05,7.76,0,8.17-.39,8.23-8.44.06-7.79.06-15.58.09-23.37,25.58-.03,51.17-.01,76.75-.16,3.91-.02,4.21,2.05,4.21,5.05-.03,14.29.03,28.57.07,42.86,0,0-.34.03-.34.03-10.92,0-21.85,0-32.77,0-.02-5.37-.03-10.75-.05-16.12.02-4.15-.05-8.31.08-12.46.08-2.53-.86-3.41-3.45-3.55-11.46-.64-11.45-.72-11.44,10.51,0,1.83.05,3.65.08,5.48-.06,3.63-.32,7.27-.11,10.88.24,3.98-1.68,5.32-5.29,5.3-3.63-.02-7.26.05-10.89.09-21.48,0-42.97,0-64.45.01,0,0-.42-.14-.42-.14-.04-10.82-.08-21.64-.12-32.46Z"/>
      <path class="cls-15" d="M16.05,352.34c-.28-1.28.38-2.7-.61-3.87-.04-12.89-.07-25.78-.14-38.67-.01-1.8-.26-3.6-.4-5.4,1.34.17,2.68.34,4.02.51.7.74,1.39.74,2.09,0,1.63,0,3.27-.01,4.9-.02.37.51.74.5,1.12.01.62,0,1.25.02,1.87.02.37.49.73.51,1.09,0,1.13-.17,2.26-.33,3.39-.5.67.18,1.33.35,2,.53,5.05.54,10.1.58,15.15-.02,1.94,0,3.89,0,5.83,0h.14c1.86-.08,3.72-.15,5.57-.23.28.11.57.18.87.23.12,10.55.24,21.09.36,31.64-.65,5.42.52,10.93-.74,16.32-.31-.03-.59-.13-.84-.31-.18-.58-.42-1.67-.55-1.66-3.98.36-8.22-1.02-11.89,1.61-.48.39-.97.77-1.45,1.16-.27-.17-.56-.25-.87-.26-5,0-10.01,0-15.01.01-4.95-.06-9.9-.13-14.86-.19-.35-.3-.7-.61-1.04-.91Z"/>
      <path class="cls-1" d="M110.99,352.65c-.03,7.79-.03,15.58-.09,23.37-.06,8.05-.47,8.45-8.23,8.44-5.97,0-11.94-.15-17.9.05-3.71.12-4.95-1.38-4.89-4.99.15-8.95.03-17.9.02-26.85,10.36,0,20.72-.01,31.09-.02Z"/>
      <path class="cls-8" d="M63.3,336.58c-.12-10.55-.24-21.09-.36-31.64,0,0,.08-.47.08-.47.37-.02.75-.04,1.12-.06,5.24.03,10.49.05,15.73.08,0,10.62,0,21.24,0,31.86-5.53.08-11.05.15-16.58.23Z"/>
      <path class="cls-12" d="M206.77,272.56c-3.8-.05-7.6-.21-11.4-.12-2.55.06-3.49-.9-3.52-3.47-.03-3.6,1.51-8.04-.69-10.58-2.32-2.67-6.88-.55-10.41-1.08-1.3-.19-2.57-.58-3.86-.88,0-3.3-.13-6.59,0-9.88.14-3.76,1.66-6.27,6-6.07,3.03.14,6.07.03,9.11.03-.05,4.33-.03,8.65-.17,12.97-.09,2.79,1.18,3.68,3.86,3.92,3.65.33,8.55-1.98,10.64,1.41,1.65,2.69.5,7.11.56,10.76.02.99-.07,1.99-.12,2.99Z"/>
      <path class="cls-12" d="M79.87,304.49c-5.24-.03-10.49-.05-15.74-.08.59-1.55,2.66-3.46-.95-4.03.02-.66.03-1.32.05-1.98,1.1-2.95,1.1-5.89,0-8.84,0-.73,0-1.46,0-2.19.94-.97.9-1.92-.03-2.87,0-.69-.02-1.38-.02-2.07,1.22-4.66,1.15-9.32.07-13.99.03-2.67.06-5.35.09-8.02,1.68-1.33,1.78-2.46-.41-3.32l-.05.03c.06-1.19.11-2.39.17-3.58.11-.12.32-.25.31-.34-.05-.28-.19-.54-.3-.81.01-2.94.02-5.88.03-8.82,1.51-2.45,3.61-3.34,6.55-3.13,3.41.24,6.85-.03,10.28-.08-.01.35-.02.69-.03,1.04,0,.66-.03,1.32,0,1.98.21,4.09-1.68,9.16.71,12.02,2.53,3.03,7.75,1.02,11.78,1.09,2.93.05,3.69,1.25,3.59,3.89-.14,3.79-.06,7.58-.08,11.36,0,0,.06.35.06.35-3.8.09-7.62.42-11.4.18-3.81-.24-4.81,1.27-4.73,4.88.21,9.1.05,18.21.04,27.32Z"/>
      <path class="cls-11" d="M63.24,287.38c0,.73,0,1.46,0,2.19-.51,2.95-.52,5.89,0,8.84-.02.66-.03,1.32-.05,1.98-.16,1.19-.33,2.38-.49,3.57-.21.25-.42.51-.63.76-1.86.08-3.72.15-5.57.23,0,0-.14,0-.14,0-1.94,0-3.89,0-5.83,0-5.05-.51-10.1-.53-15.16.02-.67-.18-1.33-.35-2-.53-.51-.84-1.46-1.68-1.47-2.52-.11-8.99-.09-17.97-.06-26.96,0-1.9,1.2-2.53,2.98-2.49,3.15.07,6.31-.04,9.46.08,2.95.11,4.23-1.2,4.29-4.13.23-10.66.26-10.67,10.9-11.17,1.14-.05,2.28-.07,3.43-.1,0,0,.05-.02.05-.02.14,1.11.27,2.21.41,3.31-.03,2.67-.06,5.35-.09,8.02-.61,4.66-.51,9.32-.07,13.99,0,.69.02,1.38.02,2.07,0,.96.02,1.91.03,2.87Z"/>
      <path class="cls-14" d="M21.01,304.91c-.69.75-1.39.75-2.09,0,.7,0,1.39,0,2.09,0Z"/>
      <path class="cls-7" d="M63.08,252.39c.11.27.25.53.3.81.02.09-.2.23-.31.34,0-.38,0-.77,0-1.15Z"/>
      <path class="cls-14" d="M29.99,304.92c-.36.51-.73.5-1.09,0,.36,0,.73,0,1.09,0Z"/>
      <path class="cls-14" d="M27.03,304.9c-.38.49-.75.5-1.12-.01.37,0,.75,0,1.12.01Z"/>
      <path class="cls-5" d="M175.61,48.43c-5.29.18-12.02,2.29-15.46-.69-3.57-3.11-.73-10.03-1.24-15.26,5.68,0,11.36.02,17.03.02-.11,5.31-.23,10.62-.34,15.93Z"/>
      <path class="cls-5" d="M158.97,32.53c-.16,0-.33.01-.49,0-4.67-.46-10.81,2.1-13.67-1.13-2.75-3.11-.66-9.11-.8-13.83,4.75.07,10.93-2.04,13.87.75,3.22,3.05.73,9.36,1.09,14.22Z"/>
      <path class="cls-12" d="M62.84,367.97c.04,10.82.08,21.64.12,32.46-8.33,0-16.65,0-24.98.03-3.23.01-5.98-.29-4.36-4.72.1-.28-.04-.65-.07-.98-.66-7.47,1.41-9.35,9.4-8.47,1.43.16,2.72.24,2.97-1.65,2.96-.65,2.53-2.96,2.56-5.11q.11-11.08,10.88-11.37c1.16-.03,2.32-.12,3.49-.18Z"/>
      <path class="cls-9" d="M46.96,353.43c.31,0,.6.09.87.26.08,2.32.22,4.64.22,6.96,0,7.02-.02,7.02-6.98,7.27-1.02-.38-2.03-.42-3.03.06-.7-.03-1.4-.06-2.09-.09.16-.15.18-.32.05-.5,1.95-.22,2.22-4.67,4.82-2.33,1.37,1.23,2.35,1.67,3.74.99,1.77-.87,2.89-2.54,2.29-4.45-.89-2.81-.21-5.46.11-8.17Z"/>
      <path class="cls-9" d="M49.28,352.54c3.67-2.63,7.91-1.25,11.89-1.61.13-.01.36,1.08.55,1.66-4.15.38-8.29.39-12.44-.05Z"/>
      <path class="cls-5" d="M30.84,367.93c.31-.18.62-.37.92-.55,1.41,0,2.82.01,4.23.02.13.18.12.35-.05.5-1.7,1.01-3.4.82-5.11.03Z"/>
      <path class="cls-5" d="M38.04,367.99c1-.49,2.01-.45,3.03-.06-.99.75-2.01.78-3.03.06Z"/>
      <path class="cls-11" d="M111.77,240.55c15.91-.11,31.81-.22,47.72-.34,3.8.07,7.6.18,11.4.2,2.48.01,3.97.59,3.97,3.65,0,4.05.82,8.12-.54,12.11-3.82.02-7.66.25-11.46,0-3.43-.23-4.27,1.38-4.37,4.39-.39,10.69-.44,10.71-11.34,10.92-4.49.08-8.98-.04-13.46.1-3.94.13-5.72-1.25-5.52-5.54.46-9.86.3-9.87-9.58-9.87-7.19,0-7.26-.08-6.95-7.22.12-2.8-.76-5.62.14-8.4Z"/>
      <path class="cls-4" d="M79.91,241.41c.01-.35.02-.69.03-1.04,3.64,0,7.28,0,10.93-.01-3.47,2.22-7.33.46-10.96,1.05Z"/>
      <path class="cls-13" d="M206.82,32.58c5.29-.04,10.58-.07,15.87-.11.05,1.66.14,3.32.14,4.98.03,12.44-.37,12.72-13.12,11.25-2.18-.25-2.82-1.17-2.81-3.16.03-4.32-.05-8.64-.08-12.96Z"/>
      <path class="cls-2" d="M63.39,400.57c21.48,0,42.97,0,64.45-.01.11,5.04.22,10.09.32,15.13,0,0-.16-.22-.17-.22-21.63-.01-43.25-.03-64.88-.04,0,0-.32.18-.32.19.2-5.01.39-10.03.59-15.04Z"/>
      <path class="cls-7" d="M223.88,144.41c-.04-4.15-.2-8.3-.08-12.45.08-2.62-.96-3.53-3.5-3.47-4.31.11-8.63,0-12.95-.01-.92-4.97-.23-9.97-.4-14.96,2.65-2.4,5.27.23,7.94.12,8.29-.32,16.6-.11,24.9-.1-.02,9.97-.03,19.94-.04,29.91-5.2,1.8-10.58.65-15.87.96Z"/>
      <path class="cls-2" d="M158.91,400.44c10.92,0,21.85,0,32.77,0,.08,3.98.11,7.96.27,11.94.07,1.68-.29,2.94-2.08,3.39-4.57-.09-9.15-.17-13.72-.26-10.78.02-21.56.04-32.34.05,0,0-.18.18-.18.18.1-3.47.53-6.97.23-10.41-.36-4.12,1.32-5.23,5.12-4.92,3.29.27,6.62.03,9.94.02Z"/>
      <path class="cls-2" d="M36,367.4c-1.41,0-2.82,0-4.23-.02.06-4.65.12-9.29.18-13.94,5,0,10.01,0,15.01-.01-.33,2.72-1,5.36-.11,8.17.6,1.91-.52,3.58-2.29,4.45-1.39.68-2.37.24-3.74-.99-2.6-2.34-2.87,2.12-4.82,2.33Z"/>
      <path class="cls-2" d="M16.05,352.34c.35.3.69.61,1.04.91-.64.03-.94-.33-1.04-.91Z"/>
      <path class="cls-15" d="M63.12,415.43c21.63.01,43.25.03,64.88.04-.14,1-.28,2-.43,3-1.08,3.32-1.1,6.63.02,9.94-.01.98-.02,1.96-.04,2.93-21.41,0-42.82,0-64.22,0-.01-.63-.03-1.27-.04-1.9.11-.1.33-.22.31-.29-.06-.25-.2-.49-.31-.73-.06-4.33-.12-8.67-.17-13Z"/>
      <path class="cls-2" d="M63.29,428.43c.11.24.25.47.31.73.02.07-.2.19-.31.29,0-.34,0-.68,0-1.01Z"/>
      <path class="cls-5" d="M239.86,80.56c0,4.15-.13,8.3.05,12.44.12,2.85-1,3.99-3.76,3.68-.33-.04-.66,0-.99,0-14.8-.48-11.67,3.06-12.13-12.71-.08-2.58.83-3.57,3.43-3.48,4.47.15,8.95.08,13.43.1,0,0-.01-.01-.01-.01Z"/>
      <path class="cls-7" d="M96.07,113.65c-.11,4.88-.22,9.76-.33,14.64-5.25.07-10.5.14-15.75.21-.22-3.13.13-6.24-.5-9.41-.65-3.24.3-5.86,4.63-5.59,3.97.25,7.97.12,11.96.15Z"/>
      <path class="cls-2" d="M205.93,113.55c-.21.8-.33,1.63-1.49,1.57-28.9-1.41-57.83-.22-86.74-.66-1.91-.03-4.02.72-5.71-.91,15.97-.09,31.95-.18,47.92-.27,5.34.47,10.68.49,16.03-.01,10,.09,20,.18,30,.27Z"/>
      <path class="cls-7" d="M175.94,113.28c-5.34.51-10.68.49-16.03.01,5.34-1.18,10.68-1.17,16.03-.01Z"/>
      <path class="cls-7" d="M110.91,113.19c-4.33.57-8.66.46-12.99.09,4.32-1.2,8.65-1.1,12.99-.09Z"/>
      <path class="cls-2" d="M144.12,421.44c0-1.34.02-2.67.02-4.01,1.08,1.34,1.12,2.68-.02,4.01Z"/>
      <path class="cls-2" d="M144.1,429.44c0-1.34.02-2.67.02-4.01,1.13,1.34,1.16,2.68-.02,4.01Z"/>
      <path class="cls-14" d="M158.91,400.44c-3.31.01-6.65.25-9.94-.02-3.8-.31-5.48.8-5.12,4.92.3,3.44-.12,6.93-.23,10.41-5.15-.02-10.31-.04-15.46-.06-.11-5.04-.21-10.09-.32-15.13,3.63-.03,7.26-.11,10.88-.09,3.6.02,5.52-1.32,5.29-5.3-.21-3.61.05-7.25.11-10.88,4.91,0,9.82.02,14.74.02.02,5.37.03,10.75.05,16.12Z"/>
      <path class="cls-2" d="M127.59,428.42c-1.12-3.31-1.1-6.63-.02-9.94.49,3.31.46,6.63.02,9.94Z"/>
      <path class="cls-4" d="M134.77,305.4c6.8,0,13.61.09,20.41-.04,2.8-.05,3.82.96,3.77,3.76-.25,12.54,1.58,10.24-10.06,10.37-10.79.12-21.58-.17-32.36.12-4.08.11-5.23-1.83-5.52-5.18-.09-.99.09-2.01-.06-2.98-.76-4.71.99-6.49,5.91-6.15,5.95.41,11.94.1,17.92.1Z"/>
      <path class="cls-4" d="M95.97,272.11s-.06-.36-.06-.35c3.66-.07,7.32-.08,10.98-.23,3.04-.13,4.13,1.32,4.1,4.23-.08,8.16-.12,16.33,0,24.49.05,3.34-1.49,4.33-4.57,4.29-11.94-.17-10.34.92-10.41-9.94-.05-7.5-.02-14.99-.03-22.49Z"/>
      <path class="cls-4" d="M158.86,384.32c-4.91,0-9.83-.02-14.74-.02-.03-1.83-.07-3.65-.08-5.48-.02-11.23-.02-11.14,11.44-10.51,2.6.14,3.53,1.02,3.45,3.55-.13,4.15-.06,8.3-.08,12.46Z"/>
      <path class="cls-14" d="M35.38,304.95c5.05-.54,10.11-.52,15.16-.02-5.06.6-10.11.56-15.16.02Z"/>
      <path class="cls-14" d="M56.36,304.95s.15,0,.14,0c0,0-.14,0-.14,0Z"/>
      <path class="cls-14" d="M62.07,304.72c.21-.25.42-.51.63-.76.12.16.23.34.32.52,0,0-.08.47-.08.47-.3-.05-.59-.12-.87-.23Z"/>
      <path class="cls-7" d="M63.02,304.48c-.09-.18-.19-.36-.32-.52.16-1.19.32-2.37.49-3.56,3.61.57,1.54,2.47.95,4.03-.37.02-.74.04-1.12.06Z"/>
      <path class="cls-7" d="M63.19,282.43c-.43-4.67-.54-9.33.07-13.99,1.07,4.67,1.15,9.33-.07,13.99Z"/>
      <path class="cls-7" d="M63.24,298.41c-.51-2.95-.51-5.9,0-8.84,1.09,2.95,1.1,5.9,0,8.84Z"/>
      <path class="cls-7" d="M63.36,260.42c-.13-1.1-.27-2.21-.41-3.31,2.19.85,2.09,1.99.41,3.31Z"/>
      <path class="cls-7" d="M63.24,287.38c-.01-.96-.02-1.91-.03-2.87.93.95.97,1.9.03,2.87Z"/>
    </g>
  </g>
</svg>