<?xml version="1.0" encoding="UTF-8"?>
<svg id="Capa_2" xmlns="http://www.w3.org/2000/svg" viewBox="0 0 266.24 487.05">
  <defs>
    <style>
      .cls-1 {
        fill: #8c6339;
      }

      .cls-2 {
        fill: #c59c6e;
      }

      .cls-3 {
        fill: #fff;
      }

      .cls-4 {
        fill: #1b1733;
      }

      .cls-5 {
        fill: #676868;
      }

      .cls-6 {
        fill: #442516;
      }

      .cls-7 {
        fill: #bc904d;
      }

      .cls-8 {
        fill: #831c19;
      }

      .cls-9 {
        fill: #fcddb1;
      }

      .cls-10 {
        fill: #bb2429;
      }

      .cls-11 {
        fill: #060707;
      }

      .cls-12 {
        fill: #ddbf9d;
      }

      .cls-13 {
        fill: #2d2f75;
      }

      .cls-14 {
        fill: #262523;
      }

      .cls-15 {
        fill: #2a295e;
      }
    </style>
  </defs>
  <g id="Capa_1-2" data-name="Capa_1">
    <g>
      <path class="cls-14" d="M250.06,78.19c.32.14.63.28.95.43-1.24,1.58-.96,3.44-.96,5.25,0,8.77,0,17.54-.01,26.31-4.97.58-10.1-1.19-14.96,1-1.31-.15-2.61-.35-3.92-.45-9.36-.73-18.73-1.27-28.07.27-29.37.02-58.73.05-88.1.07-2.32-.51-4.63-.45-6.94.05-2.94-.07-5.87-.13-8.81-.2-1.11-.85-2.21-.84-3.3.02-.66.07-1.32.14-1.98.22-3.78,0-7.58.19-11.35-.04-3.34-.2-4.89.81-4.58,4.4.28,3.27.12,6.58.15,9.87l.07,15.87c-4.25,1.07-8.58.36-12.87.43-2.5.04-3.51.62-3.42,3.34.14,4.3-.15,8.62-.26,12.94-4.88.06-9.76.11-14.64.17.02-36.63.03-73.27.05-109.9,3.32,0,6.65-.17,9.95.01,3.55.19,5.27-1.02,5.06-4.81-.23-4.14-.14-8.29-.18-12.44,0,0-.06.09-.06.09,2.15.04,4.29.12,6.44.12,10.51.02,10.42.01,9.84-10.5-.14-2.59-1.03-3.45-3.55-3.41-3.95.07-7.91-.13-11.87-.22,5.11-.29,10.23-.58,15.34-.87,3.37,1.22,6.87.99,10.35,1,5.8.01,6.23.49,5.59,6.29-.09.82-.59,1.63-.53,2.42.27,3.09.68,5.69,5.12,5.41,6.64-.42,13.32-.1,19.99-.11q7.57,0,6.54-7.72c-.72-5.39,1.06-7.58,6.45-6.8,3.17.46,6.29.3,9.43.49.03,3.82.12,7.64.06,11.46-.03,2.18.52,3.35,3.04,3.42,3.76.11,8.5-1.73,11.04.84,2.53,2.56.77,7.29.82,11.05.04,2.69,1.16,3.46,3.61,3.39,4.15-.13,8.3-.11,12.46-.15,5.36,1.74,10.87.79,16.32.95,4.72.06,10.32-1.93,13.86.91,2.61,2.1.72,7.49.76,11.4.03,2.74.86,3.88,3.7,3.76,4.12-.17,8.25-.06,12.37-.07.01,4.7.03,9.4.04,14.1.01,4.32.1,8.64,0,12.95-.05,2.37.94,3.05,3.24,3.22,12.87.95,12.87,1.01,12.77-11.63-.01-1.49-.12-2.98-.18-4.48,5.05-.04,10.11-.07,15.16-.11Z"/>
      <path class="cls-9" d="M61.7,157.95c.11-4.31.41-8.63.26-12.94-.09-2.71.92-3.3,3.42-3.34,4.29-.06,8.61.64,12.87-.43,3.95.75,7.94.7,11.94.74,3.02.03,4.13-1.26,4.02-4.23-.16-4.16-.03-8.33-.03-12.49,0,0,0,0,0,0,4.97-.05,9.94-.11,14.91-.16,31.33.03,62.65.06,93.98.09l.16-.09c-.01,4.3.09,8.6-.08,12.89-.1,2.56.76,3.57,3.37,3.47,4.13-.17,8.26-.08,12.39-.11l.2-.07.09,16.61c-.1,4.82-.21,9.64-.31,14.45-3.98,0-7.97.16-11.93-.05-2.97-.15-4.15.73-4,3.88.21,4.29-.07,8.61-.13,12.92-4.73.61-11.05-2.15-13.83,1.23-2.81,3.42-.74,9.58-.77,14.54,0,.17.03.33.05.5-.02,4.63-.03,9.25-.05,13.88-10.72,0-21.44.64-32.15-.12,0,0,.07.05.07.05-.48-4.7,2.06-11.06-1.09-13.7-3.01-2.52-9.15-.88-13.9-.38-4.15-.12-8.3-.3-12.45-.35-2.23-.03-3.77-.2-4,3.42-.22,3.58-.31,7.19-.46,10.79-4.84,2.64-10.06.54-15.06,1.17-5.07-1.24-10.18-1.01-15.3-.34-5.32-.1-10.64-.21-15.96-.31,0,0,.04-.18.04-.18.06-3.49-.02-6.99.23-10.46.24-3.19-1.23-4.04-4.11-3.91-3.98.19-7.97.14-11.96.2,0,0,.06-.3.06-.3-.08-5.6-.17-11.19-.25-16.79-.07-10.03-.15-20.06-.22-30.09ZM171.83,171.23c1.6,2.27,3.95,1.1,5.92,1.12,10.55.11,10.39.04,10.56-10.29.06-3.45-.84-4.85-4.33-4.3-.96.15-1.97-.05-2.96-.08.61-.21,1.21-.59,1.83-.61,5.92-.2,3.74-4.74,4.11-7.78.38-3.09-.34-5.9-4.18-5.99-6.32-.15-12.66-.3-18.96.08-4.47.27-7.08,2.48-6.85,7.79.22,5.07,1.07,10.19.14,15.29-.68,3.78,1.04,5.03,4.74,4.73,3.3-.27,6.65.01,9.97.05ZM116.64,172.42c1.16,0,2.36-.17,3.49.03,4.34.78,5.18-1.19,5.04-5.17-.33-9.49-.14-9.5-9.64-9.52-1.16,0-2.34.12-3.49,0-2.43-.23-3.27.84-3.01,3.18.15,1.31.03,2.66.03,3.99q.01,7.5,7.59,7.49Z"/>
      <path class="cls-15" d="M47.33,435.16c0-.71.02-1.42.03-2.14,2.38-2.61,1.08-6.71,3.72-9.21,3.67-.35,7.34-.69,10.98.23,1.12,1.41,2.7,1.06,4.16,1.06,18.29,0,36.59,0,54.88-.06,1.24,0,2.71.54,3.62-.92.28-.36.55-.72.83-1.07,5.11.17,10.22.35,15.33.52,1.98.48,3.96.76,5.96.06,8.15-.03,16.3-.07,24.45-.1l.41.27.49-.09c.98.04,1.97.08,2.95.12l.43.08.4-.16c1.74.05,3.47.1,5.21.15.53.35,1.08,1.02,1.58.99,4.98-.35,5.79,2.43,5.41,6.59-.26,2.79.08,5.64.14,8.46-.11,3.37-.22,6.73-.32,10.1-.47-.67-1.39-1.39-1.33-2,.8-7.79-3.7-8.97-10.14-9.24-2.59-.11-3.37.67-4.4,2.29-9.34-2.27-18.81-.56-28.22-.92-1.44-.06-1.72,1.21-1.89,2.46-1.1,8.04.87,16.13-.4,24.19-.19,1.19.3,3.28,2.37,3.21,9.41-.31,18.89,1.26,28.24-.9,2.44,2.72,5.54,2.98,9.01,3.02,5.05.06,4.63-3.57,5.33-6.68.12-.52.93-.88,1.42-1.31.97,2.2-1.09,5.04,1.46,6.92,4.41,1.5,8.81,3.17,13.21-.03.85-2.75.29-5.57.42-8.36.34-7.54-.64-15.11.56-22.63h0c4.97.02,11.27-1.78,14.52.59,3.15,2.3.87,9,.93,13.75.13,10.47-.02,20.95-.05,31.43-1.24,1.61-3.02,1.12-4.62,1.12-59.53.02-119.06.02-178.58,0-1.61,0-3.37.46-4.67-1.05-.04-13.97-.03-27.94-.19-41.91-.03-2.49.88-3.6,3.2-3.83,3.25,1.82,6.79.81,10.17.85,2.85.03,3.8,1.05,3.73,3.81-.14,5.64-.1,11.29-.08,16.93.04,10.03-.84,8.44,8.53,8.3,7.24-.11,14.57,1.15,21.74-.92,2.59,2.86,6.15,3.36,9.48,2.8,7.21-1.23,14.45-.44,21.66-.98.35.04.7.09,1.05.13,4.46,1.55,8.91,1.54,13.37-.03,2.47-1.45.51-4.04,1.5-5.87.42,1,.85,2.01,1.41,3.36.4-1,1.01-1.76.92-2.44-.9-7.38-.87-14.7.01-22.12.37-3.06-1.19-6.06-5.56-5.91-3.43.12-6.9.53-10.34-.47-1.43-.41-2.96.11-3.35,1.99-8.59-1.25-17.24.28-25.83-.5-1.88-.17-2.96,1.21-4.36,1.97-5.95-2.16-12.11-.77-18.16-.92-4.98-.12-10.01.57-12.73-5.01Z"/>
      <path class="cls-11" d="M47.11,48.22c-.02,36.63-.03,73.27-.05,109.9.09,10.09.18,20.17.26,30.26-.04,5.53-.08,11.05-.12,16.58-.04.72-.09,1.44-.13,2.16.02,3.68.03,7.36.05,11.04-1.2,1.4-3.01.59-4.42,1.2-1.07.41-2.13.41-3.2,0-2.68-.06-5.35-.12-8.03-.18-.94-3.6-.44-7.27-.35-10.89.07-2.73-.92-3.44-3.44-3.31-3.15.17-6.34-.13-9.48.1-2.75.2-3.45-.92-3.3-3.45.19-2.99-.17-6.01.12-8.98.32-3.25-1.06-3.79-3.98-3.81-10.96-.1-10.95-.2-10.95-11.17,0-25.97.09-51.94-.09-77.9-.03-3.99.75-5.46,5.08-5.34,9.88.27,9.88.03,9.88-9.64,0-5.83.16-11.66-.07-17.48-.12-2.92.93-3.54,3.65-3.62,4.07-.11,9.63,1.99,11.8-.9,2.02-2.69.58-7.97.7-12.11.02-.82.21-1.63.32-2.44,5.24-.02,10.47-.04,15.71-.06l.05.05Z"/>
      <path class="cls-6" d="M30.87,265.21c.15-4.31-1.23-9.8.91-12.58,2.01-2.61,7.8-.65,11.93-.73,2.59-.05,3.72-.9,3.38-3.49-.02-.16-.01-.33,0-.5.24-3.95-1.62-8.94.74-11.56,2.23-2.48,7.25-.62,11.03-.72,2.37-.06,3.21-.82,3.13-3.21-.14-4.15-.01-8.31,0-12.47,0,0,.13-.24.13-.24.93-.06,1.86-.13,2.79-.19.78.7,1.56.71,2.34-.02,3.57-.07,7.13-.13,10.7-.2,0,0-.04.18-.04.18.76,5.51-1.13,11.21,1.2,16.6-.82,2.72-1.04,5.49-1.03,8.34.05,25.92.14,51.84-.08,77.76-.04,4.23.8,6.94,5.13,7.86-.5.75-1.27,1.26-2.11,1.02-6.22-1.73-12.56-.6-18.84-.92-.14-10.37-.27-20.74-.41-31.1.08-14.64.13-29.28.27-43.91.02-2.25-.53-3.16-3.02-3.3-11.6-.67-11.59-.76-11.85,10.83,0,.33-.04.67,0,1,.26,2.12-.54,3.01-2.78,2.89-3.15-.16-6.33.12-9.48-.1-3.14-.22-3.99,1.05-3.87,4.03.21,5.48.06,10.98.07,16.47.01,11.91.01,12.04-11.67,11.9-3.39-.04-4.52.7-4.47,4.33.17,14.3-.02,28.61-.08,42.92-4.84-.06-9.68-.12-14.52-.18-.09-14.81-.14-29.62-.33-44.43-.03-2.44,1.14-2.56,3.02-2.67,3.89-.23,9.19,1.87,11.27-1.12,1.89-2.72.57-7.69.6-11.67.05-5.49.11-10.99,0-16.48-.05-2.28.58-3.81,3.03-3.01,4.18,1.37,8.18.03,12.25-.31.96.13.8-.46.65-1.03Z"/>
      <path class="cls-11" d="M141.01,17.18c-3.14-.19-6.25-.03-9.43-.49-5.39-.78-7.17,1.41-6.45,6.8q1.03,7.71-6.54,7.72c-6.66,0-13.35-.31-19.99.11-4.44.28-4.85-2.32-5.12-5.41-.07-.78.43-1.6.53-2.42.65-5.8.21-6.28-5.59-6.29-3.48,0-6.99.23-10.35-1-.02-1.33-.05-2.66-.06-3.99-.02-11.73-.02-11.56,11.54-11.77,3.7-.07,4.95.8,4.77,4.64-.17,3.7-1.82,8.68.81,10.86,2.22,1.84,6.98.69,10.61.73,5.32.06,10.65-.08,15.97.04,2.31.05,3.92-.22,3.33-3.1-.03-.16,0-.33,0-.5.1-3.98-1.35-9.4.69-11.57,2.64-2.81,8.16-.91,12.43-.97,9.81-.13,19.64.15,29.44-.13,3.86-.11,4.75,1.14,4.62,4.8-.3,8.31-.13,16.63-.15,24.95,0,.34,0,.67,0,1.01h0c-4.29.03-8.59,0-12.88.15-2.36.08-2.99-.94-3.2-3.2-.33-3.63,1.99-8.59-1.33-10.57-2.83-1.69-7.39-.5-11.18-.56-.82-.01-1.65.1-2.47.16Z"/>
      <path class="cls-1" d="M202.8,189.1c.07-4.31.34-8.62.13-12.92-.15-3.16,1.03-4.03,4-3.88,3.97.2,7.96.05,11.93.05.14,1.64.28,3.28.43,4.92,0,12.92,0,25.85-.01,38.77.16,2.5-.49,4.22-3.51,3.79-.48-.07-.99,0-1.48,0q-11.16.08-11.17,11.39c0,1.64-.12,3.29-.18,4.93-4.97-.03-9.94-.05-14.91-.08-5.32-1.55-10.62-1.1-15.92.13-5.26-1.83-10.76.05-16.07-1.03,0-5.35,0-10.69.01-16.04,10.71.75,21.43.12,32.15.12,4.61-.11,10.54,1.49,13.49-.78,3.47-2.67.99-8.89,1.14-13.56l-.03-15.81Z"/>
      <path class="cls-6" d="M203.3,251.95c3.83-.03,7.68.17,11.48-.15,3.44-.29,4.47.73,4.44,4.3-.18,21.15-.06,42.3-.1,63.45-.02,8.82-.17,17.63-.26,26.45-.69-.08-1.38-.16-2.06-.23-1.83-.88-3.67-.86-5.5,0-1.17,0-2.34,0-3.5,0-4.2-.16-5.18-2.52-4.81-6.36.33-3.39.02-6.83,0-10.25l.1-56c1.28-1.33,1.35-2.64-.03-3.95l-.23-2.87c.06-4.7.12-9.41.18-14.11l.3-.27Z"/>
      <path class="cls-6" d="M62.05,424.05c-3.64-.92-7.31-.58-10.98-.23-.72-3.05-2.53-.26-3.74-.7-.08-4.14-.28-8.28-.21-12.42.04-2.11-.57-2.99-2.78-2.89-3.15.14-6.32-.18-9.45.06-3.04.24-4.01-.72-3.94-3.85.19-8.96.04-17.92.02-26.88,4.29-.12,8.58-.39,12.86-.29,2.64.06,3.42-.87,3.37-3.42-.09-4.28.14-8.57.24-12.86,4.87-.11,9.73-.21,14.6-.32.03,10.94.06,21.87.09,32.81.05,4.7.09,9.41.14,14.11-.39,5.36-.43,10.72,0,16.09-.2.21-.25.46-.17.74l-.03.05Z"/>
      <path class="cls-2" d="M47.43,360.56c-.1,4.29-.34,8.58-.24,12.86.06,2.55-.73,3.49-3.37,3.42-4.28-.1-8.57.18-12.86.29-3.64-.05-7.31-.42-10.91-.08-4.3.4-5.67-1.35-5.1-5.34.14-.97,0-1.98,0-2.98,0-8.62.9-7.82-8.12-7.85-6.76-.02-6.79,0-6.75-6.54.02-2.81.19-5.61.28-8.42,4.84.06,9.68.12,14.52.18,5.39.02,10.78.03,16.17.05q.07,14.32,14.51,14.04c.49,0,.98-.07,1.47-.11.13.15.26.31.38.47Z"/>
      <path class="cls-11" d="M219.07,78.23c-.01-4.7-.03-9.4-.04-14.1.01-3.99.2-7.99-.01-11.97-.16-3.03.82-4.07,3.93-4,8.97.2,17.96.11,26.94.14.06,9.96.12,19.92.18,29.88-5.05.04-10.11.07-15.16.11-5.27-.02-10.55-.04-15.83-.06Z"/>
      <path class="cls-4" d="M47.33,435.16c2.72,5.58,7.74,4.89,12.73,5.01,6.05.15,12.21-1.24,18.16.92.02,9.36.03,18.72.05,28.07-7.17,2.07-14.5.81-21.74.92-9.37.14-8.49,1.73-8.53-8.3-.02-5.64-.07-11.29.08-16.93.07-2.76-.88-3.78-3.73-3.81-3.39-.04-6.92.97-10.17-.85,2.61-.07,5.27-.47,7.83-.13,4.01.53,5.78-.84,5.33-4.9Z"/>
      <path class="cls-5" d="M249.87,48.3c-8.98-.03-17.96.06-26.94-.14-3.11-.07-4.09.97-3.93,4,.21,3.98.03,7.98.01,11.97-4.12.01-8.25-.1-12.37.07-2.84.12-3.67-1.03-3.7-3.76-.04-3.91,1.86-9.31-.76-11.4-3.54-2.84-9.14-.85-13.86-.91-.1-5.68-.2-11.36-.3-17.04,0,0-.08.08-.08.08,4.95,1.13,9.99,1.05,15.02,1.09.08,4.33.17,8.66.25,12.99-.21,1.44.39,2.13,1.86,2.02,3.98,0,7.95,0,11.93.01.73-.04,1.46-.08,2.19-.12,8.77.01,17.55-.03,26.32.1,1.43.02,3.33-1.06,4.34,1.04Z"/>
      <path class="cls-11" d="M250.04,110.17c0-8.77,0-17.54.01-26.31,0-1.8-.28-3.67.96-5.25,3.03,0,6.07,0,9.1,0,.97.91,1.93.89,2.91,0,.69,0,1.38.01,2.06.02.24.19.49.37.73.56.6,10.32.53,20.65.03,30.97-5.26.02-10.51.03-15.77.05l-.04-.04Z"/>
      <path class="cls-11" d="M202.98,32.26c-5.03-.04-10.07.04-15.02-1.09.02-3.82.18-7.64.03-11.44-.1-2.45.83-3.12,3.18-3.09,8.3.11,16.61.12,24.91,0,2.39-.04,3.24.71,3.11,3.11-.21,3.81-.17,7.63-.23,11.44-5.31.55-10.77-1.1-15.97,1.07Z"/>
      <path class="cls-11" d="M235.08,111.17c4.86-2.19,9.99-.43,14.96-1,0,0,.04.04.04.04-.09.32-.09.64-.02.96-.11,9.99-.23,19.98-.34,29.97-4.82-.03-9.65-.06-14.48-.08-.05-9.96-.1-19.92-.15-29.88Z"/>
      <path class="cls-14" d="M235.23,141.06c4.82.03,9.65.06,14.47.09-3.43,1.67-7.06.59-10.59.66-2.81.06-4.2.48-3.99,3.78.25,3.93,1.3,10.27-.54,11.38-4.3,2.62-10.17.81-15.41.92-.03-5.54-.06-11.07-.09-16.61,5.38-.07,10.76-.15,16.14-.22Z"/>
      <path class="cls-7" d="M203.11,363.23c.02,13.6-.04,27.2.11,40.8.03,3.05-.99,4.11-4.01,3.99-3.63-.14-7.28.14-10.92.24l-.33-.18s.08-.37.08-.37c-.03-4.87-.05-9.74-.08-14.61.07-.29.13-.58.19-.88,2.87,1.01,5.86.78,8.83.93,2.84.15,3.97-.73,4.41-3.76,1.07-7.27.97-14.46.14-21.71-.26-2.31-1.59-4.95,1.25-6.74.11.76.22,1.52.33,2.28Z"/>
      <path class="cls-11" d="M188.04,31.09c.1,5.68.2,11.36.3,17.04-5.45-.16-10.96.79-16.31-.95.01-5.33.03-10.66.04-15.99,0,0,0,0,0,0l.23.33s.38-.12.38-.12c5.12-.11,10.24-.21,15.36-.32Z"/>
      <path class="cls-14" d="M203.62,440.08h0c-5.1-.04-10.21-.08-15.31-.13-.07-2.82-.4-5.67-.15-8.46.38-4.16-.43-6.94-5.41-6.59-.5.04-1.05-.64-1.59-.98,1.67-2.89,4.5-1.42,6.83-1.81.36,1.26,1.27,1.67,2.47,1.6,4.02.66,8.05.48,12.09.09,1.54,5.35-.5,10.93,1.06,16.28Z"/>
      <path class="cls-6" d="M188.01,422.11c-2.33.39-5.16-1.09-6.83,1.81-1.74-.05-3.47-.1-5.21-.15-.28.03-.55.05-.83.07-.98-.04-1.97-.08-2.95-.11-.04-.2-.14-.38-.3-.51.17-5.33.35-10.65.52-15.98,5.21.16,10.43.32,15.64.47l-.08.37s.33.18.33.18c-.1,4.62-.19,9.23-.29,13.85Z"/>
      <path class="cls-11" d="M61.94,30.98c.05,4.15-.05,8.3.18,12.44.21,3.79-1.51,5-5.06,4.81-3.31-.18-6.64-.02-9.95-.01,0,0-.05-.05-.05-.05,0-.33.01-.67.02-1,.09-4.99.18-9.98.27-14.97.24-.2.48-.4.73-.61,1.01-.01,2.02-.03,3.04-.04.31.5.63.5.96.02,3.29-.2,6.58-.4,9.87-.59Z"/>
      <path class="cls-14" d="M202.98,32.26c5.2-2.17,10.66-.52,15.97-1.07,0,4.61-.01,9.22-.02,13.83-1.25.24-1.78,1.08-1.91,2.26-3.98,0-7.95,0-11.93-.01-.05-1.2-.54-2-1.86-2.02-.08-4.33-.17-8.66-.25-12.99Z"/>
      <path class="cls-2" d="M203.11,363.23c-.11-.76-.22-1.52-.33-2.28.08-4.94.16-9.89.24-14.83,1.59-.12,3.19-.24,4.78-.37,1.17,0,2.34,0,3.5,0,1.83,0,3.67,0,5.51,0,.69.08,1.38.16,2.06.23.08.82.22,1.64.25,2.46q.33,11.96-11.69,12.42c-1.92.07-3.66.12-4.32,2.35Z"/>
      <path class="cls-6" d="M188.03,236.07c4.97.03,9.94.06,14.91.08.12,5.26.24,10.53.36,15.79,0,0-.3.27-.3.27-2.39.07-4.56-.95-7.19-.31-5.72,1.39-8.93-1.94-7.49-7.69.73-2.91.41-5.45-.3-8.14Z"/>
      <path class="cls-11" d="M62.74,17.07c3.96.09,7.92.29,11.87.22,2.51-.04,3.4.82,3.55,3.41.58,10.52.67,10.52-9.84,10.5-2.15,0-4.29-.08-6.44-.12.51-4.66-1-9.43.86-14.01Z"/>
      <path class="cls-1" d="M62.12,219.71s-.13.24-.13.24c-3.99-.26-7.99-.52-11.98-.78-.74-.98-1.89-.77-2.89-1.02-.02-3.68-.03-7.36-.05-11.04.31-.6.62-1.21.92-1.81,4.73-.16,9.45-.31,14.18-.47,0,0-.06.3-.06.3,0,4.86,0,9.72.01,14.58Z"/>
      <path class="cls-9" d="M219.28,216.04c0-12.93,0-25.85.01-38.77,1.59,8.33.46,16.73.6,25.09.07,4.54.96,9.19-.62,13.69Z"/>
      <path class="cls-4" d="M47.33,423.12c1.21.44,3.02-2.35,3.74.7-2.65,2.5-1.35,6.6-3.72,9.21,0-3.3-.01-6.6-.02-9.9Z"/>
      <path class="cls-14" d="M250.05,111.17c-.07-.32-.06-.65.02-.96,5.26-.02,10.51-.03,15.77-.05-5.16,1.93-10.56.12-15.79,1.01Z"/>
      <path class="cls-14" d="M47.08,47.17c0,.33-.01.67-.02,1-5.24.02-10.47.04-15.71.06,5.14-1.89,10.54.09,15.72-1.05Z"/>
      <path class="cls-7" d="M202.56,423.8c-4.03.4-8.07.58-12.09-.09,4.04-.63,8.07-.79,12.09.09Z"/>
      <path class="cls-6" d="M47.13,218.15c1,.25,2.15.04,2.89,1.02-2.43.18-4.85,1.1-7.31.18,1.42-.61,3.22.2,4.42-1.2Z"/>
      <path class="cls-6" d="M31.47,219.17c2.68.06,5.35.12,8.03.18-2.69.5-5.37.76-8.03-.18Z"/>
      <path class="cls-11" d="M217.02,47.29c.13-1.18.67-2.02,1.91-2.26.09.71.19,1.43.28,2.14-.73.04-1.46.08-2.19.12Z"/>
      <path class="cls-14" d="M263.01,78.61c-.97.88-1.94.9-2.91,0,.97,0,1.94,0,2.91,0Z"/>
      <path class="cls-14" d="M265.81,79.19c-.24-.19-.49-.37-.73-.56.59-.27.87-.13.73.56Z"/>
      <path class="cls-14" d="M52.07,31.58c-.33.48-.65.47-.96-.02.32,0,.64.01.96.02Z"/>
      <path class="cls-14" d="M48.08,31.59c-.24.2-.48.4-.73.61-.11-.63.03-.95.73-.61Z"/>
      <path class="cls-5" d="M172.68,31.41l-.38.12-.23-.33c0-.34,0-.67,0-1.01.2.4.41.81.61,1.21Z"/>
      <path class="cls-9" d="M30.87,265.21c.14.57.31,1.16-.65,1.03.22-.34.44-.69.65-1.03Z"/>
      <path class="cls-2" d="M203.05,125.19c-31.33-.03-62.65-.06-93.98-.09-.43-4.66.99-9.45-1.02-13.99,2.31-.49,4.62-.55,6.94-.05,1.24,1.63,3.03,1.09,4.62,1.1,27.78.01,55.57,0,83.35-.02.03,4.35.05,8.7.08,13.05Z"/>
      <path class="cls-6" d="M203.05,125.19c-.03-4.35-.05-8.7-.08-13.05.04-.38.08-.77.12-1.15,9.34-1.54,18.71-.99,28.07-.27,1.31.1,2.62.3,3.92.45.05,9.96.1,19.92.15,29.88-5.38.07-10.76.15-16.14.22,0,0-.2.07-.2.07.11-4.14.09-8.28.36-12.4.21-3.17-1.2-4.03-4.11-3.9-3.97.17-7.96.05-11.94.06l-.16.09Z"/>
      <path class="cls-5" d="M172.07,31.2c-.01,5.33-.03,10.66-.04,15.99-4.15.04-8.31.02-12.46.15-2.45.08-3.57-.7-3.61-3.39-.05-3.76,1.71-8.49-.82-11.05-2.54-2.57-7.28-.72-11.04-.84-2.52-.08-3.07-1.25-3.04-3.42.06-3.82-.03-7.64-.06-11.46.82-.06,1.65-.17,2.47-.16,3.79.06,8.35-1.13,11.18.56,3.32,1.98,1,6.94,1.33,10.57.21,2.27.83,3.28,3.2,3.2,4.29-.14,8.59-.11,12.88-.15Z"/>
      <path class="cls-1" d="M47.33,188.38c-.09-10.09-.18-20.17-.26-30.26,4.88-.06,9.76-.11,14.64-.17.08,10.03.15,20.06.23,30.09-4.87.11-9.73.23-14.6.34Z"/>
      <path class="cls-7" d="M94.17,125.27c0,4.16-.13,8.33.03,12.49.11,2.97-.99,4.26-4.02,4.23-4-.04-7.99,0-11.94-.74-.02-5.29-.04-10.58-.06-15.87,5.33-.04,10.66-.07,15.99-.11Z"/>
      <path class="cls-5" d="M219.07,78.23c5.28.02,10.55.04,15.83.06.06,1.49.17,2.98.18,4.48.1,12.64.1,12.58-12.77,11.63-2.3-.17-3.29-.85-3.24-3.22.1-4.32,0-8.64,0-12.95Z"/>
      <path class="cls-6" d="M94.17,125.27c-5.33.04-10.66.07-15.99.11-.03-3.29.13-6.6-.15-9.87-.31-3.6,1.24-4.6,4.58-4.4,3.77.22,7.57.04,11.35.04.07,4.71.13,9.41.2,14.12,0,0,0,0,0,0Z"/>
      <path class="cls-7" d="M94.16,125.27c-.07-4.71-.13-9.41-.2-14.12.66-.07,1.32-.14,1.98-.21,1.1,0,2.2-.01,3.3-.02,2.94.07,5.87.13,8.81.2,2,4.54.58,9.34,1.01,13.99-4.97.05-9.94.11-14.91.16Z"/>
      <path class="cls-12" d="M203.09,110.99c-.04.38-.08.77-.12,1.15-27.78.01-55.57.04-83.35.02-1.59,0-3.39.54-4.62-1.1,29.37-.02,58.73-.05,88.1-.07Z"/>
      <path class="cls-1" d="M99.25,110.91c-1.1,0-2.2.02-3.3.02,1.1-.86,2.2-.87,3.3-.02Z"/>
      <path class="cls-12" d="M156.06,219.13c0,5.35,0,10.69-.01,16.04-15.59.03-31.18.05-46.77.08-.03-5.04-.07-10.08-.1-15.12,5-.63,10.21,1.47,15.06-1.17,5.62.75,11.26.41,16.9.2,5,.59,10,.51,15,.02l-.07-.05Z"/>
      <path class="cls-3" d="M171.83,171.23c-3.33-.04-6.67-.31-9.97-.05-3.7.3-5.42-.95-4.74-4.73.92-5.11.08-10.23-.14-15.29-.24-5.31,2.38-7.52,6.85-7.79,6.3-.38,12.64-.23,18.96-.08,3.84.09,4.56,2.9,4.18,5.99-.37,3.04,1.81,7.58-4.11,7.78-.61.02-1.22.4-1.83.61-.68-.1-1.36-.2-2.05-.3-.15-.57-.29-1.14-.44-1.7-.84.26-1.26.85-1.37,1.7-4.73-.57-5.69,1.94-5.24,6.04.28,2.57-.05,5.22-.1,7.83Z"/>
      <path class="cls-1" d="M79.12,236.08c-2.33-5.39-.44-11.09-1.2-16.6,5.32.1,10.64.21,15.96.31.12,5.32.23,10.63.35,15.95l-15.1.34Z"/>
      <path class="cls-1" d="M203.21,125.1c3.98,0,7.97.11,11.94-.06,2.9-.12,4.32.74,4.11,3.9-.27,4.12-.26,8.27-.36,12.4-4.13.02-8.27-.06-12.39.11-2.61.1-3.48-.91-3.37-3.47.17-4.29.07-8.59.08-12.89Z"/>
      <path class="cls-12" d="M47.33,188.38c4.87-.11,9.73-.23,14.6-.34.08,5.6.17,11.19.25,16.79-4.73.16-9.45.31-14.18.47-.25-.15-.51-.26-.79-.34.04-5.53.08-11.05.12-16.58Z"/>
      <path class="cls-7" d="M94.22,235.74c-.12-5.32-.23-10.63-.35-15.95,5.12-.68,10.22-.9,15.3.34.03,5.04.07,10.08.1,15.12-.2.09-.37.06-.51-.11-.58.09-1.15.18-1.73.27-4.27.11-8.54.22-12.81.33Z"/>
      <path class="cls-12" d="M202.8,189.1c0,5.27.02,10.54.03,15.81-4.86.15-9.71.31-14.57.46-.02-.17-.05-.33-.05-.5.03-4.96-2.04-11.13.77-14.54,2.78-3.38,9.1-.62,13.83-1.23Z"/>
      <path class="cls-10" d="M141.12,219.16c-5.64.21-11.27.55-16.9-.2.15-3.6.24-7.21.46-10.79.22-3.62,1.76-3.45,4-3.42,4.15.06,8.3.23,12.45.35,0,4.68,0,9.37,0,14.05Z"/>
      <path class="cls-11" d="M116.64,172.42q-7.58,0-7.59-7.49c0-1.33.12-2.67-.03-3.99-.26-2.34.59-3.41,3.01-3.18,1.15.11,2.33,0,3.49,0,9.5.02,9.31.03,9.64,9.52.14,3.98-.71,5.96-5.04,5.17-1.13-.2-2.32-.03-3.49-.03Z"/>
      <path class="cls-7" d="M62.12,219.71c0-4.86,0-9.72-.01-14.58,3.99-.05,7.98,0,11.96-.2,2.88-.14,4.35.72,4.11,3.91-.26,3.47-.17,6.97-.23,10.46-3.57.07-7.13.13-10.7.2-.78,0-1.56.01-2.33.02-.93.06-1.86.13-2.79.19Z"/>
      <path class="cls-11" d="M178.98,157.37c.68.1,1.37.2,2.05.3.99.04,2,.24,2.96.09,3.49-.55,4.38.86,4.33,4.3-.17,10.33-.01,10.4-10.56,10.29-1.97-.02-4.32,1.15-5.92-1.12.05-2.61.38-5.25.1-7.83-.45-4.1.51-6.61,5.24-6.04.6.43,1.2.43,1.81,0Z"/>
      <path class="cls-6" d="M141.12,219.16c0-4.68,0-9.37,0-14.05,4.76-.5,10.89-2.14,13.91.38,3.15,2.63.61,8.99,1.09,13.7-5,.49-10,.57-15-.02Z"/>
      <path class="cls-7" d="M188.26,205.37c4.86-.15,9.72-.3,14.57-.46-.15,4.67,2.34,10.89-1.14,13.56-2.95,2.27-8.88.67-13.49.78.02-4.63.03-9.25.05-13.88Z"/>
      <path class="cls-13" d="M78.27,469.17c-.02-9.36-.03-18.72-.05-28.07,1.41-.75,2.49-2.14,4.37-1.97,8.6.78,17.24-.75,25.83.5.19.11.39.21.6.3-.03,10.36-.79,20.72.39,31.06-7.2.54-14.45-.25-21.66.98-3.33.57-6.89.06-9.48-2.8Z"/>
      <path class="cls-4" d="M172.23,469.15c-9.35,2.15-18.83.59-28.24.9-2.07.07-2.56-2.02-2.37-3.21,1.27-8.06-.71-16.15.4-24.19.17-1.25.45-2.52,1.89-2.46,9.4.37,18.88-1.34,28.22.92.04,9.35.07,18.7.11,28.04Z"/>
      <path class="cls-9" d="M172.4,407.24c-.17,5.33-.35,10.65-.52,15.98-.33-.09-.53.02-.6.32-8.15.03-16.3.07-24.45.1-3.74-.02-5.74-1.54-5-5.61.1-.55-.38-1.21-.59-1.82,0-1.71,0-3.43,0-5.14.86-.81.58-1.86.61-2.85,10.12-2.34,20.39-.04,30.55-.99Z"/>
      <path class="cls-3" d="M109.4,470.99c-1.18-10.34-.42-20.71-.39-31.06,1.82-.02,3.67-.27,5.45-.03,3.61.5,7.49-1.52,10.84,1.18,0,1.62,0,3.25-.01,4.87,0,6.42.02,12.84.03,19.27-.99,1.83.97,4.41-1.49,5.87-4.45.01-8.91.02-13.37.03-.35-.04-.7-.09-1.05-.13Z"/>
      <path class="cls-13" d="M172.23,469.15c-.04-9.35-.07-18.69-.11-28.04,1.03-1.62,1.81-2.4,4.4-2.29,6.43.26,10.94,1.45,10.14,9.24-.06.62.86,1.33,1.33,2,0,4.71,0,9.42,0,14.13-.49.43-1.3.79-1.42,1.31-.69,3.11-.28,6.73-5.33,6.68-3.46-.04-6.57-.3-9.01-3.02Z"/>
      <path class="cls-3" d="M187.99,464.19c0-4.71,0-9.42,0-14.13.11-3.37.21-6.73.32-10.1,5.11.04,10.21.09,15.32.13-1.2,7.52-.21,15.09-.56,22.63-.13,2.79.44,5.61-.41,8.36-4.4,0-8.81.02-13.21.03-2.54-1.87-.49-4.71-1.46-6.92Z"/>
      <path class="cls-14" d="M141.24,411.07c0,1.71,0,3.43,0,5.14-.12,2.46-.25,4.91-.37,7.37-5.11-.17-10.22-.35-15.33-.52-.2-.18-.39-.16-.57.04.1-4.99.2-9.98.3-14.97,5.21.02,10.43.04,15.64.06,0,0,.29-.07.29-.07.01.99.02,1.98.03,2.96Z"/>
      <path class="cls-4" d="M125.31,441.09c-3.35-2.7-7.24-.69-10.84-1.18-1.78-.25-3.64,0-5.45.03-.2-.09-.4-.19-.6-.3.4-1.88,1.93-2.4,3.36-1.99,3.44,1,6.91.59,10.34.47,4.37-.15,5.93,2.85,5.56,5.91-.89,7.42-.91,14.74-.01,22.12.08.68-.53,1.44-.92,2.44-.56-1.34-.99-2.35-1.41-3.36,0-6.42-.02-12.84-.03-19.26,1.13-1.62,1.06-3.25.01-4.87Z"/>
      <path class="cls-4" d="M124.72,424.13c-.91,1.46-2.38.91-3.62.92-18.29.05-36.59.06-54.88.06-1.46,0-3.04.35-4.16-1.06,0,0,.03-.05.03-.05,1.21-.08,2.41-.16,3.62-.23,16.58-.01,33.17-.03,49.75-.04,3.09.14,6.17.27,9.26.41Z"/>
      <path class="cls-4" d="M189.44,471.1c4.41-.01,8.81-.02,13.21-.03-4.4,3.2-8.81,1.53-13.21.03Z"/>
      <path class="cls-4" d="M110.46,471.12c4.46,0,8.92-.02,13.37-.03-4.46,1.57-8.91,1.58-13.37.03Z"/>
      <path class="cls-2" d="M140.87,423.58c.12-2.46.25-4.92.37-7.37.21.61.69,1.27.59,1.82-.74,4.07,1.26,5.6,5,5.61-2,.7-3.98.42-5.96-.06Z"/>
      <path class="cls-2" d="M124.72,424.13c-3.09-.14-6.17-.27-9.26-.41,3.11-1.15,6.37-.09,9.52-.63.18-.2.37-.22.57-.04-.28.36-.55.72-.83,1.07Z"/>
      <path class="cls-2" d="M171.28,423.54c.07-.31.28-.42.6-.32.16.14.26.31.3.51,0,0-.49.09-.49.09l-.41-.27Z"/>
      <path class="cls-14" d="M175.13,423.84c.28-.02.56-.04.83-.07,0,0-.41.15-.41.15l-.43-.08Z"/>
      <path class="cls-6" d="M47.21,204.96c.28.08.54.19.79.34-.31.61-.62,1.21-.92,1.81.04-.72.09-1.44.13-2.16Z"/>
      <path class="cls-9" d="M31.06,346.16c-5.39-.02-10.78-.03-16.17-.05.06-14.31.25-28.62.08-42.92-.04-3.63,1.09-4.37,4.47-4.33,11.69.13,11.69,0,11.67-11.9,0-5.49.14-10.99-.07-16.47-.12-2.98.73-4.26,3.87-4.03,3.15.22,6.33-.06,9.48.1,2.24.11,3.04-.78,2.78-2.89-.04-.33,0-.67,0-1,.26-11.59.26-11.5,11.85-10.83,2.49.14,3.04,1.05,3.02,3.3-.15,14.64-.19,29.28-.27,43.91-3.32,0-6.66.24-9.96-.06-3.8-.35-4.79,1.1-4.74,4.78.16,14.11,0,28.22-.04,42.33-5.33.02-10.65.04-15.98.05Z"/>
      <path class="cls-8" d="M94.22,235.74c4.27-.11,8.54-.22,12.81-.33.64.59,1.27,1.18,1.91,1.77.09,4.93.18,9.85.27,14.78-2.06,12.15,1.31,15.46,13.21,12.95.8-.17,1.58-.48,2.37-.73.08.38.17.76.25,1.15-.19.15-.28.35-.26.59-5.29.11-10.58.22-15.88.34-.83-.01-1.65-.03-2.48-.03-13.44-.09-13.39-.09-12.44,13.35.17,2.45.87,3.6,3.49,3.54,3.8-.09,7.6.09,11.4.15.02,2.02.04,4.04.06,6.05-1.15,7.89-1.15,15.77,0,23.66.16,5.6.32,11.2.48,16.8-.14.15-.28.3-.43.45-8.62-.06-17.24-.12-25.86-.17-4.33-.92-5.17-3.63-5.13-7.86.22-25.92.13-51.84.08-77.76,0-2.85.21-5.62,1.03-8.34,5.04-.11,10.07-.23,15.11-.34Z"/>
      <path class="cls-2" d="M47.04,346.11c.04-14.11.2-28.22.04-42.33-.04-3.69.95-5.13,4.74-4.78,3.29.3,6.64.06,9.96.06.14,10.37.27,20.74.41,31.11-.02,5.02-.03,10.03-.05,15.05-.04,5.02-.07,10.03-.11,15.05-4.87.11-9.73.21-14.6.32-.12-.16-.25-.31-.38-.46,0-4.66,0-9.33,0-13.99Z"/>
      <path class="cls-14" d="M62.14,345.2c.02-5.02.03-10.03.05-15.05,6.28.31,12.62-.81,18.84.92.84.23,1.6-.27,2.11-1.02,8.62.06,17.24.12,25.86.17-.06,5.2-.12,10.41-.18,15.61-14.61.09-29.23.19-43.85.22-.94,0-1.88-.55-2.83-.85Z"/>
      <path class="cls-1" d="M64.92,219.52c.78,0,1.56-.01,2.33-.02-.77.73-1.55.71-2.33.02Z"/>
      <path class="cls-9" d="M125.05,265.32c-.08-.38-.17-.76-.25-1.14.45-3.35.49-6.7.03-10.05.35-2.43-1.39-2.14-2.83-2.13-3.94.04-7.87.14-11.81.22-.32-.09-.65-.18-.97-.26-.09-4.93-.18-9.85-.27-14.78-.06-.68-.12-1.36-.18-2.04.14.17.31.2.51.11,15.59-.03,31.18-.05,46.77-.08,5.31,1.07,10.81-.81,16.07,1.03,0,4.98,0,9.96,0,14.94-.44.35-.88.7-1.31,1.05-4.74-.08-10.57-2.03-13.87.75-2.66,2.25-.47,8.12-.81,12.38-.35.39-.71.78-1.06,1.17-2.98,0-5.97,0-8.95,0-5.04-.51-10.08-.58-15.12,0-1.81.01-3.62.02-5.43.03-.17-.4-.34-.8-.5-1.2Z"/>
      <path class="cls-8" d="M172.11,251.14c0-4.98,0-9.96,0-14.94,5.3-1.22,10.6-1.68,15.92-.13.71,2.69,1.03,5.23.3,8.14-1.44,5.75,1.77,9.08,7.49,7.69,2.63-.64,4.8.38,7.19.31-.06,4.7-.12,9.41-.18,14.11-1.32-.03-2.64-.09-3.97-.1-10.27-.06-10.37-.05-10.66-10.11-.09-2.97-1.01-4.19-4.04-4.06-4.03.18-8.08.05-12.04-.93Z"/>
      <path class="cls-10" d="M172.11,251.14c3.96.98,8.01,1.1,12.04.93,3.03-.13,3.96,1.09,4.04,4.06.29,10.05.4,10.05,10.66,10.11,1.32,0,2.65.06,3.97.1.07.96.15,1.92.22,2.87.01,1.32.02,2.63.03,3.95-.03,18.67-.07,37.33-.1,56-1.62,1-3.42.95-5.24.95-8.51.03-17.02.29-25.48-1-.1-4.68-.19-9.36-.29-14.03,1.48-1.91,3.57-.96,5.42-1.17,3.62-.41,7.37.95,10.9-.79,1.14-9.54,1.03-19.07.03-28.61-.29-.63-.59-1.26-.87-1.89-4.07-.92-8.17-.44-12.27-.22l-1.61-.17c-1.92-4.44.37-9.32-1.45-13.77l-.33-1.57c-.33-.32-.65-.65-.98-.97-2.31-1.46-4.87-.72-7.27-.6-4.13.21-6.21-1.43-6.57-5.54-.4-4.58,2.26-6.09,6.18-6.65,2.54-.36,5.28.96,7.64-.92.44-.35.88-.7,1.31-1.05Z"/>
      <path class="cls-8" d="M172.27,329.09c8.46,1.29,16.97,1.03,25.48,1,1.81,0,3.62.05,5.24-.95.03,3.42.34,6.87,0,10.25-.37,3.85.61,6.2,4.81,6.36-1.6.12-3.19.24-4.78.37-4.92,0-9.85,0-14.77-.01-26.37.04-52.73.07-79.09.11-.12-.12-.23-.25-.34-.39.06-5.2.12-10.41.18-15.61.15-.15.29-.3.43-.45,4.88.03,9.75.07,14.62.1,10.78.3,21.56.54,32.34-.16,5.29-.29,10.63.73,15.88-.62Z"/>
      <path class="cls-8" d="M216.81,345.77c-1.84,0-3.67,0-5.51,0,1.84-.86,3.67-.87,5.51,0Z"/>
      <path class="cls-8" d="M203.08,273.14c-.01-1.32-.02-2.63-.03-3.95,1.38,1.3,1.32,2.62.03,3.95Z"/>
      <path class="cls-8" d="M62.14,345.2c.94.3,1.89.85,2.83.85,14.62-.03,29.23-.13,43.85-.22.1.13.22.26.34.38-.05,15.48-.11,30.96-.16,46.43l-46.87.41c-.03-10.94-.06-21.88-.09-32.81.04-5.02.07-10.03.11-15.05Z"/>
      <path class="cls-9" d="M124.97,423.09c-3.15.54-6.41-.52-9.52.63-16.58.01-33.16.03-49.74.04-1.03-.99-2.3-.39-3.46-.51-.43-5.36-.39-10.72,0-16.09,20.86,0,41.71,0,62.57.01.15.31.3.63.45.94-.1,4.99-.2,9.98-.3,14.97Z"/>
      <path class="cls-12" d="M124.83,407.18c-20.86,0-41.71,0-62.57-.01-.05-4.7-.09-9.41-.14-14.11,15.62-.14,31.25-.27,46.87-.41,5.3.14,10.61.29,15.92.43-.03,4.7-.05,9.4-.08,14.1Z"/>
      <path class="cls-2" d="M62.25,423.26c1.16.12,2.43-.48,3.46.51-1.21.08-2.42.16-3.62.23-.09-.28-.03-.52.17-.74Z"/>
      <path class="cls-12" d="M47.04,346.11c0,4.66,0,9.33,0,13.99-.49.04-.98.1-1.47.11q-14.45.27-14.51-14.04c5.33-.02,10.65-.04,15.98-.05Z"/>
      <path class="cls-11" d="M203.23,45.25c1.32.03,1.81.83,1.86,2.02-1.47.1-2.07-.59-1.86-2.02Z"/>
      <path class="cls-12" d="M172.4,407.24c-10.16.95-20.43-1.35-30.55.99-.21-.04-.43-.08-.64-.11,0,0-.29.07-.29.07.13-4.7.26-9.41.39-14.11.22-.3.45-.61.67-.92,2.31-.15,4.61-.3,6.92-.46,9.44,0,18.88,0,28.32,0l4.28.02h.13c.95,0,1.91-.01,2.86-.02h.16c.88.06,1.76.12,2.64.17.2.14.42.22.66.23.03,4.87.05,9.74.08,14.61-5.21-.16-10.43-.32-15.64-.47Z"/>
      <path class="cls-1" d="M188.25,346.11c4.92,0,9.85,0,14.77.01-.08,4.94-.16,9.89-.24,14.83-2.84,1.79-1.52,4.42-1.25,6.74.83,7.25.93,14.44-.14,21.71-.45,3.03-1.58,3.91-4.41,3.76-2.97-.16-5.95.07-8.83-.94,0,0-.08-.08-.08-.08.06-15.34.11-30.69.17-46.03Z"/>
      <path class="cls-1" d="M187.97,393.1c-.24,0-.46-.08-.67-.23.26-.24.52-.49.78-.73,0,0,.08.08.08.08-.05.29-.12.59-.19.88Z"/>
      <path class="cls-9" d="M178.98,157.37c-.6.43-1.21.43-1.81,0,.11-.85.53-1.44,1.37-1.7.15.57.29,1.14.44,1.7Z"/>
      <path class="cls-1" d="M108.76,235.14c.06.68.12,1.36.18,2.04-.64-.59-1.27-1.18-1.91-1.77.58-.09,1.15-.18,1.73-.27Z"/>
      <path class="cls-2" d="M141.21,408.11c.22.04.43.07.64.11-.04.99.24,2.04-.61,2.85-.01-.99-.02-1.98-.03-2.96Z"/>
      <path class="cls-15" d="M125.31,441.09c1.05,1.63,1.11,3.25-.01,4.87,0-1.63,0-3.25.01-4.87Z"/>
      <path class="cls-6" d="M141.31,394.07c-.13,4.7-.26,9.41-.39,14.11-5.21-.02-10.43-.04-15.64-.06-.15-.31-.3-.63-.45-.94.03-4.7.05-9.4.08-14.1.04-1,.08-2,.11-3,3.51-2.7.11-6.13.94-9.15.41-1.48-.33-3.75,2.09-3.72,4.37.06,8.85-1.08,13.09.87l.16,9.07c-1.64,1.32-1.67,2.63,0,3.94,0,.62,0,1.24,0,1.86,0,.37,0,.74,0,1.11Z"/>
      <path class="cls-3" d="M124.05,329.87c-4.88-.03-9.75-.07-14.63-.1-.16-5.6-.32-11.2-.48-16.79,0-7.88,0-15.77,0-23.66-.02-2.02-.04-4.04-.06-6.06.06-5.42.12-10.83.19-16.24,5.33,0,10.65-.01,15.97-.01,0,19.4.02,38.8,0,58.2,0,1.6.48,3.36-1,4.67Z"/>
      <path class="cls-5" d="M109.07,267.02c-.06,5.41-.12,10.83-.19,16.24-3.8-.06-7.6-.25-11.4-.15-2.62.06-3.32-1.09-3.49-3.54-.95-13.44-1-13.44,12.44-13.35.83,0,1.65.02,2.48.03-.02.27.03.53.15.77Z"/>
      <path class="cls-10" d="M124.82,254.12c.46,3.35.43,6.7-.03,10.05-.79.24-1.56.56-2.37.73-11.91,2.51-15.28-.79-13.21-12.95.32.09.65.18.97.26,4.66,2.31,9.97-.34,14.64,1.91Z"/>
      <path class="cls-5" d="M108.95,289.32c0,7.89,0,15.77,0,23.66-1.16-7.89-1.15-15.77,0-23.66Z"/>
      <path class="cls-2" d="M109.07,267.02c-.12-.24-.17-.5-.15-.77,5.29-.11,10.58-.22,15.87-.34.24.23.47.47.69.72-.05.24-.19.37-.44.38-5.33,0-10.65.01-15.97.02Z"/>
      <path class="cls-2" d="M125.05,265.32c.17.4.34.8.51,1.2,0,0-.07.11-.07.11-.22-.25-.45-.48-.69-.72-.02-.24.06-.44.26-.59Z"/>
      <path class="cls-10" d="M125.48,266.62s.07-.11.07-.11c1.81,0,3.62-.02,5.42-.03,5.04.83,10.08.9,15.12,0,2.98,0,5.97,0,8.95,0,.17,5.14.34,10.29.5,15.44-.22.13-.43.26-.64.39-4.27-.23-8.55-.52-12.81.14-2.45,3.39-1.11,7.25-1.04,10.82.14,6.61-1.25,13.3.77,19.83.41.1.83.19,1.24.29,4.29,1.19,8.72-.05,13.04.72.09,5.2.18,10.4.27,15.6-10.78.69-21.56.45-32.34.16,1.48-1.31,1-3.07,1-4.67.02-19.4,0-38.8,0-58.2.25-.01.39-.14.44-.38Z"/>
      <path class="cls-8" d="M170.8,252.19c-2.35,1.88-5.09.55-7.64.92-3.93.56-6.59,2.07-6.18,6.65.36,4.11,2.44,5.75,6.57,5.54,2.39-.12,4.96-.86,7.27.6-4.9-.16-9.85.83-14.7-.57.34-4.25-1.85-10.13.81-12.38,3.29-2.78,9.13-.84,13.87-.75Z"/>
      <path class="cls-2" d="M156.12,265.32c4.85,1.4,9.8.41,14.7.57.33.32.65.65.98.98-.99.03-1.99.09-2.98.09q-12.51,0-12.56,12.22c-.23.91-.47,1.82-.7,2.73-.17-5.14-.34-10.29-.51-15.43.36-.39.71-.78,1.07-1.17Z"/>
      <path class="cls-8" d="M124.82,254.12c-4.67-2.25-9.98.4-14.64-1.91,3.94-.08,7.87-.17,11.81-.22,1.44-.02,3.18-.31,2.83,2.13Z"/>
      <path class="cls-2" d="M146.1,266.48c-5.04.9-10.08.84-15.12,0,5.04-.58,10.08-.52,15.12,0Z"/>
      <path class="cls-3" d="M187.44,282.59c.29.63.59,1.26.88,1.89-.2,9.51-.39,19.02-.59,28.53-3.65,0-7.3-.18-10.93.02-3.03.17-4.06-.93-3.98-3.97.17-7.29.05-14.58.05-21.88,0-1.82-.23-3.77,2.27-4.27,4.1-.11,8.23.75,12.31-.33Z"/>
      <path class="cls-3" d="M156.39,329.72c-.09-5.2-.18-10.4-.27-15.6.31-.21.62-.41.93-.62,1.7,0,3.39,0,5.09.01.3.55.6.52.91,0,1.34.01,2.68.03,4.02.04,1.64.5,3.28,1.01,4.92,1.51.1,4.68.19,9.36.29,14.03-5.25,1.35-10.59.33-15.88.62Z"/>
      <path class="cls-3" d="M156.26,279.18q.05-12.23,12.56-12.23c.99,0,1.99-.06,2.98-.09.11.52.22,1.05.33,1.57-.1,3.55-.19,7.1-.29,10.65-.42,2.85-2.61,3.07-4.82,3.26-3.28-.02-6.55-.04-9.83-.05-.31-1.04-.62-2.07-.93-3.11Z"/>
      <path class="cls-12" d="M167.02,282.34c2.21-.2,4.4-.42,4.82-3.27.55,1.06-.38,2.94,1.74,3.12.54.06,1.07.12,1.6.17-.02.18-.04.36-.05.55-2.5.5-2.27,2.44-2.27,4.27,0,7.29.12,14.59-.05,21.88-.07,3.04.95,4.14,3.98,3.97,3.63-.2,7.29-.03,10.93-.02.18.06.36.09.55.08-3.53,1.74-7.28.38-10.9.79-1.84.21-3.94-.74-5.42,1.17-1.64-.5-3.28-1.01-4.92-1.51,4.02.13,5.17-1.72,4.93-5.72-.4-6.64-.37-13.34,0-19.98.22-4.05-1.27-5.39-5.01-4.93.02-.19.03-.39.04-.58Z"/>
      <path class="cls-2" d="M188.29,313.1c-.19,0-.37-.02-.55-.08.2-9.51.39-19.03.59-28.53.99,9.54,1.11,19.08-.03,28.62Z"/>
      <path class="cls-2" d="M173.58,282.2c-2.12-.18-1.19-2.07-1.74-3.12.1-3.55.19-7.1.29-10.65,1.82,4.45-.48,9.33,1.45,13.77Z"/>
      <path class="cls-2" d="M175.13,282.93c0-.18.03-.37.05-.55,4.1-.22,8.2-.7,12.27.22-4.09,1.08-8.22.22-12.32.33Z"/>
      <path class="cls-10" d="M141.3,392.96c0-.62,0-1.24,0-1.86,1.12-1.31,1.07-2.63,0-3.94-.05-3.02-.11-6.05-.16-9.07-.02-4.64-.09-9.28-.03-13.91.04-3.21-2.09-4.21-4.53-3.87-3.8.53-8.32-2.35-11.32,2.16-.24.36-.18.98-.14,1.47.79,8.72-1.91,17.43-.1,26.15-.04,1-.07,2-.11,3-5.31-.15-10.61-.29-15.92-.44.05-15.48.11-30.96.16-46.43,26.36-.03,52.73-.07,79.09-.11-.05,15.34-.11,30.69-.17,46.03-.26.24-.52.49-.78.73-.88-.06-1.76-.11-2.64-.17,0,0-.08-.22-.08-.22l-.09.21c-.95,0-1.91.01-2.86.02,0,0-.07-.21-.07-.21l-.06.22c-1.43,0-2.85-.01-4.27-.02-9.44-.62-18.89-.61-28.34,0-2.31.15-4.61.3-6.92.46-.21-.12-.44-.18-.68-.19Z"/>
      <path class="cls-1" d="M148.9,392.7c9.45-.6,18.9-.61,28.34,0-9.45,0-18.89,0-28.34,0Z"/>
      <polygon class="cls-1" points="181.51 392.72 181.57 392.5 181.64 392.71 181.51 392.72"/>
      <polygon class="cls-1" points="184.5 392.7 184.58 392.49 184.66 392.7 184.5 392.7"/>
      <path class="cls-2" d="M141.3,392.96c.24.01.47.07.68.19-.23.31-.45.61-.67.92,0-.37,0-.74,0-1.11Z"/>
      <path class="cls-8" d="M125.02,390.09c-1.81-8.72.89-17.43.1-26.15-.04-.49-.1-1.1.14-1.47,3-4.51,7.52-1.63,11.32-2.16,2.44-.34,4.57.66,4.53,3.87-.06,4.64.01,9.28.03,13.91-4.24-1.96-8.72-.82-13.09-.87-2.42-.03-1.68,2.24-2.09,3.72-.84,3.02,2.57,6.45-.94,9.15Z"/>
      <path class="cls-8" d="M141.3,387.16c1.08,1.31,1.12,2.63,0,3.94-1.67-1.31-1.65-2.63,0-3.94Z"/>
      <path class="cls-3" d="M143.07,313.4c-.41-.1-.83-.19-1.24-.29.11-9.98.23-19.96.34-29.94,4.25-.07,8.49-.14,12.74-.2.12,6.97.31,13.94.35,20.91.05,8.97,0,8.96-8.75,9.13-1.15.02-2.29.25-3.44.39Z"/>
      <path class="cls-12" d="M143.07,313.4c1.14-.13,2.29-.37,3.44-.39,8.75-.17,8.81-.15,8.75-9.13-.04-6.97-.23-13.94-.35-20.91.05-.22.05-.44,0-.66.21-.13.42-.26.64-.39.24-.92.47-1.83.71-2.74.31,1.04.62,2.07.93,3.11-.05.21-.06.42-.04.64-1.25.99-.9,2.41-.84,3.66.43,8.96-1,17.98.74,26.91-.31.21-.62.41-.93.62-4.32-.77-8.75.47-13.04-.72Z"/>
      <path class="cls-12" d="M142.17,283.17c-.11,9.98-.22,19.96-.34,29.94-2.02-6.53-.63-13.23-.77-19.84-.07-3.57-1.41-7.43,1.04-10.82,0,.24.03.48.07.72Z"/>
      <path class="cls-2" d="M142.17,283.17c-.04-.24-.07-.48-.07-.72,4.27-.66,8.54-.37,12.82-.14.05.22.05.44,0,.66-4.25.07-8.49.14-12.74.2Z"/>
      <path class="cls-10" d="M157.04,313.49c-1.73-8.93-.31-17.94-.74-26.91-.06-1.25-.41-2.66.84-3.66,3.28.43,6.56.46,9.84,0,3.74-.46,5.23.87,5.01,4.93-.36,6.64-.39,13.34,0,19.98.24,4-.91,5.85-4.93,5.72-1.34-.01-2.68-.03-4.01-.04-.3,0-.61,0-.91,0-1.7,0-3.39,0-5.09-.01Z"/>
      <path class="cls-12" d="M162.13,313.5c.3,0,.61,0,.91,0-.31.52-.61.54-.91,0Z"/>
      <path class="cls-2" d="M166.98,282.92c-3.28.47-6.56.43-9.84,0-.02-.21,0-.43.05-.64,3.28.02,6.55.04,9.83.05,0,.19-.01.39-.04.58Z"/>
    </g>
  </g>
</svg>