<?xml version="1.0" encoding="UTF-8"?>
<svg id="Capa_2" xmlns="http://www.w3.org/2000/svg" viewBox="0 0 283.24 517.79">
  <defs>
    <style>
      .cls-1 {
        fill: #901f23;
      }

      .cls-2 {
        fill: #fddeb0;
      }

      .cls-3 {
        fill: #fff;
      }

      .cls-4 {
        fill: #f39426;
      }

      .cls-5 {
        fill: #202021;
      }

      .cls-6 {
        fill: #5d8754;
      }

      .cls-7 {
        fill: #59456c;
      }

      .cls-8 {
        fill: #aaa0b4;
      }

      .cls-9 {
        fill: #2c1b42;
      }

      .cls-10 {
        fill: #70171a;
      }

      .cls-11 {
        fill: #8ec089;
      }

      .cls-12 {
        fill: #b9712b;
      }

      .cls-13 {
        fill: #461716;
      }

      .cls-14 {
        fill: #5e3919;
      }

      .cls-15 {
        fill: #3b5a38;
      }

      .cls-16 {
        fill: #a77b4a;
      }
    </style>
  </defs>
  <g id="Capa_1-2" data-name="Capa_1">
    <g>
      <path class="cls-4" d="M265.78,78.9c0,1.38,0,2.76.01,4.14,0,14.98-.04,29.95,0,44.93.01,3.04-.46,5.12-4.28,5.1-19.14-.1-38.27-.06-57.41,0-2.57,0-3.61-.98-3.52-3.54.11-2.99-.01-5.99,0-8.98.02-2.57-1.26-3.83-3.74-3.3-6.44,1.37-12.93.57-19.39.64-11.63.13-11.83,0-11.62-11.62.09-4.76-1.34-6.32-6.21-6.28-23.3.22-46.6.29-69.89-.05-5.37-.08-6.33,1.71-6.2,6.51.31,11.4.08,11.66-11.5,11.36-5.01-.13-6.38,1.83-6.33,6.37.14,12.48,0,24.96.07,37.44,0,2.04-.19,3.97-1.05,5.81-4.4.65-8.79.78-13.14-.41,0-.74-.05-1.47-.81-1.89-.08-1.33-.23-2.65-.24-3.98-.1-11.36-.43-11.6-11.99-10.99-3.43.18-5.12,1.27-5.1,5.03.09,14.95-.04,29.91-.08,44.86-.24.27-.47.53-.71.8-4.98.01-9.97.03-14.95.04l-2-1.94c0-32.34,0-64.69,0-97.03.35-.4.7-.81,1.05-1.21,3.94-.23,7.89-.72,11.83-.61,3.34.09,4.28-1.18,4.22-4.35-.17-9.28-.1-18.57-.12-27.85l-.07.04c3.49-.01,6.98-.03,10.47-.04q7.57,0,7.54-7.67-.03-9.34,9.08-9.37,7.19-.02,6.32-7.27c-1.22-10.14-.79-10.61,9.43-10.6,11.63,0,23.27-.22,34.89.12,4.56.13,5.89-1.38,5.44-5.66-.33-3.12-.08-6.31-.09-9.46,2.5-.03,5-.09,7.49-.1,19.48-.1,38.97-.18,58.45-.27.47.15.93.3,1.4.45-.08,3.64-.03,7.29-.28,10.93-.2,3.02.92,4.11,3.97,4.05,7.46-.16,14.93-.04,22.39-.04,6.84,0,6.67,0,7.02,7.11.11,2.17.19,4.21-.26,6.34-.51,2.48.55,3.67,3.22,3.59,4.14-.12,8.29-.03,12.44-.02.38.04.77.07,1.15.11.03,4.47.17,8.95.03,13.42-.1,3.25,1.25,4.4,4.43,4.34,7.12-.14,14.25-.05,21.37-.04q7.52,0,6.73,7.21c.17,1.35.35,2.69.52,4.04,0,0-.04-.21-.04-.21Z"/>
      <path class="cls-1" d="M215.74,283.14c.89,5.72-.75,11.58.9,17.26.67,11.14-1.64,22.26-.12,33.4-9.65.04-19.31-.13-28.95.2-4.18.14-5.03-1.46-4.92-5.21.23-7.82,0-15.64.1-23.47.04-3.19-1.24-4.35-4.43-4.48-11.88-.48-11.88-.56-11.63,11.02.02.83,0,1.66,0,2.5,0,10.15-.02,20.31,0,30.46.01,5.91,1.34,6.98,7.21,5.86,1.14-.22,2.25-.66,3.39-.71,3.14-.12,4.92.69,5.65,4.54.88,4.6-.8,8.86-.32,13.27-5.29,0-10.57,0-15.86.01-1.14-2.83-1.08-5.8-1.07-8.78.04-9.47.01-9.47-9.6-9.09-.17,0-.33,0-.5,0-3.44-.02-5.08,1.42-4.98,5.12.12,4.26.69,8.61-.98,12.76-25.79.02-51.58.03-77.37.1-1.92,0-4.02-.7-5.72.9-.26.03-.52.03-.78,0-.07-.25-.08-.5-.05-.75-.25-5.37,1.56-10.64.85-16.04.05-.7.09-1.4.14-2.11,3.98,0,7.97-.11,11.94.07,2.89.12,4.23-.72,4.13-3.89-.48-14.8,2.6-11.79-12.22-12.17-.17,0-.33.02-.5,0-2.68-.27-3.45,1.12-3.38,3.58.11,4.14.04,8.29.05,12.44-1.99.72-4.03-2.33-6,.06-13.48,0-26.97-.12-40.45.04-3.47.04-4.75-1-4.57-4.53.25-5.15.07-10.32.07-15.48.02-11.9.02-12.06,11.81-12.07,4.42,0,6.15-2.01,6.02-5.97-.25-7.63.78-15.28-.64-22.88-.56-3.01.79-4.84,3.86-5.19,3.29-.37,6.59-.88,9.88-.86,3,.02,4.1-.95,4.08-4.03-.03-3.44-1.58-7.76.74-10.13,2.51-2.56,6.97-.87,10.56-.93,3.49-.05,4.51-1.45,4.68-4.8.19-3.76-1.81-7.51,0-11.25,3.49,0,6.98.07,10.47.02,4.56-.06,6.87,1.42,6.62,6.68-.43,9.29-.12,9.31,8.98,9.3,6.65,0,8.36-1.88,7.63-8.36-.85-7.5-.76-7.61,6.6-7.63,1.16,0,2.33,0,3.49,0,5.92.04,6.48.74,5.41,6.75-1.36,7.63-.02,9.24,7.68,9.23,1.66,0,3.34.15,4.98-.03,3.39-.36,4.15,1.23,4.19,4.36.12,10.73.22,10.73,11.15,10.69.17,0,.33-.02.5,0,4.63.62,6.87-1.06,6.33-6.05-.32-2.96-.05-5.97-.05-8.97,0,0-.01.01-.01.01,3.49,0,6.99-.14,10.48.02,3.01.13,4.32-1.39,4.47-4.09.25-4.49-.36-9.04,1.05-13.43.45-1.06,1.35-1.61,2.37-1.28,4.51,1.47,9.19.3,13.74.99.76,3.91,1.22,7.88.75,11.82-.55,4.62,2.04,6.36,5.74,5.79,3.99-.61,7.84.22,11.74-.04,0,0-.15-.15-.15-.15-.08,2.49-.21,4.97-.23,7.46-.07,7.93-.06,7.88,7.83,8,1.91.03,3.96-.7,5.75.71.65.51-.23,2.03,1.14,1.76.27-.05.25-1.53.36-2.35ZM125.31,316.94c9.71-.14,8.22,1.22,8.37-8.47.02-1.49,0-2.98-.02-4.46-.02-1.47-.73-2.55-2.08-3.09-4.89-1.98-9.95-1.45-14.4.64-3.3,1.56-.57,5.04-.52,7.66,0,.5.1,1.01.01,1.49-1.06,5.6,1.83,6.93,6.66,6.24.65-.09,1.32-.01,1.98-.01ZM191.06,283.91c-9.52.14-8.27-1.18-8.34,8.09-.06,7.94,0,7.99,8.82,7.94,9.27-.05,8.14,1.1,8.14-7.74,0-9.62,1.22-8.13-8.62-8.28ZM141.73,332.93c9.03.01,8.79,0,9.06-8.84.15-4.82-1.43-6.82-6.26-6.2-1.64.21-3.33.03-4.99.04-6.49.02-6.46.02-5.99,6.36.07.96-.19,1.97-.46,2.91-1.15,4.12.27,6.08,4.64,5.74,1.32-.1,2.66-.02,3.99,0ZM91.54,332.92c1.49,0,2.98-.02,4.48,0,1.94.03,4.01-.07,3.63-2.72-.57-4.04,1.83-8.47-1.57-12.13-.09-.1-.32-.09-.48-.09-4.3.08-9.24-1.1-12.7.64-3.05,1.54-.71,6.71-1.19,10.23-.4,2.89.69,4.43,3.85,4.08,1.31-.14,2.65-.02,3.98-.02Z"/>
      <path class="cls-12" d="M64.75,167.43c.86-1.85,1.06-3.78,1.05-5.81-.06-12.48.07-24.96-.07-37.44-.05-4.54,1.31-6.5,6.33-6.37,11.58.3,11.8.04,11.5-11.36-.13-4.81.83-6.59,6.2-6.51,23.29.34,46.59.27,69.89.05,4.86-.05,6.29,1.51,6.21,6.28-.21,11.63,0,11.74,11.62,11.62,6.46-.07,12.95.73,19.39-.64,2.48-.53,3.76.73,3.74,3.3-.02,3,.1,5.99,0,8.98-.09,2.56.95,3.55,3.52,3.54,19.14-.06,38.27-.09,57.41,0,3.82.02,4.29-2.07,4.28-5.1-.05-14.98-.01-29.95,0-44.93,4.65.02,9.31.14,13.96.02,2.57-.07,3.51.87,3.49,3.46-.08,14.63-.09,29.27-.02,43.9,0,2.19-.79,2.95-2.89,2.91-3.49-.08-6.99.11-10.47-.03-2.81-.11-3.92,1.09-3.85,3.81.09,3.32-.08,6.66.06,9.98.11,2.51-.66,3.85-3.38,3.46-.16-.02-.33-.02-.5-.02q-11.75.1-11.73,11.63c0,5.65-.16,11.32.05,16.96.13,3.32-1.13,4.25-4.32,4.27-4.44.02-8.96-.85-13.34.66,0,0-.25-.22-.25-.22,0,0,.09-.33.09-.33.08-9.81.07-19.63.29-29.44.07-3.13-1.5-3.5-4.01-3.48-8.16.06-16.32-.12-24.48.02-2.97.05-4.29-.77-4.06-3.92.22-2.98-.18-6.01.11-8.98.33-3.39-1.21-4.44-4.25-4.43-6.16.01-12.32-.08-18.48-.1-11.47-.04-11.6-.03-12.06-11.44-.12-3.04-.99-4.04-4.01-4.03-19.15.09-38.3.08-57.45,0-2.63-.01-3.93.56-3.95,3.55-.02,3.77,1.77,8.65-.83,11.05-2.73,2.52-7.66.9-11.58.75-3.9-.15-4.77,1.35-4.71,4.93.19,10.82.07,21.65.06,32.47,0,12.97-.01,12.82-13.13,12.77-3.71-.01-4.33-1.37-4.39-4.67-.07-3.69,1.34-7.62-1.04-11.11Z"/>
      <path class="cls-5" d="M232.96,516.7c-1.24,1.77-3.07.86-4.59.87-63.32.05-126.63,0-189.95.16-4.29.01-5.68-.82-5.56-5.41.35-13.49.2-26.99.03-40.48-.04-3.38.75-4.61,4.4-4.5,4.42.13,8.96.93,13.33-.6,2.37,1.67,5.09.96,7.68,1.11,8.16.5,16.38-1.05,24.49.8-8.81.1-17.62.39-26.41.21-3.84-.08-4.92,1.26-4.71,4.89.27,4.64.07,9.31.08,13.96.02,10.64-.05,11.13,10.53,12.63,6.72.95,13.74,1.78,20.49-.65,5.89.1,11.78.19,17.66.29,5.19.02,10.38.04,15.57.06,4.29-.02,8.58-.21,12.86-.02,3.07.13,3.91-1.08,4.01-4.02.14-4.06-1.03-8.22.67-12.19,8.08.4,16.15-.18,24.26.92,8.17,1.11,9.43,2.1,8.23,10.54-.45,3.16,2.37,6.55,4.7,5.2,4.48-2.6,8.65.12,12.91.05,5.57-.09,11.16.83,16.7-.56,4.12.07,8.25.04,12.37.26,2.77.15,3.29-1.2,3.25-3.58-.14-9.58-.16-19.17-.22-28.75h0c5.56-.07,11.12-.14,16.69-.21.25.05.41.2.49.43-.4,16.19-.44,32.39.04,48.59Z"/>
      <path class="cls-15" d="M82.79,468.64c-8.11-1.86-16.34-.3-24.49-.8-2.59-.16-5.31.55-7.68-1.11.03-.53.07-1.06.1-1.59-1.18-7.26-.47-14.58-.45-21.86.05-13.41-.6-26.84.32-40.24-.32-.75-.64-1.49-.96-2.24,1.46-4.32.87-8.8.85-13.21-.01-2.64.99-3.47,3.5-4.22,4.02-1.19,7.82.65,11.7.07.03,2.5.08,4.99.08,7.48,0,18.28,0,36.57.01,54.85,0,2.1-.49,4.9,2.69,4.9,5.08,0,10.22.99,15.23-.63,14.75.19,29.51.26,44.26.64,4.17.11,5.54-1.39,5.47-5.43-.17-9.12-.02-18.24,0-27.37,5.61.09,11.22.17,16.82.25.07,9.28.28,18.56.13,27.83-.06,3.45,1.03,4.75,4.48,4.65,9.27-.25,18.55-.29,27.83-.42,5.92,1.23,11.83.67,17.73-.16.44.13.87.26,1.31.39,4.57,1.08,9.2.32,13.8.42,0,0,.15.27.15.27.02,5.59.04,11.18.07,16.77h0c-5.13.04-10.26.09-15.39.14-21.26-.06-42.53-.11-63.79-.17-1.18,0-2.34.07-3.17,1.08-5.73-.04-11.45-.08-17.18-.12-5.34-1.75-10.67-1.9-15.99.06-5.74,0-11.49,0-17.23,0l-.2-.24Z"/>
      <path class="cls-13" d="M66.74,251.91c-1.8,3.73.19,7.48,0,11.25-.17,3.35-1.18,4.75-4.68,4.8-3.59.05-8.04-1.64-10.56.93-2.32,2.36-.77,6.69-.74,10.13.02,3.07-1.08,4.04-4.08,4.03-3.29-.02-6.59.49-9.88.86-3.07.35-4.42,2.18-3.86,5.19,1.43,7.6.4,15.26.64,22.88.13,3.96-1.6,5.97-6.02,5.97-11.79.01-11.79.17-11.81,12.07,0,5.16.18,10.33-.07,15.48-.17,3.53,1.1,4.57,4.57,4.53,13.48-.16,26.96-.05,40.45-.04,1.95.68,3.9,1.36,5.85,2.03.71,5.4-1.1,10.66-.85,16.04-5.05.05-10.1.1-15.16.15-6.3-.92-12.62-.43-18.93-.26-5.33-.62-10.66-.53-15.99-.04-3.48,0-6.97.1-10.44-.04-2.56-.1-3.47.9-3.55,3.47-.08,2.53,1.09,5.31-1.03,7.58-.12-19.48-.21-38.95-.41-58.43-.03-2.47.83-3.11,3.18-3.06,3.97.08,9.45,1.35,11.54-.7,2.73-2.67.78-8.18.91-12.46.2-6.82.18-13.64.26-20.46.47.13.64-.04.52-.51,4.32-.06,8.65-.27,12.96-.14,2.46.08,3.88-.41,3.43-3.2-.03-.16-.02-.33,0-.5.46-3.9-1.92-9.22.97-11.37,2.61-1.94,7.67-.92,11.61-.64,3.74.26,5.2-.86,4.74-4.67-.28-2.3.21-4.7-.12-6.98-.68-4.71,1.21-6.37,5.72-5.42.85.75,1.71.76,2.56,0,2.11,0,4.21,0,6.32.01.35.15.71.31,1.06.46.23.06.46.1.7.13.08.3.13.61.17.92Z"/>
      <path class="cls-16" d="M32.68,200.85c.24-.27.47-.53.71-.8,4.49.06,8.99.23,13.48.15,2.76-.05,3.96.96,3.83,3.8-.15,3.16.12,6.34-.07,9.49-.17,2.89,1.01,3.75,3.77,3.7,5.32-.1,10.65.09,15.97.18,3.82.07,8.62-1.22,11.2.62,3.11,2.21,1.14,7.38,1.2,11.25.05,3.12,1.15,3.93,4.11,3.94,8.31.02,16.62.46,24.93.5,2.9.02,4.32.74,4.12,3.93-.27,4.15-.21,8.32-.29,12.48-.42.24-.82.66-1.25.68-10.17.66-20.25-1.3-30.41-1.02-.39.01-.79-.52-1.18-.8.03-3.8-.05-7.6.13-11.39.13-2.76-.88-3.89-3.69-3.78-4.45.18-8.92.12-13.38.16-4.98-1.37-10.13.26-15.12-.89,0-3.95.03-7.9.01-11.85,0-1.13.18-2.92-1.07-2.96-5.52-.18-11.14-1.73-16.57.65-4.03-2.38-8.45-.98-12.66-1.08-3.49-.08-5.06-.72-4.86-4.7.2-3.89,1.8-8.77-.88-11.54-2.55-2.63-7.32-.91-11.1-.9-3.01,0-3.55-1.23-3.55-3.9C.11,165.95.11,135.15,0,104.35c-.01-3.61.81-4.73,4.78-4.3,10.72,1.15,10.86.83,10.87-9.99,0-5.82-.24-11.64-.19-17.46.02-1.99-.61-4.49,2.27-5.38.35,0,.7.01,1.06.02.97,0,1.94,0,2.91,0,.35.01.71.02,1.06.03.65,0,1.3,0,1.96,0,.7.4,1.39.36,2.05-.08,1.71-.01,3.41-.03,5.12-.04-.14.24-.18.5-.12.78-2.15,1.98-4.78.88-7.16.95-6.88.21-6.71.11-6.94,6.99-.27,8.27,1.07,16.61-.88,24.82-.35.4-.7.81-1.05,1.21-2.33.01-4.66.03-6.99.03q-7,0-7.01,6.82c0,26.48,0,52.95,0,79.43q0,12.63,12.63,11.33c.47-.05.92-.38,1.38-.58.67.65,1.33,1.29,2,1.94,0,3.8.01,7.6-.02,11.4-.01,1.94.12,4.01,2.74,3.6,4.02-.63,8.56,2.03,12.03-1.87.17-.19.09-.63.09-.96.04-4.07.07-8.15.1-12.22Z"/>
      <path class="cls-12" d="M115.71,17.99c.01,3.16-.23,6.34.09,9.46.45,4.28-.88,5.8-5.44,5.66-11.62-.34-23.26-.11-34.89-.12-10.22,0-10.64.46-9.43,10.6q.87,7.25-6.32,7.27-9.12.03-9.08,9.37.03,7.66-7.54,7.67c-3.49,0-6.98.02-10.47.04-.04-.36-.07-.71-.11-1.07,1.04-3.41.57-6.93.33-10.33-.33-4.74.67-7.05,6.14-6.42,3.69.42,7.59.59,11.34-.35,2.93-2.88,1.15-6.48,1.25-9.69.11-3.78,1.3-5.26,5.18-5.23,2.31.02,5.34,1.73,7-1.6.22-.21.46-.25.73-.12,5.15-1.7,2.62-6.04,3.18-9.31.33-1.92-.89-4.95,2.61-4.78,10.22.49,20.34-2.29,30.67-.39,4.72.87,9.88,1.3,14.68-.72l.07.06Z"/>
      <path class="cls-6" d="M200.42,450.04c-5.9.83-11.81,1.39-17.73.16.04-20.96.06-41.91.16-62.87,0-1.86-.42-3.23-2.1-4.08,6.33-.36,12.64-.52,18.91.75,2.16,5.32-.04,11,1.36,16.38-1.22,6.74-.41,13.54-.53,20.31-.17,9.78-.06,19.56-.07,29.35Z"/>
      <path class="cls-13" d="M216.52,333.8c-1.52-11.14.79-22.26.12-33.4,4.49-.05,8.99-.05,13.48-.18,2.05-.06,3.04.55,3.01,2.8-.22,22.31.55,44.62-.35,66.92-1.91-2.27-4.28-3.26-7.3-3.06-2.92.19-5.87.03-8.81.03-.05-.7-.1-1.4-.15-2.11-1.12-4.59-1.12-9.19-.03-13.78,0-5.74.01-11.48.02-17.23Z"/>
      <path class="cls-12" d="M181.66,17.62c-19.48.09-38.97.18-58.45.27-2.5.01-5,.06-7.49.1,0,0-.07-.06-.07-.06.09-.52.17-1.03.26-1.55.07-2.47.15-4.95.22-7.42.62-.07,1.22-.27,1.22-.99,0-.72-.61-.91-1.22-.99,0-1.34,0-2.68.01-4.02,1.61-.33,3.22-.94,4.83-.94,18.44-.07,36.87-.03,55.31-.08,3.74-.01,5.42,1.66,5.49,5.41.06,3.43-1.1,6.84-.1,10.26Z"/>
      <path class="cls-12" d="M231.57,50.04c-4.15,0-8.3-.1-12.44.02-2.68.08-3.74-1.11-3.22-3.59.44-2.13.37-4.17.26-6.34-.36-7.11-.18-7.11-7.02-7.11-7.46,0-14.93-.11-22.39.04-3.05.06-4.17-1.03-3.97-4.05.24-3.63.2-7.28.27-10.93.62-.06,1.25-.11,1.88-.17.79-.06,1.58-.12,2.38-.19.9-.02,1.79-.04,2.68-.06,13.11.1,26.23.21,39.35.31,3.67,8.05,2.48,16.5,1.79,24.84-.21,2.51-.62,4.86.44,7.22Z"/>
      <path class="cls-14" d="M232.7,183.5l-.09.33s.25.22.25.22c.06,15.28.05,30.57.23,45.85.03,2.76-1.03,3.37-3.47,3.28-4.32-.15-8.64-.09-12.96-.11-.49-5.05,1.09-10.22-.89-15.18.1-10.24.31-20.49.23-30.73-.02-2.96.67-4.2,3.83-3.97,4.28.3,8.58.22,12.87.31Z"/>
      <path class="cls-16" d="M15.64,367.91c5.33-.49,10.66-.58,15.99.04.37,1.08.9,2.14,1.08,3.25.62,3.81-1.87,9.07,1.41,11.14,2.88,1.82,7.73.52,11.71.59.5,0,1-.05,1.49,0,2.09.19,2.81-.47,2.73-2.8-.14-3.96.3-7.94.5-11.91,5.05-.05,10.1-.1,15.16-.15-.03.25-.02.5.05.75,0,1.68.01,3.37.02,5.05-.06,3.13-.12,6.27-.18,9.4,0,0,.08.17.08.17-3.88.59-7.67-1.25-11.7-.06-2.52.74-3.52,1.58-3.5,4.22.02,4.41.61,8.89-.85,13.21-5.27-.94-10.65.55-15.9-.78-1.46-3.7-.87-7.57-.74-11.34.13-3.56-.72-5.25-4.66-4.93-4.13.34-8.3.14-12.46.18l-.32-.27s.15-.4.15-.4c-.02-5.11-.04-10.23-.07-15.34Z"/>
      <path class="cls-12" d="M265.3,75.07q.79-7.2-6.73-7.21c-7.12,0-14.25-.1-21.37.04-3.18.06-4.53-1.09-4.43-4.34.14-4.47,0-8.95-.03-13.42,0,0,.1-.19.1-.19l.39.03c9.25.06,18.5.25,27.74.1,3.65-.06,5.47.72,5.14,4.87-.54,6.68.56,13.44-.8,20.1Z"/>
      <path class="cls-14" d="M216.33,233.1c-.95,4.59-.37,9.23-.37,13.85,0,2.51-.59,3.35-3.3,3.43-4.1.12-8.26-.63-12.32.47-5.46-1.82-11.1-.38-16.62-.91-.02-.33-.03-.65-.06-.98-.66-6.33,1.52-14.27-8.61-15.24,8.55-.19,17.1-.38,25.65-.56,5.22,1.4,10.44,1.11,15.65-.05Z"/>
      <path class="cls-13" d="M183.71,249.94c5.53.52,11.17-.91,16.62.91.53,5.61-.62,11.29.7,16.86-3.9.27-7.75-.57-11.74.04-3.7.57-6.3-1.17-5.74-5.79.47-3.94,0-7.91-.75-11.82.29-.12.59-.19.91-.21Z"/>
      <path class="cls-14" d="M15.89,383.91c4.15-.04,8.33.16,12.46-.18,3.94-.32,4.79,1.37,4.66,4.93-.14,3.77-.73,7.65.74,11.34-5.8.58-11.6.43-17.41.11.3-.53.05-.86-.4-1.12-.02-5.03-.03-10.06-.05-15.09Z"/>
      <path class="cls-14" d="M33.11,218.87c5.43-2.38,11.04-.83,16.57-.65,1.26.04,1.07,1.83,1.07,2.96.01,3.95,0,7.9-.01,11.85-4.8.07-9.61.05-14.41.26-2.67.12-3.48-.96-3.36-3.49.18-3.64.1-7.29.14-10.94Z"/>
      <path class="cls-14" d="M216.67,366.92c2.94,0,5.88.16,8.81-.03,3.02-.2,5.39.78,7.3,3.06q1.45,13.21-11.31,13.21c-1.81,0-3.63.03-5.44.05-.15-.14-.3-.27-.45-.41.03-5,.05-10,.08-14.99-.04-.3-.07-.6-.08-.9.36,0,.73,0,1.09,0Z"/>
      <path class="cls-14" d="M65.86,233.93c4.46-.04,8.92.02,13.38-.16,2.82-.11,3.82,1.02,3.69,3.78-.18,3.79-.1,7.6-.13,11.39-3.4,0-6.81-.03-10.21.02-2.21.03-4.66-.58-6.01,2.03-.24-.03-.47-.07-.7-.13.02-.28-.06-.53-.23-.75.07-5.39.14-10.79.21-16.18Z"/>
      <path class="cls-14" d="M201.02,400.38c-1.4-5.38.8-11.06-1.36-16.38,5.16-2.38,10.64-.39,15.92-1.2.15.14.3.28.45.41-.01,4.5-.16,9,.02,13.49.1,2.69-.58,3.87-3.53,3.68-3.82-.24-7.66-.02-11.49,0Z"/>
      <path class="cls-16" d="M216.33,233.1c-5.21,1.16-10.43,1.45-15.65.05-.01-3.61.15-7.24-.09-10.84-.23-3.32.73-4.83,4.34-4.53,3.59.3,7.22.1,10.84.11,1.98,4.96.4,10.13.89,15.18,0,0-.32.03-.32.03Z"/>
      <path class="cls-13" d="M215.74,283.14c-.11.82-.09,2.3-.36,2.35-1.37.27-.49-1.25-1.14-1.76-1.79-1.42-3.84-.68-5.75-.71-7.89-.12-7.9-.07-7.83-8,.02-2.49.15-4.97.23-7.46,3.61,0,7.22,0,10.83,0,0,0,.43.15.43.15l.45-.11c2-.43,3.54-.41,3.41,2.4-.2,4.37-.19,8.76-.27,13.14Z"/>
      <path class="cls-14" d="M15.64,367.91c.02,5.11.04,10.23.07,15.34-3.9-.03-7.8-.26-11.69-.04-3.47.19-4.38-1.18-3.41-4.28,2.12-2.27.95-5.05,1.03-7.58.08-2.57,1-3.56,3.55-3.47,3.48.13,6.96.03,10.44.04Z"/>
      <path class="cls-16" d="M184.93,17.91c-.63.06-1.25.11-1.88.17-.46-.15-.93-.3-1.4-.45-1.01-3.43.16-6.84.1-10.27-.07-3.75-1.74-5.42-5.49-5.41-18.44.05-36.88,0-55.31.08-1.61,0-3.22.62-4.83.94-.9-4.27,2.53-2.69,4.1-2.7,18.41-.12,36.82-.07,55.23-.07,7.66,0,7.48,0,8.03,7.67.23,3.19-1.38,6.67,1.16,9.59.08.15.18.3.29.44Z"/>
      <path class="cls-16" d="M115.9,16.39c-.09.52-.17,1.03-.26,1.55-4.8,2.02-9.96,1.59-14.68.72-10.33-1.9-20.44.87-30.67.39-3.5-.17-2.28,2.86-2.61,4.78-.56,3.27,1.97,7.61-3.18,9.31,2.12-3.38,1.01-7.17.96-10.68-.07-4.58,1.66-5.35,5.8-5.26,12.95.28,25.91.12,38.87.11,1.96,0,4,.33,5.77-.92Z"/>
      <path class="cls-5" d="M50.6,403.03c-.92,13.41-.28,26.83-.32,40.24-.02,7.28-.73,14.59.45,21.86-.04-20.7-.08-41.4-.12-62.1Z"/>
      <path class="cls-6" d="M232.96,516.7c-.47-16.2-.43-32.39-.04-48.59,1.23,8.4.43,16.84.48,25.26.04,7.77.67,15.57-.45,23.33Z"/>
      <path class="cls-16" d="M231.57,50.04c-1.06-2.36-.65-4.71-.44-7.22.69-8.34,1.87-16.79-1.79-24.84,0,0,.21-.38.21-.38,2.51-.82,3.77-.02,3.62,2.73-.09,1.64-.09,3.28-.13,4.91-.09.24-.08.49.01.73,0,4.66-.01,9.33-.02,13.99,0,.89,0,1.78,0,2.67,0,1.58.02,3.17.02,4.74-.08.86-.15,1.73-.23,2.6,0,0-.1.18-.1.19-.38-.04-.77-.07-1.15-.11Z"/>
      <path class="cls-16" d="M63.78,33.25c-1.66,3.32-4.69,1.61-7,1.6-3.89-.03-5.07,1.45-5.18,5.23-.1,3.21,1.68,6.82-1.25,9.69-.11-.94-.23-1.87-.34-2.8.64-1.33.64-2.67,0-4q.58-10.11,10.84-9.94c.98.02,1.96.14,2.95.22Z"/>
      <path class="cls-4" d="M229.56,17.6s-.2.38-.21.38c-13.12-.1-26.24-.21-39.35-.31,13.19-.71,26.38-.61,39.56-.07Z"/>
      <path class="cls-6" d="M215.75,467.89c-.02-5.59-.05-11.18-.07-16.77.97,3.91.45,7.88.37,11.81-.07,3.2.88,4.34,4.17,4.32,4.07-.03,8.19-.78,12.22.43-5.57.07-11.13.14-16.69.21Z"/>
      <path class="cls-6" d="M215.53,450.85c-4.6-.1-9.23.66-13.8-.42,4.61-.2,9.24-1.21,13.8.42Z"/>
      <path class="cls-16" d="M116.12,6.99c.62.07,1.22.27,1.22.99,0,.72-.6.92-1.22.99,0-.66,0-1.32,0-1.98Z"/>
      <path class="cls-2" d="M50,42.97c.65,1.33.65,2.66,0,4-.65-1.33-.66-2.67,0-4Z"/>
      <path class="cls-4" d="M184.93,17.91c-.11-.14-.2-.28-.29-.44.93-.26,1.84-.39,2.67.25-.8.06-1.59.12-2.38.19Z"/>
      <path class="cls-4" d="M233.03,42.63c0-.89,0-1.79,0-2.67,0,.89,0,1.78,0,2.67Z"/>
      <path class="cls-16" d="M58.5,250.39c-.86.76-1.71.75-2.56,0,.86-.48,1.71-.48,2.56,0Z"/>
      <path class="cls-4" d="M232.82,49.96c.08-.87.15-1.74.23-2.6.06.88.11,1.76.16,2.63,0,0-.39-.03-.39-.03Z"/>
      <path class="cls-2" d="M26.76,67.21c-.67.44-1.35.48-2.05.08.67-.54,1.35-.57,2.05-.08Z"/>
      <polygon class="cls-12" points="265.78 78.9 265.82 79.11 265.96 78.98 265.78 78.9"/>
      <path class="cls-4" d="M233.06,25.97c-.09-.24-.1-.49-.01-.73.28.22.28.46.01.73Z"/>
      <path class="cls-16" d="M65.64,250.11c.17.22.25.47.23.75-.35-.15-.71-.31-1.06-.46.2-.31.48-.41.83-.29Z"/>
      <path class="cls-16" d="M16.61,283.3c.12.47-.05.64-.52.51-.23-.59-.02-.72.52-.51Z"/>
      <path class="cls-1" d="M212.6,267.6l-.45.11s-.44-.15-.43-.15c.32-.43.61-.42.88.04Z"/>
      <path class="cls-2" d="M32.53,66.87c.04.36.07.71.11,1.07,0,0,.07-.04.07-.04-.32-.12-.64-.11-.95.04-.06-.27-.02-.53.12-.78.11-.3.33-.4.65-.3Z"/>
      <path class="cls-16" d="M15.93,399.01c.45.26.71.59.4,1.12-.61-.21-.72-.59-.4-1.12Z"/>
      <path class="cls-2" d="M22.75,67.29c-.35-.01-.71-.02-1.06-.03.35.01.71.02,1.06.03Z"/>
      <path class="cls-2" d="M18.78,67.25c-.35,0-.7-.01-1.06-.02.35,0,.7.01,1.06.02Z"/>
      <path class="cls-2" d="M215.77,217.9c-3.61-.02-7.25.18-10.84-.11-3.6-.3-4.56,1.21-4.34,4.53.24,3.6.08,7.23.09,10.84-8.55.19-17.1.38-25.65.56-3.04-1.24-6.26-.28-9.37-.74.05-3.97.04-7.95.19-11.92.08-2.15-.35-3.37-2.93-3.33-8.95.12-17.9.06-26.86.07-2.61,0-3.44,1.16-2.4,3.59-.08.14-.25.28-.23.4.04.3.17.58.26.87-.09,2.46-.11,4.93-.28,7.39-.17,2.37.84,3.14,3.16,3.1,9.72-.15,19.44-.16,29.16-.23.1,5.71.2,11.43.3,17.14-16.8.57-33.59.42-50.39.02.08-4.16.02-8.33.29-12.48.2-3.18-1.21-3.91-4.12-3.93-8.31-.05-16.62-.48-24.93-.5-2.96,0-4.06-.82-4.11-3.94-.06-3.86,1.91-9.04-1.2-11.25-2.58-1.83-7.38-.55-11.2-.62-5.32-.09-10.65-.28-15.97-.18-2.76.05-3.94-.81-3.77-3.7.19-3.15-.08-6.33.07-9.49.13-2.84-1.07-3.84-3.83-3.8-4.49.08-8.98-.09-13.48-.15.05-14.95.17-29.91.08-44.86-.02-3.76,1.67-4.85,5.1-5.03,11.56-.61,11.89-.37,11.99,10.99.01,1.33.16,2.65.24,3.97-.11.79-.08,1.52.81,1.89,4.35,1.19,8.73,1.06,13.14.41,2.38,3.5.97,7.42,1.04,11.11.06,3.3.68,4.66,4.39,4.67,13.12.05,13.12.2,13.13-12.77,0-10.82.13-21.65-.06-32.47-.06-3.58.81-5.08,4.71-4.93,3.92.15,8.84,1.78,11.58-.75,2.6-2.4.82-7.28.83-11.05.01-2.99,1.32-3.56,3.95-3.55,19.15.08,38.3.09,57.45,0,3.02-.01,3.89.99,4.01,4.03.45,11.41.59,11.4,12.06,11.44,6.16.02,12.32.12,18.48.1,3.04,0,4.58,1.04,4.25,4.43-.29,2.97.11,6-.11,8.98-.24,3.16,1.08,3.97,4.06,3.92,8.16-.14,16.32.04,24.48-.02,2.51-.02,4.08.36,4.01,3.48-.22,9.81-.21,19.63-.29,29.44-4.29-.08-8.59,0-12.87-.31-3.15-.22-3.85,1.01-3.83,3.97.08,10.24-.13,20.49-.23,30.73ZM115.91,167.89c-1.82.01-3.63.07-5.45.02-11.32-.26-12.22.77-10.66,12.27.04.33.05.66.09.98.11.92.62,1.51,1.52,1.7,4.81,1.02,9.62,2.07,14.41-.07,15.96,2.75,18.13,1.3,17.56-11.79-.01-.33-.02-.66,0-.99.14-1.95-.87-2.64-2.7-2.55-4.92.25-9.87-.51-14.78.42ZM183.07,167.8c-2.48.04-4.95.14-7.43.11-2.93-.03-6.44-1.23-8.65-.02-3.16,1.73-.24,5.68-1,8.73-1.13,4.6.89,6.84,5.65,7.15,3.94.26,7.92,0,11.88-.02,4.6-1.05,9.27-.33,13.91-.41,2.4-.04,3.05-.75,3.16-3.13.62-12.91.69-12.92-12.06-12.71-1.82.03-3.65.2-5.47.31Z"/>
      <path class="cls-12" d="M15.73,198.95c-.46.2-.9.53-1.38.58q-12.61,1.31-12.63-11.33c-.01-26.48,0-52.95,0-79.43q0-6.83,7.01-6.82c2.33,0,4.66-.02,6.99-.03,0,32.34,0,64.69,0,97.03Z"/>
      <path class="cls-12" d="M31.76,67.95c.31-.15.63-.16.95-.04.02,9.28-.05,18.57.12,27.85.06,3.17-.87,4.44-4.22,4.35-3.94-.11-7.89.38-11.83.61,1.96-8.22.61-16.55.88-24.83.23-6.88.05-6.78,6.94-6.99,2.38-.07,5.01,1.03,7.16-.95Z"/>
      <path class="cls-12" d="M32.68,200.85c-.03,4.07-.06,8.15-.1,12.22,0,.33.08.77-.09.96-3.48,3.89-8.02,1.24-12.03,1.87-2.61.41-2.75-1.66-2.74-3.6.03-3.8.01-7.6.02-11.4,4.98-.01,9.97-.03,14.95-.04Z"/>
      <path class="cls-12" d="M51.61,167.01c-.89-.36-.92-1.1-.81-1.89.76.42.81,1.15.81,1.89Z"/>
      <path class="cls-13" d="M215.58,382.8c-5.28.81-10.76-1.18-15.92,1.2-6.26-1.27-12.58-1.11-18.91-.75-9.69,0-19.39,0-29.08,0-6.65,0-13.29,0-19.94.01-5.02,0-10.04-.02-15.06-.03-.31,0-.63,0-.94,0-4.98.02-9.95.05-14.93.07-11.73-.02-23.46-.04-35.2-.06.06-3.13.12-6.27.18-9.4,1.52-1.49.75-3.33.75-5.05,1.7-1.59,3.8-.89,5.72-.9,25.79-.07,51.58-.08,77.37-.1,5.71,0,11.41,0,17.12,0,5.29,0,10.57,0,15.86-.01,5.72,0,11.44-.02,17.16-.02,5.29.01,10.59.02,15.88.03-.03,5-.05,10-.08,14.99Z"/>
      <path class="cls-10" d="M199.78,367.77c-5.72,0-11.44.02-17.16.02-.48-4.42,1.21-8.67.32-13.28-.74-3.85-2.52-4.66-5.65-4.54-1.14.04-2.25.49-3.39.71-5.87,1.12-7.2.06-7.21-5.86-.02-10.15,0-20.31,0-30.46,0-.83.01-1.66,0-2.5-.25-11.58-.26-11.49,11.63-11.02,3.19.13,4.48,1.29,4.43,4.48-.1,7.82.14,15.65-.1,23.47-.11,3.75.74,5.35,4.92,5.21,9.64-.33,19.3-.16,28.95-.2,0,5.74-.01,11.48-.02,17.22-4.16-1.01-8.32-1.57-12.62-.72-2.97.59-4.57,1.7-4.26,5.15.36,4.08.13,8.21.16,12.31Z"/>
      <path class="cls-10" d="M115.64,250.08c16.8.4,33.59.55,50.39-.02.19.18.41.3.67.37-1.41,4.4-.79,8.95-1.05,13.43-.15,2.7-1.46,4.22-4.47,4.09-3.49-.16-6.98-.02-10.48-.02.09-3.92-.73-7.81-.06-11.77.41-2.43-.59-4.65-3.44-4.14-4.46.79-10.09-2.81-13.11,1.98-1.22,1.94-1.71,5.77-.95,9.08.84,3.63,2.61,4.98,6.14,4.86,3.81-.13,7.62-.02,11.43-.02,0,2.99-.27,6.01.05,8.97.54,4.99-1.69,6.67-6.33,6.05-.16-.02-.33,0-.5,0-10.93.03-11.04.03-11.15-10.69-.03-3.13-.79-4.72-4.19-4.36-1.64.18-3.32.03-4.98.03-7.7,0-9.04-1.61-7.68-9.23,1.07-6.01.51-6.71-5.41-6.75-1.16,0-2.33,0-3.49,0-7.36.02-7.45.12-6.6,7.63.74,6.48-.98,8.36-7.63,8.36-9.09,0-9.41,0-8.98-9.3.24-5.27-2.06-6.75-6.62-6.68-3.49.05-6.98,0-10.47-.02-.03-.31-.09-.62-.17-.92,1.35-2.61,3.8-2,6.01-2.03,3.4-.04,6.81-.01,10.21-.02.4.28.8.81,1.18.8,10.16-.28,20.24,1.68,30.41,1.02.43-.03.83-.45,1.25-.68Z"/>
      <path class="cls-10" d="M125.31,316.94c-.66,0-1.33-.08-1.98.01-4.83.68-7.72-.65-6.66-6.24.09-.48,0-.99-.01-1.49-.04-2.62-2.78-6.11.52-7.66,4.45-2.1,9.51-2.63,14.4-.64,1.35.55,2.05,1.62,2.08,3.09.02,1.49.04,2.98.02,4.46-.15,9.68,1.34,8.33-8.37,8.46Z"/>
      <path class="cls-16" d="M166.69,250.43c-.25-.07-.48-.19-.67-.37-.1-5.71-.2-11.43-.3-17.14,0,0-.06.06-.06.06,3.11.46,6.32-.5,9.37.74,10.13.98,7.95,8.91,8.61,15.24.03.32.04.65.06.98-.32.01-.62.08-.91.21-4.55-.69-9.23.47-13.74-.99-1.02-.33-1.92.22-2.37,1.28Z"/>
      <path class="cls-10" d="M191.06,283.91c9.83.15,8.62-1.33,8.62,8.28,0,8.85,1.14,7.7-8.14,7.74-8.83.05-8.88,0-8.82-7.94.07-9.26-1.18-7.95,8.34-8.09Z"/>
      <path class="cls-10" d="M166.76,367.81c-5.71,0-11.41,0-17.12,0,1.67-4.15,1.1-8.5.98-12.76-.11-3.7,1.54-5.14,4.98-5.12.17,0,.33,0,.5,0,9.61-.38,9.64-.38,9.6,9.09-.01,2.98-.07,5.95,1.07,8.78Z"/>
      <path class="cls-10" d="M141.73,332.92c-1.33,0-2.67-.09-3.99.01-4.37.34-5.79-1.62-4.64-5.74.26-.94.53-1.95.46-2.91-.47-6.34-.5-6.34,5.99-6.36,1.66,0,3.35.17,4.99-.04,4.83-.62,6.41,1.38,6.26,6.2-.27,8.85-.03,8.86-9.06,8.84Z"/>
      <path class="cls-10" d="M66.73,349.93c0-4.15.06-8.29-.05-12.44-.07-2.45.71-3.84,3.38-3.58.16.02.33,0,.5,0,14.82.38,11.74-2.63,12.22,12.17.1,3.17-1.24,4.02-4.13,3.89-3.97-.17-7.96-.06-11.94-.07,0,0,.02.02.02.02Z"/>
      <path class="cls-10" d="M91.54,332.93c-1.33,0-2.67-.12-3.98.02-3.16.34-4.25-1.19-3.85-4.08.48-3.53-1.86-8.69,1.19-10.23,3.46-1.75,8.4-.56,12.7-.64.16,0,.39,0,.48.09,3.4,3.65,1,8.09,1.57,12.13.38,2.65-1.7,2.75-3.63,2.72-1.49-.02-2.98,0-4.48,0Z"/>
      <path class="cls-10" d="M66.57,352.02c-1.95-.68-3.9-1.36-5.85-2.03,1.98-2.39,4.01.67,6-.06,0,0-.02-.02-.02-.02-.05.7-.09,1.4-.14,2.11Z"/>
      <path class="cls-10" d="M66.54,368.81c0,1.72.77,3.56-.75,5.05,0-1.68-.01-3.37-.02-5.05.26.03.52.03.78,0Z"/>
      <path class="cls-9" d="M133.38,468.94c.83-1.01,1.99-1.09,3.17-1.08,21.26.06,42.53.11,63.8.17,0,10.65,0,21.29,0,31.94-5.54,1.39-11.13.47-16.7.56-4.27.07-8.43-2.64-12.91-.05-2.33,1.35-5.15-2.05-4.7-5.2,1.2-8.44-.07-9.44-8.23-10.54-8.11-1.1-16.18-.52-24.25-.92-.05-4.95-.11-9.91-.16-14.86Z"/>
      <path class="cls-9" d="M82.76,499.69c-6.75,2.42-13.78,1.6-20.49.65-10.57-1.5-10.51-1.99-10.53-12.63,0-4.66.2-9.32-.08-13.96-.22-3.64.86-4.97,4.71-4.89,8.8.18,17.61-.11,26.41-.21,0,0,.2.24.2.24-.07,10.27-.15,20.54-.22,30.81Z"/>
      <path class="cls-7" d="M82.76,499.69c.07-10.27.14-20.54.22-30.81,5.75,0,11.49,0,17.23,0,.07,10.37.14,20.73.21,31.1-5.89-.1-11.78-.19-17.66-.29Z"/>
      <path class="cls-7" d="M133.38,468.94c.05,4.96.11,9.91.16,14.86-1.7,3.97-.53,8.13-.67,12.19-.1,2.94-.94,4.15-4.01,4.02-4.28-.19-8.57,0-12.86.02.07-10.4.14-20.81.21-31.21,5.73.04,11.45.08,17.18.12Z"/>
      <path class="cls-8" d="M200.34,499.97c0-10.65,0-21.3,0-31.94,5.13-.04,10.26-.09,15.39-.14.06,9.59.08,19.17.22,28.75.03,2.39-.48,3.73-3.25,3.58-4.11-.22-8.24-.19-12.37-.26Z"/>
      <path class="cls-8" d="M116.21,468.82c-.07,10.4-.14,20.81-.21,31.21-5.19-.02-10.38-.04-15.57-.06-.07-10.37-.14-20.73-.21-31.1,5.32-1.96,10.65-1.81,15.99-.06Z"/>
      <path class="cls-11" d="M100.81,383.32c4.98-.02,9.95-.05,14.93-.07.32.42.63.42.94,0,5.02,0,10.04.02,15.05.03,1.61,1.63,1,3.7,1.09,5.62.41,9.66-.69,19.35.62,28.99-.02,9.12-.17,18.25,0,27.37.07,4.04-1.3,5.54-5.47,5.43-14.75-.38-29.5-.45-44.26-.64-.26-.95-.75-1.91-.75-2.86-.06-14.41-.02-28.83-.09-43.24-.01-2.5,1.22-3.09,3.4-3.04,3.48.08,6.96-.05,10.44.03,2.33.05,3.17-.95,3.24-3.26.15-4.78.57-9.56.87-14.34Z"/>
      <path class="cls-11" d="M151.67,383.26c9.69,0,19.39,0,29.08,0,1.69.85,2.11,2.22,2.11,4.08-.1,20.96-.12,41.91-.16,62.87-9.28.13-18.55.17-27.83.42-3.45.09-4.54-1.21-4.48-4.65.15-9.27-.06-18.56-.12-27.83.11-9.9.22-19.8.33-29.7.02-1.8-.31-3.66,1.08-5.18Z"/>
      <path class="cls-6" d="M100.81,383.32c-.31,4.78-.72,9.55-.87,14.34-.07,2.31-.91,3.32-3.24,3.26-3.48-.08-6.96.05-10.44-.03-2.18-.05-3.41.54-3.4,3.04.07,14.41.04,28.83.09,43.24,0,.96.49,1.91.75,2.86-5.01,1.63-10.16.63-15.23.63-3.17,0-2.68-2.81-2.69-4.9-.02-18.28,0-36.57-.01-54.85,0-2.49-.05-4.98-.08-7.48,0,0-.08-.18-.08-.17,11.73.02,23.46.04,35.2.06Z"/>
      <path class="cls-6" d="M151.67,383.26c-1.39,1.51-1.06,3.38-1.08,5.18-.11,9.9-.22,19.8-.33,29.7-5.61-.08-11.22-.17-16.83-.25-1.31-9.64-.2-19.33-.62-28.99-.08-1.92.53-3.99-1.09-5.62,6.65,0,13.29,0,19.94-.01Z"/>
      <path class="cls-2" d="M50.56,368.21c-.2,3.97-.64,7.95-.5,11.91.08,2.34-.64,3-2.73,2.8-.49-.05-1,.01-1.49,0-3.98-.07-8.83,1.23-11.71-.59-3.28-2.07-.79-7.33-1.41-11.14-.18-1.11-.71-2.17-1.08-3.25,6.31-.17,12.63-.66,18.93.26Z"/>
      <path class="cls-1" d="M199.78,367.77c-.03-4.11.21-8.24-.16-12.31-.31-3.45,1.29-4.56,4.26-5.15,4.3-.86,8.46-.29,12.62.72-1.09,4.6-1.1,9.19.03,13.78-1.14.33-2.36.62-.94,2.1,0,.3.03.6.08.9-5.29-.01-10.59-.02-15.88-.04Z"/>
      <path class="cls-10" d="M215.58,366.91c-1.42-1.48-.2-1.77.94-2.1.05.7.1,1.4.15,2.11-.36,0-.73,0-1.09,0Z"/>
      <path class="cls-12" d="M133.7,222.65c-.09-.29-.22-.57-.26-.87-.02-.12.15-.27.23-.4.99-1.34,1.93-2.53,3.96-2.5,8,.11,15.99.07,23.99.04,1.99,0,3.17.53,3.03,2.84-.12,1.96-.07,3.95.11,5.9.31,3.19-.83,4.49-4.2,4.37-6.32-.22-12.68-.41-18.98.04-5.26.37-7.96-.92-6.93-6.68.18-1-.21-1.97-.96-2.73Z"/>
      <path class="cls-5" d="M183.07,167.8c1.82-.11,3.64-.28,5.47-.31,12.75-.21,12.68-.2,12.06,12.71-.11,2.38-.76,3.08-3.16,3.13-4.63.08-9.3-.63-13.91.42-1.16-5.28-1.1-10.6-.45-15.94Z"/>
      <path class="cls-5" d="M115.91,167.89c4.9-.93,9.85-.17,14.78-.42,1.83-.09,2.84.59,2.7,2.55-.02.33-.01.66,0,.99.57,13.09-1.6,14.54-17.56,11.79.03-4.97.05-9.94.08-14.91Z"/>
      <path class="cls-3" d="M183.07,167.8c-.65,5.34-.7,10.66.45,15.94-3.96.03-7.93.28-11.88.02-4.76-.31-6.79-2.55-5.65-7.15.75-3.05-2.17-7,1-8.73,2.22-1.21,5.72-.01,8.65.02,2.47.03,4.95-.07,7.43-.11Z"/>
      <path class="cls-3" d="M115.91,167.89c-.03,4.97-.05,9.94-.08,14.91-4.79,2.15-9.6,1.09-14.41.07-.9-.19-1.41-.79-1.52-1.7-.04-.33-.05-.66-.09-.98-1.56-11.49-.66-12.52,10.66-12.27,1.81.04,3.63-.01,5.45-.02Z"/>
      <path class="cls-1" d="M133.7,222.65c.75.76,1.14,1.73.96,2.73-1.04,5.75,1.66,7.05,6.93,6.68,6.3-.45,12.66-.25,18.98-.04,3.37.12,4.51-1.19,4.2-4.37-.19-1.96-.23-3.95-.11-5.9.14-2.31-1.04-2.85-3.03-2.84-8,.04-15.99.07-23.99-.04-2.03-.03-2.97,1.16-3.96,2.5-1.04-2.43-.21-3.59,2.4-3.59,8.95,0,17.91.05,26.86-.07,2.57-.03,3.01,1.18,2.93,3.33-.15,3.97-.14,7.95-.19,11.92,0,0,.06-.06.06-.06-9.72.06-19.44.08-29.16.23-2.32.04-3.33-.74-3.16-3.1.18-2.46.2-4.93.28-7.39Z"/>
      <path class="cls-6" d="M116.68,383.24c-.31.42-.63.43-.94,0,.32,0,.63,0,.94,0Z"/>
      <path class="cls-1" d="M150.71,267.93c-3.81,0-7.62-.11-11.43.02-3.53.12-5.31-1.23-6.14-4.86-.76-3.3-.27-7.14.95-9.08,3.02-4.79,8.65-1.19,13.11-1.98,2.86-.51,3.85,1.72,3.44,4.14-.67,3.95.16,7.85.06,11.77,0,0,.01-.01.01-.01Z"/>
    </g>
  </g>
</svg>